# Exported using Kenney Suite 1.2 

mtllib wallHalfModular_exclusive.mtl 

g wallHalfModular_exclusive

v 0 2.8 0 
v 0 0 0 
v -5.288024E-13 2.8 -10 
v -5.288024E-13 0 -10 
v 6.045822 -1.636913E-15 -3.189495E-13 
v 6.045822 11.8 -3.189495E-13 
v 0.35 4.5 -1.825542E-14 
v 0.35 10.1 -1.825542E-14 
v 0 11.1 0 
v 2.091643 11.8 -1.090966E-13 
v 0 12.65 0 
v 1.195049 12.2 -4.789355E-14 
v 2.091643 12.2 -1.090966E-13 
v 1.195049 12.65 -4.789355E-14 
v 0.35 4.5 -10 
v -5.215833E-13 11.1 -10 
v 0.35 10.1 -10 
v -1.303958E-13 13.1 -2.5 
v -1.303958E-13 12.65 -2.5 
v -2.607917E-13 13.1 -5 
v -2.607917E-13 12.65 -5 
v -3.911875E-13 12.65 -7.5 
v -5.215833E-13 13.1 -10 
v -3.911875E-13 13.1 -7.5 
v 1.195049 12.2 -2.5 
v 1.695049 12.2 -2.5 
v 1.695049 12.2 -5 
v 1.695049 12.2 -7.5 
v 1.695049 12.2 -10 
v 2.091643 12.2 -10 
v 1.195049 12.2 -7.5 
v 1.195049 12.2 -5 
v 1.695049 13.1 -7.5 
v 1.695049 13.1 -10 
v 1.695049 13.1 -2.5 
v 1.695049 13.1 -5 
v 1.195049 12.65 -5 
v 1.195049 12.65 -7.5 
v 1.195049 12.65 -2.5 
v 2.091643 11.8 -10 
v 6.045822 11.8 -10 
v 6.045822 -8.014827E-31 -10 

vn -1 0 5.215833E-14
vn 5.215833E-14 0 1
vn -0.9794571 0.2016529 5.108685E-14
vn -0.9438583 -0.3303504 4.923007E-14
vn 0 1 0
vn 1 0 -5.215833E-14
vn -5.215833E-14 0 -1
vn 0 -1 0

vt 0 11.02362
vt 0 0
vt -39.37008 11.02362
vt -39.37008 0
vt 23.80245 -6.444539E-15
vt 23.80245 46.45669
vt 1.377953 17.71654
vt 1.377953 39.76378
vt 0 43.70079
vt 8.234817 46.45669
vt 0 49.80315
vt 4.704919 48.0315
vt 8.234817 48.0315
vt 4.704919 49.80315
vt 0 17.63045
vt 0 10.79716
vt -39.37008 17.63045
vt -39.37008 10.79716
vt 0 41.24735
vt 0 37.07617
vt -39.37008 41.24735
vt -39.37008 37.07617
vt -9.84252 51.5748
vt -9.84252 49.80315
vt -19.68504 51.5748
vt -19.68504 49.80315
vt -39.37008 43.70079
vt -29.52756 49.80315
vt -39.37008 51.5748
vt -29.52756 51.5748
vt 4.704919 -5.684342E-14
vt 4.704919 9.84252
vt 8.234817 0
vt 6.673423 9.84252
vt 6.673423 19.68504
vt 6.673423 29.52756
vt 6.673423 39.37008
vt 8.234817 39.37008
vt 4.704919 29.52756
vt 4.704919 19.68504
vt 29.52756 48.0315
vt 29.52756 51.5748
vt 39.37008 48.0315
vt 39.37008 51.5748
vt 9.84252 48.0315
vt 9.84252 51.5748
vt 19.68504 48.0315
vt 19.68504 51.5748
vt 0 9.84252
vt 0 19.68504
vt 0 29.52756
vt 0 39.37008
vt -5.684342E-14 48.0315
vt -5.684342E-14 49.80315
vt 9.84252 49.80315
vt 6.673423 48.0315
vt 6.673423 51.5748
vt 0 51.5748
vt 19.68504 49.80315
vt 29.52756 49.80315
vt -1.248649E-13 49.80315
vt -1.248649E-13 51.5748
vt -4.704919 49.80315
vt -6.673423 51.5748
vt -6.673423 48.0315
vt -4.704919 48.0315
vt 0 46.45669
vt 0 48.0315
vt 39.37008 46.45669
vt 6.046564E-14 43.70079
vt -8.234817 46.45669
vt 6.046564E-14 51.5748
vt -8.234817 48.0315
vt -23.80245 46.45669
vt -1.377953 39.76378
vt -1.377953 17.71654
vt 8.888735E-14 11.02362
vt 8.888735E-14 -1.60702E-14
vt -23.80245 -1.60702E-14
vt 2.842171E-14 39.37008
vt -23.80245 39.37008
vt -23.80245 1.421085E-14
vt 1.328933E-15 -6.444539E-15
vt 1.328933E-15 46.45669
vt 39.37008 -1.094897E-29
vt 0 39.76378
vt 0 17.71654
vt -39.37008 39.76378
vt -39.37008 17.71654
vt 23.80245 39.37008
vt 23.80245 1.421085E-14

usemtl wall
usemap wall

f 2/2/1 1/1/1 3/3/1
f 3/3/1 4/4/1 2/2/1
f 2/2/2 5/5/2 6/6/2
f 6/6/2 1/1/2 2/2/2
f 6/6/2 7/7/2 1/1/2
f 6/6/2 8/8/2 7/7/2
f 6/6/2 9/9/2 8/8/2
f 6/6/2 10/10/2 9/9/2
f 10/10/2 11/11/2 9/9/2
f 10/10/2 12/12/2 11/11/2
f 10/10/2 13/13/2 12/12/2
f 12/12/2 14/14/2 11/11/2
f 1/16/3 7/15/3 15/17/3
f 15/17/3 3/18/3 1/16/3
f 8/20/4 9/19/4 16/21/4
f 16/21/4 17/22/4 8/20/4
f 19/24/1 18/23/1 20/25/1
f 19/24/1 20/25/1 21/26/1
f 19/24/1 21/26/1 16/27/1
f 19/24/1 16/27/1 9/9/1
f 9/9/1 11/11/1 19/24/1
f 21/26/1 22/28/1 16/27/1
f 22/28/1 23/29/1 16/27/1
f 22/28/1 24/30/1 23/29/1
f 25/32/5 12/31/5 13/33/5
f 13/33/5 26/34/5 25/32/5
f 13/33/5 27/35/5 26/34/5
f 13/33/5 28/36/5 27/35/5
f 13/33/5 29/37/5 28/36/5
f 13/33/5 30/38/5 29/37/5
f 27/35/5 28/36/5 31/39/5
f 31/39/5 32/40/5 27/35/5
f 33/42/6 28/41/6 29/43/6
f 29/43/6 34/44/6 33/42/6
f 35/46/6 26/45/6 27/47/6
f 27/47/6 36/48/6 35/46/6
f 20/50/5 18/49/5 35/34/5
f 35/34/5 36/35/5 20/50/5
f 23/52/5 24/51/5 33/36/5
f 33/36/5 34/37/5 23/52/5
f 22/51/5 21/50/5 37/40/5
f 37/40/5 38/39/5 22/51/5
f 19/49/5 11/2/5 14/31/5
f 14/31/5 39/32/5 19/49/5
f 14/54/6 12/53/6 25/45/6
f 25/45/6 39/55/6 14/54/6
f 25/12/2 26/56/2 35/57/2
f 35/57/2 39/14/2 25/12/2
f 35/57/2 19/11/2 39/14/2
f 35/57/2 18/58/2 19/11/2
f 37/59/6 32/47/6 31/41/6
f 31/41/6 38/60/6 37/59/6
f 31/12/2 28/56/2 33/57/2
f 33/57/2 38/14/2 31/12/2
f 33/57/2 22/61/2 38/14/2
f 33/57/2 24/62/2 22/61/2
f 37/63/7 21/11/7 20/58/7
f 37/63/7 20/58/7 36/64/7
f 37/63/7 36/64/7 27/65/7
f 27/65/7 32/66/7 37/63/7
f 13/68/6 10/67/6 40/69/6
f 40/69/6 30/43/6 13/68/6
f 40/71/7 16/70/7 23/72/7
f 23/72/7 29/65/7 40/71/7
f 23/72/7 34/64/7 29/65/7
f 40/71/7 29/65/7 30/73/7
f 16/70/7 40/71/7 41/74/7
f 17/75/7 16/70/7 41/74/7
f 15/76/7 17/75/7 41/74/7
f 3/77/7 15/76/7 41/74/7
f 4/78/7 3/77/7 41/74/7
f 41/74/7 42/79/7 4/78/7
f 2/2/8 4/80/8 42/81/8
f 42/81/8 5/82/8 2/2/8
f 6/84/6 5/83/6 42/85/6
f 42/85/6 41/69/6 6/84/6

usemtl wallDark
usemap wallDark

f 7/87/1 8/86/1 17/88/1
f 17/88/1 15/89/1 7/87/1
f 41/90/5 40/38/5 10/33/5
f 10/33/5 6/91/5 41/90/5
