{
  "accessors": [
    {
      "bufferView": 0,
      "componentType": 5126,
      "count": 774,
      "type": "VEC3",
      "max": [
        0.060000002384185791,
        0.58499997854232788,
        1.184999942779541
      ],
      "min": [
        -0.51499998569488525,
        0.00024914604728110135,
        -2.1747581085149528E-14
      ]
    },
    {
      "bufferView": 1,
      "componentType": 5126,
      "count": 774,
      "type": "VEC3",
      "max": [
        1.0,
        1.0,
        1.0
      ],
      "min": [
        -1.0,
        -1.0,
        -1.0
      ]
    },
    {
      "bufferView": 2,
      "componentType": 5126,
      "count": 774,
      "type": "VEC4",
      "max": [
        1.0,
        0.0,
        1.0,
        1.0
      ],
      "min": [
        -1.0,
        0.0,
        -1.0,
        -1.0
      ]
    },
    {
      "bufferView": 3,
      "componentType": 5126,
      "count": 774,
      "type": "VEC2",
      "max": [
        46.653541564941406,
        36.048587799072266
      ],
      "min": [
        -46.653541564941406,
        -45.653541564941406
      ]
    },
    {
      "bufferView": 4,
      "componentType": 5123,
      "count": 486,
      "type": "SCALAR",
      "max": [
        271.0
      ],
      "min": [
        0.0
      ]
    },
    {
      "bufferView": 5,
      "componentType": 5123,
      "count": 480,
      "type": "SCALAR",
      "max": [
        489.0
      ],
      "min": [
        272.0
      ]
    },
    {
      "bufferView": 6,
      "componentType": 5123,
      "count": 606,
      "type": "SCALAR",
      "max": [
        725.0
      ],
      "min": [
        292.0
      ]
    },
    {
      "bufferView": 7,
      "componentType": 5123,
      "count": 12,
      "type": "SCALAR",
      "max": [
        729.0
      ],
      "min": [
        288.0
      ]
    },
    {
      "bufferView": 8,
      "componentType": 5123,
      "count": 42,
      "type": "SCALAR",
      "max": [
        733.0
      ],
      "min": [
        272.0
      ]
    },
    {
      "bufferView": 9,
      "componentType": 5123,
      "count": 60,
      "type": "SCALAR",
      "max": [
        755.0
      ],
      "min": [
        382.0
      ]
    },
    {
      "bufferView": 10,
      "componentType": 5123,
      "count": 12,
      "type": "SCALAR",
      "max": [
        763.0
      ],
      "min": [
        756.0
      ]
    },
    {
      "bufferView": 11,
      "componentType": 5123,
      "count": 18,
      "type": "SCALAR",
      "max": [
        773.0
      ],
      "min": [
        764.0
      ]
    },
    {
      "bufferView": 12,
      "componentType": 5126,
      "count": 384,
      "type": "VEC3",
      "max": [
        0.10000000149011612,
        0.14000000059604645,
        0.14000000059604645
      ],
      "min": [
        -1.8047785270195561E-16,
        -0.14000000059604645,
        -0.14000000059604645
      ]
    },
    {
      "bufferView": 13,
      "componentType": 5126,
      "count": 384,
      "type": "VEC3",
      "max": [
        1.0,
        1.0,
        1.0
      ],
      "min": [
        -1.0,
        -1.0,
        -1.0
      ]
    },
    {
      "bufferView": 14,
      "componentType": 5126,
      "count": 384,
      "type": "VEC4",
      "max": [
        1.0,
        0.081901460886001587,
        1.0,
        1.0
      ],
      "min": [
        -1.0,
        -0.081901460886001587,
        -1.0,
        1.0
      ]
    },
    {
      "bufferView": 15,
      "componentType": 5126,
      "count": 384,
      "type": "VEC2",
      "max": [
        5.5118112564086914,
        6.5118112564086914
      ],
      "min": [
        -5.5118112564086914,
        -4.5118112564086914
      ]
    },
    {
      "bufferView": 16,
      "componentType": 5123,
      "count": 498,
      "type": "SCALAR",
      "max": [
        263.0
      ],
      "min": [
        0.0
      ]
    },
    {
      "bufferView": 17,
      "componentType": 5123,
      "count": 210,
      "type": "SCALAR",
      "max": [
        383.0
      ],
      "min": [
        264.0
      ]
    }
  ],
  "asset": {
    "version": "2.0"
  },
  "buffers": [
    {
      "uri": "carAmbulance.bin",
      "byteLength": 60432
    }
  ],
  "bufferViews": [
    {
      "buffer": 0,
      "byteLength": 9288
    },
    {
      "buffer": 0,
      "byteOffset": 9288,
      "byteLength": 9288
    },
    {
      "buffer": 0,
      "byteOffset": 18576,
      "byteLength": 12384
    },
    {
      "buffer": 0,
      "byteOffset": 30960,
      "byteLength": 6192
    },
    {
      "buffer": 0,
      "byteOffset": 37152,
      "byteLength": 972
    },
    {
      "buffer": 0,
      "byteOffset": 38124,
      "byteLength": 960
    },
    {
      "buffer": 0,
      "byteOffset": 39084,
      "byteLength": 1212
    },
    {
      "buffer": 0,
      "byteOffset": 40296,
      "byteLength": 24
    },
    {
      "buffer": 0,
      "byteOffset": 40320,
      "byteLength": 84
    },
    {
      "buffer": 0,
      "byteOffset": 40404,
      "byteLength": 120
    },
    {
      "buffer": 0,
      "byteOffset": 40524,
      "byteLength": 24
    },
    {
      "buffer": 0,
      "byteOffset": 40548,
      "byteLength": 36
    },
    {
      "buffer": 0,
      "byteOffset": 40584,
      "byteLength": 4608
    },
    {
      "buffer": 0,
      "byteOffset": 45192,
      "byteLength": 4608
    },
    {
      "buffer": 0,
      "byteOffset": 49800,
      "byteLength": 6144
    },
    {
      "buffer": 0,
      "byteOffset": 55944,
      "byteLength": 3072
    },
    {
      "buffer": 0,
      "byteOffset": 59016,
      "byteLength": 996
    },
    {
      "buffer": 0,
      "byteOffset": 60012,
      "byteLength": 420
    }
  ],
  "materials": [
    {
      "pbrMetallicRoughness": {
        "baseColorFactor": [
          0.3764706,
          0.3764706,
          0.3764706,
          1.0
        ],
        "metallicFactor": 0.0,
        "roughnessFactor": 0.5
      },
      "name": "plastic"
    },
    {
      "pbrMetallicRoughness": {
        "baseColorFactor": [
          0.9529412,
          0.9764706,
          0.9607843,
          1.0
        ],
        "metallicFactor": 0.0,
        "roughnessFactor": 0.5
      },
      "name": "paintWhite"
    },
    {
      "pbrMetallicRoughness": {
        "baseColorFactor": [
          0.9098039,
          0.333333343,
          0.3254902,
          1.0
        ],
        "metallicFactor": 0.0,
        "roughnessFactor": 0.5
      },
      "name": "paintRed"
    },
    {
      "pbrMetallicRoughness": {
        "baseColorFactor": [
          0.956862748,
          1.0,
          0.819607854,
          1.0
        ],
        "metallicFactor": 0.0,
        "roughnessFactor": 0.5
      },
      "name": "frontLight"
    },
    {
      "pbrMetallicRoughness": {
        "baseColorFactor": [
          0.298039228,
          0.3764706,
          0.466666669,
          1.0
        ],
        "metallicFactor": 0.5,
        "roughnessFactor": 0.5
      },
      "name": "glass"
    },
    {
      "pbrMetallicRoughness": {
        "baseColorFactor": [
          0.356862754,
          0.694117665,
          1.0,
          1.0
        ],
        "metallicFactor": 0.0,
        "roughnessFactor": 0.5
      },
      "name": "blueLight"
    },
    {
      "pbrMetallicRoughness": {
        "metallicFactor": 0.0,
        "roughnessFactor": 0.5
      },
      "name": "_defaultMat"
    },
    {
      "pbrMetallicRoughness": {
        "baseColorFactor": [
          0.827451,
          0.827451,
          0.827451,
          1.0
        ],
        "metallicFactor": 0.0,
        "roughnessFactor": 0.5
      },
      "name": "wheelCover"
    },
    {
      "pbrMetallicRoughness": {
        "baseColorFactor": [
          0.411764681,
          0.411764681,
          0.411764681,
          1.0
        ],
        "metallicFactor": 0.5
      },
      "name": "carTire"
    }
  ],
  "meshes": [
    {
      "primitives": [
        {
          "attributes": {
            "POSITION": 0,
            "NORMAL": 1,
            "TANGENT": 2,
            "TEXCOORD_0": 3
          },
          "indices": 4,
          "material": 0
        },
        {
          "attributes": {
            "POSITION": 0,
            "NORMAL": 1,
            "TANGENT": 2,
            "TEXCOORD_0": 3
          },
          "indices": 5,
          "material": 1
        },
        {
          "attributes": {
            "POSITION": 0,
            "NORMAL": 1,
            "TANGENT": 2,
            "TEXCOORD_0": 3
          },
          "indices": 6,
          "material": 2
        },
        {
          "attributes": {
            "POSITION": 0,
            "NORMAL": 1,
            "TANGENT": 2,
            "TEXCOORD_0": 3
          },
          "indices": 7,
          "material": 3
        },
        {
          "attributes": {
            "POSITION": 0,
            "NORMAL": 1,
            "TANGENT": 2,
            "TEXCOORD_0": 3
          },
          "indices": 8,
          "material": 4
        },
        {
          "attributes": {
            "POSITION": 0,
            "NORMAL": 1,
            "TANGENT": 2,
            "TEXCOORD_0": 3
          },
          "indices": 9,
          "material": 5
        },
        {
          "attributes": {
            "POSITION": 0,
            "NORMAL": 1,
            "TANGENT": 2,
            "TEXCOORD_0": 3
          },
          "indices": 10,
          "material": 6
        },
        {
          "attributes": {
            "POSITION": 0,
            "NORMAL": 1,
            "TANGENT": 2,
            "TEXCOORD_0": 3
          },
          "indices": 11,
          "material": 7
        }
      ],
      "name": "body"
    },
    {
      "primitives": [
        {
          "attributes": {
            "POSITION": 12,
            "NORMAL": 13,
            "TANGENT": 14,
            "TEXCOORD_0": 15
          },
          "indices": 16,
          "material": 8
        },
        {
          "attributes": {
            "POSITION": 12,
            "NORMAL": 13,
            "TANGENT": 14,
            "TEXCOORD_0": 15
          },
          "indices": 17,
          "material": 7
        }
      ],
      "name": "wheelBackLeft"
    }
  ],
  "nodes": [
    {
      "children": [
        1,
        2,
        3,
        4,
        5
      ],
      "translation": [
        4.09946537,
        0.216405392,
        0.54153347
      ],
      "name": "carAmbulance_8angles"
    },
    {
      "mesh": 0,
      "translation": [
        0.2775,
        -0.065,
        -0.735
      ],
      "name": "body"
    },
    {
      "mesh": 1,
      "rotation": [
        0.0,
        -1.0,
        0.0,
        4.32764935E-13
      ],
      "translation": [
        -0.1575,
        -0.06659495,
        0.143886715
      ],
      "name": "wheelBackLeft"
    },
    {
      "mesh": 1,
      "translation": [
        0.2575,
        -0.0618926063,
        0.143886715
      ],
      "name": "wheelBackRight"
    },
    {
      "mesh": 1,
      "rotation": [
        0.0,
        -1.0,
        0.0,
        4.32764935E-13
      ],
      "translation": [
        -0.1275,
        -0.06422076,
        -0.514601946
      ],
      "name": "wheelFrontLeft"
    },
    {
      "mesh": 1,
      "translation": [
        0.227499992,
        -0.06422076,
        -0.514601946
      ],
      "name": "wheelFrontRight"
    }
  ],
  "scene": 0,
  "scenes": [
    {
      "nodes": [
        0
      ],
      "name": "carAmbulance"
    }
  ]
}