{
  "accessors": [
    {
      "bufferView": 0,
      "componentType": 5126,
      "count": 528,
      "type": "VEC3",
      "max": [
        0.0,
        0.36500000953674316,
        1.1991206407546997
      ],
      "min": [
        -0.45499998331069946,
        0.000415679591242224,
        0.0
      ]
    },
    {
      "bufferView": 1,
      "componentType": 5126,
      "count": 528,
      "type": "VEC3",
      "max": [
        1.0,
        1.0,
        1.0
      ],
      "min": [
        -1.0,
        -1.0,
        -1.0
      ]
    },
    {
      "bufferView": 2,
      "componentType": 5126,
      "count": 528,
      "type": "VEC4",
      "max": [
        1.0,
        0.0,
        1.0,
        1.0
      ],
      "min": [
        -1.0,
        0.0,
        -1.0,
        -1.0
      ]
    },
    {
      "bufferView": 3,
      "componentType": 5126,
      "count": 528,
      "type": "VEC2",
      "max": [
        47.209476470947266,
        44.331127166748047
      ],
      "min": [
        -47.209476470947266,
        -46.210781097412109
      ]
    },
    {
      "bufferView": 4,
      "componentType": 5121,
      "count": 30,
      "type": "SCALAR",
      "max": [
        17.0
      ],
      "min": [
        0.0
      ]
    },
    {
      "bufferView": 5,
      "componentType": 5123,
      "count": 846,
      "type": "SCALAR",
      "max": [
        420.0
      ],
      "min": [
        18.0
      ]
    },
    {
      "bufferView": 6,
      "componentType": 5123,
      "count": 408,
      "type": "SCALAR",
      "max": [
        523.0
      ],
      "min": [
        1.0
      ]
    },
    {
      "bufferView": 7,
      "componentType": 5123,
      "count": 12,
      "type": "SCALAR",
      "max": [
        527.0
      ],
      "min": [
        520.0
      ]
    },
    {
      "bufferView": 8,
      "componentType": 5126,
      "count": 384,
      "type": "VEC3",
      "max": [
        0.10000000149011612,
        0.14000000059604645,
        0.14000000059604645
      ],
      "min": [
        -1.8047785270195561E-16,
        -0.14000000059604645,
        -0.14000000059604645
      ]
    },
    {
      "bufferView": 9,
      "componentType": 5126,
      "count": 384,
      "type": "VEC3",
      "max": [
        1.0,
        1.0,
        1.0
      ],
      "min": [
        -1.0,
        -1.0,
        -1.0
      ]
    },
    {
      "bufferView": 10,
      "componentType": 5126,
      "count": 384,
      "type": "VEC4",
      "max": [
        1.0,
        0.081901460886001587,
        1.0,
        1.0
      ],
      "min": [
        -1.0,
        -0.081901460886001587,
        -1.0,
        1.0
      ]
    },
    {
      "bufferView": 11,
      "componentType": 5126,
      "count": 384,
      "type": "VEC2",
      "max": [
        5.5118112564086914,
        6.5118112564086914
      ],
      "min": [
        -5.5118112564086914,
        -4.5118112564086914
      ]
    },
    {
      "bufferView": 12,
      "componentType": 5123,
      "count": 498,
      "type": "SCALAR",
      "max": [
        263.0
      ],
      "min": [
        0.0
      ]
    },
    {
      "bufferView": 13,
      "componentType": 5123,
      "count": 210,
      "type": "SCALAR",
      "max": [
        383.0
      ],
      "min": [
        264.0
      ]
    }
  ],
  "asset": {
    "version": "2.0"
  },
  "buffers": [
    {
      "uri": "carSports.bin",
      "byteLength": 47754
    }
  ],
  "bufferViews": [
    {
      "buffer": 0,
      "byteLength": 6336
    },
    {
      "buffer": 0,
      "byteOffset": 6336,
      "byteLength": 6336
    },
    {
      "buffer": 0,
      "byteOffset": 12672,
      "byteLength": 8448
    },
    {
      "buffer": 0,
      "byteOffset": 21120,
      "byteLength": 4224
    },
    {
      "buffer": 0,
      "byteOffset": 25344,
      "byteLength": 30
    },
    {
      "buffer": 0,
      "byteOffset": 25374,
      "byteLength": 1692
    },
    {
      "buffer": 0,
      "byteOffset": 27066,
      "byteLength": 816
    },
    {
      "buffer": 0,
      "byteOffset": 27882,
      "byteLength": 24
    },
    {
      "buffer": 0,
      "byteOffset": 27906,
      "byteLength": 4608
    },
    {
      "buffer": 0,
      "byteOffset": 32514,
      "byteLength": 4608
    },
    {
      "buffer": 0,
      "byteOffset": 37122,
      "byteLength": 6144
    },
    {
      "buffer": 0,
      "byteOffset": 43266,
      "byteLength": 3072
    },
    {
      "buffer": 0,
      "byteOffset": 46338,
      "byteLength": 996
    },
    {
      "buffer": 0,
      "byteOffset": 47334,
      "byteLength": 420
    }
  ],
  "materials": [
    {
      "pbrMetallicRoughness": {
        "baseColorFactor": [
          0.298039228,
          0.3764706,
          0.466666669,
          1.0
        ],
        "metallicFactor": 0.5,
        "roughnessFactor": 0.5
      },
      "name": "glass"
    },
    {
      "pbrMetallicRoughness": {
        "baseColorFactor": [
          0.3764706,
          0.3764706,
          0.3764706,
          1.0
        ],
        "metallicFactor": 0.0,
        "roughnessFactor": 0.5
      },
      "name": "plastic"
    },
    {
      "pbrMetallicRoughness": {
        "baseColorFactor": [
          0.9529412,
          0.9764706,
          0.9607843,
          1.0
        ],
        "metallicFactor": 0.0,
        "roughnessFactor": 0.5
      },
      "name": "paintWhite"
    },
    {
      "pbrMetallicRoughness": {
        "baseColorFactor": [
          0.956862748,
          1.0,
          0.819607854,
          1.0
        ],
        "metallicFactor": 0.0,
        "roughnessFactor": 0.5
      },
      "name": "frontLight"
    },
    {
      "pbrMetallicRoughness": {
        "baseColorFactor": [
          0.411764681,
          0.411764681,
          0.411764681,
          1.0
        ],
        "metallicFactor": 0.5
      },
      "name": "carTire"
    },
    {
      "pbrMetallicRoughness": {
        "baseColorFactor": [
          0.827451,
          0.827451,
          0.827451,
          1.0
        ],
        "metallicFactor": 0.0,
        "roughnessFactor": 0.5
      },
      "name": "wheelCover"
    }
  ],
  "meshes": [
    {
      "primitives": [
        {
          "attributes": {
            "POSITION": 0,
            "NORMAL": 1,
            "TANGENT": 2,
            "TEXCOORD_0": 3
          },
          "indices": 4,
          "material": 0
        },
        {
          "attributes": {
            "POSITION": 0,
            "NORMAL": 1,
            "TANGENT": 2,
            "TEXCOORD_0": 3
          },
          "indices": 5,
          "material": 1
        },
        {
          "attributes": {
            "POSITION": 0,
            "NORMAL": 1,
            "TANGENT": 2,
            "TEXCOORD_0": 3
          },
          "indices": 6,
          "material": 2
        },
        {
          "attributes": {
            "POSITION": 0,
            "NORMAL": 1,
            "TANGENT": 2,
            "TEXCOORD_0": 3
          },
          "indices": 7,
          "material": 3
        }
      ],
      "name": "body 8"
    },
    {
      "primitives": [
        {
          "attributes": {
            "POSITION": 8,
            "NORMAL": 9,
            "TANGENT": 10,
            "TEXCOORD_0": 11
          },
          "indices": 12,
          "material": 4
        },
        {
          "attributes": {
            "POSITION": 8,
            "NORMAL": 9,
            "TANGENT": 10,
            "TEXCOORD_0": 11
          },
          "indices": 13,
          "material": 5
        }
      ],
      "name": "wheelBackLeft 8"
    }
  ],
  "nodes": [
    {
      "children": [
        1,
        2,
        3,
        4,
        5
      ],
      "translation": [
        -3.33769178,
        0.203880891,
        0.55637604
      ],
      "name": "carSports_8angles"
    },
    {
      "mesh": 0,
      "translation": [
        0.2775,
        -0.065,
        -0.735
      ],
      "name": "body 8"
    },
    {
      "mesh": 1,
      "rotation": [
        0.0,
        -1.0,
        0.0,
        4.32764935E-13
      ],
      "translation": [
        -0.0975000039,
        -0.0664054,
        0.19749999
      ],
      "name": "wheelBackLeft 8"
    },
    {
      "mesh": 1,
      "translation": [
        0.19749999,
        -0.0617030524,
        0.19749999
      ],
      "name": "wheelBackRight 8"
    },
    {
      "mesh": 1,
      "rotation": [
        0.0,
        -1.0,
        0.0,
        4.32764935E-13
      ],
      "translation": [
        -0.0975000039,
        -0.06405423,
        -0.4675
      ],
      "name": "wheelFrontLeft 8"
    },
    {
      "mesh": 1,
      "translation": [
        0.19749999,
        -0.06405423,
        -0.4675
      ],
      "name": "wheelFrontRight 8"
    }
  ],
  "scene": 0,
  "scenes": [
    {
      "nodes": [
        0
      ],
      "name": "carSports"
    }
  ]
}