{
  "accessors": [
    {
      "bufferView": 0,
      "componentType": 5126,
      "count": 616,
      "type": "VEC3",
      "max": [
        0.05000000074505806,
        0.51499998569488525,
        1.2250000238418579
      ],
      "min": [
        -0.50499999523162842,
        0.0,
        0.0
      ]
    },
    {
      "bufferView": 1,
      "componentType": 5126,
      "count": 616,
      "type": "VEC3",
      "max": [
        1.0,
        1.0,
        1.0
      ],
      "min": [
        -1.0,
        -1.0,
        -1.0
      ]
    },
    {
      "bufferView": 2,
      "componentType": 5126,
      "count": 616,
      "type": "VEC4",
      "max": [
        1.0,
        0.0,
        1.0,
        1.0
      ],
      "min": [
        -1.0,
        0.0,
        -1.0,
        1.0
      ]
    },
    {
      "bufferView": 3,
      "componentType": 5126,
      "count": 616,
      "type": "VEC2",
      "max": [
        48.228347778320313,
        36.048587799072266
      ],
      "min": [
        -48.228347778320313,
        -47.228347778320313
      ]
    },
    {
      "bufferView": 4,
      "componentType": 5123,
      "count": 882,
      "type": "SCALAR",
      "max": [
        419.0
      ],
      "min": [
        0.0
      ]
    },
    {
      "bufferView": 5,
      "componentType": 5123,
      "count": 504,
      "type": "SCALAR",
      "max": [
        589.0
      ],
      "min": [
        4.0
      ]
    },
    {
      "bufferView": 6,
      "componentType": 5123,
      "count": 48,
      "type": "SCALAR",
      "max": [
        599.0
      ],
      "min": [
        442.0
      ]
    },
    {
      "bufferView": 7,
      "componentType": 5123,
      "count": 12,
      "type": "SCALAR",
      "max": [
        603.0
      ],
      "min": [
        436.0
      ]
    },
    {
      "bufferView": 8,
      "componentType": 5123,
      "count": 12,
      "type": "SCALAR",
      "max": [
        605.0
      ],
      "min": [
        460.0
      ]
    },
    {
      "bufferView": 9,
      "componentType": 5123,
      "count": 18,
      "type": "SCALAR",
      "max": [
        615.0
      ],
      "min": [
        606.0
      ]
    },
    {
      "bufferView": 10,
      "componentType": 5126,
      "count": 384,
      "type": "VEC3",
      "max": [
        0.10000000149011612,
        0.14000000059604645,
        0.14000000059604645
      ],
      "min": [
        -1.8047785270195561E-16,
        -0.14000000059604645,
        -0.14000000059604645
      ]
    },
    {
      "bufferView": 11,
      "componentType": 5126,
      "count": 384,
      "type": "VEC3",
      "max": [
        1.0,
        1.0,
        1.0
      ],
      "min": [
        -1.0,
        -1.0,
        -1.0
      ]
    },
    {
      "bufferView": 12,
      "componentType": 5126,
      "count": 384,
      "type": "VEC4",
      "max": [
        1.0,
        0.081901460886001587,
        1.0,
        1.0
      ],
      "min": [
        -1.0,
        -0.081901460886001587,
        -1.0,
        1.0
      ]
    },
    {
      "bufferView": 13,
      "componentType": 5126,
      "count": 384,
      "type": "VEC2",
      "max": [
        5.5118112564086914,
        6.5118112564086914
      ],
      "min": [
        -5.5118112564086914,
        -4.5118112564086914
      ]
    },
    {
      "bufferView": 14,
      "componentType": 5123,
      "count": 498,
      "type": "SCALAR",
      "max": [
        263.0
      ],
      "min": [
        0.0
      ]
    },
    {
      "bufferView": 15,
      "componentType": 5123,
      "count": 210,
      "type": "SCALAR",
      "max": [
        383.0
      ],
      "min": [
        264.0
      ]
    }
  ],
  "asset": {
    "version": "2.0"
  },
  "buffers": [
    {
      "uri": "carTruckFlat.bin",
      "byteLength": 52368
    }
  ],
  "bufferViews": [
    {
      "buffer": 0,
      "byteLength": 7392
    },
    {
      "buffer": 0,
      "byteOffset": 7392,
      "byteLength": 7392
    },
    {
      "buffer": 0,
      "byteOffset": 14784,
      "byteLength": 9856
    },
    {
      "buffer": 0,
      "byteOffset": 24640,
      "byteLength": 4928
    },
    {
      "buffer": 0,
      "byteOffset": 29568,
      "byteLength": 1764
    },
    {
      "buffer": 0,
      "byteOffset": 31332,
      "byteLength": 1008
    },
    {
      "buffer": 0,
      "byteOffset": 32340,
      "byteLength": 96
    },
    {
      "buffer": 0,
      "byteOffset": 32436,
      "byteLength": 24
    },
    {
      "buffer": 0,
      "byteOffset": 32460,
      "byteLength": 24
    },
    {
      "buffer": 0,
      "byteOffset": 32484,
      "byteLength": 36
    },
    {
      "buffer": 0,
      "byteOffset": 32520,
      "byteLength": 4608
    },
    {
      "buffer": 0,
      "byteOffset": 37128,
      "byteLength": 4608
    },
    {
      "buffer": 0,
      "byteOffset": 41736,
      "byteLength": 6144
    },
    {
      "buffer": 0,
      "byteOffset": 47880,
      "byteLength": 3072
    },
    {
      "buffer": 0,
      "byteOffset": 50952,
      "byteLength": 996
    },
    {
      "buffer": 0,
      "byteOffset": 51948,
      "byteLength": 420
    }
  ],
  "materials": [
    {
      "pbrMetallicRoughness": {
        "baseColorFactor": [
          0.3764706,
          0.3764706,
          0.3764706,
          1.0
        ],
        "metallicFactor": 0.0,
        "roughnessFactor": 0.5
      },
      "name": "plastic"
    },
    {
      "pbrMetallicRoughness": {
        "baseColorFactor": [
          0.9529412,
          0.9764706,
          0.9607843,
          1.0
        ],
        "metallicFactor": 0.0,
        "roughnessFactor": 0.5
      },
      "name": "paintWhite"
    },
    {
      "pbrMetallicRoughness": {
        "baseColorFactor": [
          0.298039228,
          0.3764706,
          0.466666669,
          1.0
        ],
        "metallicFactor": 0.5,
        "roughnessFactor": 0.5
      },
      "name": "glass"
    },
    {
      "pbrMetallicRoughness": {
        "baseColorFactor": [
          0.956862748,
          1.0,
          0.819607854,
          1.0
        ],
        "metallicFactor": 0.0,
        "roughnessFactor": 0.5
      },
      "name": "frontLight"
    },
    {
      "pbrMetallicRoughness": {
        "baseColorFactor": [
          1.0,
          0.349019617,
          0.227450982,
          1.0
        ],
        "metallicFactor": 0.0,
        "roughnessFactor": 0.5
      },
      "name": "backLight"
    },
    {
      "pbrMetallicRoughness": {
        "baseColorFactor": [
          0.827451,
          0.827451,
          0.827451,
          1.0
        ],
        "metallicFactor": 0.0,
        "roughnessFactor": 0.5
      },
      "name": "wheelCover"
    },
    {
      "pbrMetallicRoughness": {
        "baseColorFactor": [
          0.411764681,
          0.411764681,
          0.411764681,
          1.0
        ],
        "metallicFactor": 0.5
      },
      "name": "carTire"
    }
  ],
  "meshes": [
    {
      "primitives": [
        {
          "attributes": {
            "POSITION": 0,
            "NORMAL": 1,
            "TANGENT": 2,
            "TEXCOORD_0": 3
          },
          "indices": 4,
          "material": 0
        },
        {
          "attributes": {
            "POSITION": 0,
            "NORMAL": 1,
            "TANGENT": 2,
            "TEXCOORD_0": 3
          },
          "indices": 5,
          "material": 1
        },
        {
          "attributes": {
            "POSITION": 0,
            "NORMAL": 1,
            "TANGENT": 2,
            "TEXCOORD_0": 3
          },
          "indices": 6,
          "material": 2
        },
        {
          "attributes": {
            "POSITION": 0,
            "NORMAL": 1,
            "TANGENT": 2,
            "TEXCOORD_0": 3
          },
          "indices": 7,
          "material": 3
        },
        {
          "attributes": {
            "POSITION": 0,
            "NORMAL": 1,
            "TANGENT": 2,
            "TEXCOORD_0": 3
          },
          "indices": 8,
          "material": 4
        },
        {
          "attributes": {
            "POSITION": 0,
            "NORMAL": 1,
            "TANGENT": 2,
            "TEXCOORD_0": 3
          },
          "indices": 9,
          "material": 5
        }
      ],
      "name": "body 13"
    },
    {
      "primitives": [
        {
          "attributes": {
            "POSITION": 10,
            "NORMAL": 11,
            "TANGENT": 12,
            "TEXCOORD_0": 13
          },
          "indices": 14,
          "material": 6
        },
        {
          "attributes": {
            "POSITION": 10,
            "NORMAL": 11,
            "TANGENT": 12,
            "TEXCOORD_0": 13
          },
          "indices": 15,
          "material": 5
        }
      ],
      "name": "wheelBackLeft 13"
    }
  ],
  "nodes": [
    {
      "children": [
        1,
        2,
        3,
        4,
        5
      ],
      "translation": [
        -2.0614624,
        0.206594944,
        0.517072856
      ],
      "name": "carTruckFlat_8angles"
    },
    {
      "mesh": 0,
      "translation": [
        0.2775,
        -0.065,
        -0.735
      ],
      "name": "body 13"
    },
    {
      "mesh": 1,
      "rotation": [
        0.0,
        -1.0,
        0.0,
        4.32764935E-13
      ],
      "translation": [
        -0.0975000039,
        -0.06659495,
        0.143886715
      ],
      "name": "wheelBackLeft 13"
    },
    {
      "mesh": 1,
      "translation": [
        0.19749999,
        -0.0618926063,
        0.143886715
      ],
      "name": "wheelBackRight 13"
    },
    {
      "mesh": 1,
      "rotation": [
        0.0,
        -1.0,
        0.0,
        4.32764935E-13
      ],
      "translation": [
        -0.0975000039,
        -0.06405423,
        -0.4675
      ],
      "name": "wheelFrontLeft 13"
    },
    {
      "mesh": 1,
      "translation": [
        0.19749999,
        -0.06405423,
        -0.4675
      ],
      "name": "wheelFrontRight 13"
    }
  ],
  "scene": 0,
  "scenes": [
    {
      "nodes": [
        0
      ],
      "name": "carTruckFlat"
    }
  ]
}