{
  "accessors": [
    {
      "bufferView": 0,
      "componentType": 5126,
      "count": 576,
      "type": "VEC3",
      "max": [
        0.10190000385046005,
        0.14000000059604645,
        0.14000000059604645
      ],
      "min": [
        -1.1550583081144927E-13,
        -0.14000000059604645,
        -0.14000000059604645
      ]
    },
    {
      "bufferView": 1,
      "componentType": 5126,
      "count": 576,
      "type": "VEC3",
      "max": [
        1.0,
        1.0,
        1.0
      ],
      "min": [
        -1.0,
        -1.0,
        -1.0
      ]
    },
    {
      "bufferView": 2,
      "componentType": 5126,
      "count": 576,
      "type": "VEC4",
      "max": [
        1.0,
        0.10749004781246185,
        1.0,
        1.0
      ],
      "min": [
        -1.0,
        -0.10749004781246185,
        -1.0,
        1.0
      ]
    },
    {
      "bufferView": 3,
      "componentType": 5126,
      "count": 576,
      "type": "VEC2",
      "max": [
        5.5118112564086914,
        6.5118112564086914
      ],
      "min": [
        -5.5118112564086914,
        -4.5118112564086914
      ]
    },
    {
      "bufferView": 4,
      "componentType": 5123,
      "count": 786,
      "type": "SCALAR",
      "max": [
        455.0
      ],
      "min": [
        0.0
      ]
    },
    {
      "bufferView": 5,
      "componentType": 5123,
      "count": 210,
      "type": "SCALAR",
      "max": [
        575.0
      ],
      "min": [
        456.0
      ]
    }
  ],
  "asset": {
    "version": "2.0"
  },
  "buffers": [
    {
      "uri": "wheelBlack.bin",
      "byteLength": 29640
    }
  ],
  "bufferViews": [
    {
      "buffer": 0,
      "byteLength": 6912
    },
    {
      "buffer": 0,
      "byteOffset": 6912,
      "byteLength": 6912
    },
    {
      "buffer": 0,
      "byteOffset": 13824,
      "byteLength": 9216
    },
    {
      "buffer": 0,
      "byteOffset": 23040,
      "byteLength": 4608
    },
    {
      "buffer": 0,
      "byteOffset": 27648,
      "byteLength": 1572
    },
    {
      "buffer": 0,
      "byteOffset": 29220,
      "byteLength": 420
    }
  ],
  "materials": [
    {
      "pbrMetallicRoughness": {
        "baseColorFactor": [
          0.411764681,
          0.411764681,
          0.411764681,
          1.0
        ],
        "metallicFactor": 0.5
      },
      "name": "carTire"
    },
    {
      "pbrMetallicRoughness": {
        "baseColorFactor": [
          0.827451,
          0.827451,
          0.827451,
          1.0
        ],
        "metallicFactor": 0.0,
        "roughnessFactor": 0.5
      },
      "name": "wheelCover"
    }
  ],
  "meshes": [
    {
      "primitives": [
        {
          "attributes": {
            "POSITION": 0,
            "NORMAL": 1,
            "TANGENT": 2,
            "TEXCOORD_0": 3
          },
          "indices": 4,
          "material": 0
        },
        {
          "attributes": {
            "POSITION": 0,
            "NORMAL": 1,
            "TANGENT": 2,
            "TEXCOORD_0": 3
          },
          "indices": 5,
          "material": 1
        }
      ],
      "name": "wheelBlack_8angles"
    }
  ],
  "nodes": [
    {
      "mesh": 0,
      "translation": [
        -4.83550739,
        0.14,
        1.05608034
      ],
      "name": "wheelBlack_8angles"
    }
  ],
  "scene": 0,
  "scenes": [
    {
      "nodes": [
        0
      ],
      "name": "wheelBlack"
    }
  ]
}