{
  "accessors": [
    {
      "bufferView": 0,
      "componentType": 5126,
      "count": 576,
      "type": "VEC3",
      "max": [
        0.18819999694824219,
        0.14000000059604645,
        0.14000000059604645
      ],
      "min": [
        -1.1550583081144927E-13,
        -0.14000000059604645,
        -0.14000000059604645
      ]
    },
    {
      "bufferView": 1,
      "componentType": 5126,
      "count": 576,
      "type": "VEC3",
      "max": [
        1.0,
        1.0,
        1.0
      ],
      "min": [
        -1.0,
        -1.0,
        -1.0
      ]
    },
    {
      "bufferView": 2,
      "componentType": 5126,
      "count": 576,
      "type": "VEC4",
      "max": [
        1.0,
        0.1113298311829567,
        1.0,
        1.0
      ],
      "min": [
        -1.0,
        -0.1113298311829567,
        -1.0,
        1.0
      ]
    },
    {
      "bufferView": 3,
      "componentType": 5126,
      "count": 576,
      "type": "VEC2",
      "max": [
        7.3382749557495117,
        8.2876014709472656
      ],
      "min": [
        -7.3382749557495117,
        -6.2876009941101074
      ]
    },
    {
      "bufferView": 4,
      "componentType": 5123,
      "count": 498,
      "type": "SCALAR",
      "max": [
        311.0
      ],
      "min": [
        0.0
      ]
    },
    {
      "bufferView": 5,
      "componentType": 5123,
      "count": 498,
      "type": "SCALAR",
      "max": [
        575.0
      ],
      "min": [
        312.0
      ]
    }
  ],
  "asset": {
    "version": "2.0"
  },
  "buffers": [
    {
      "uri": "wheelWide.bin",
      "byteLength": 29640
    }
  ],
  "bufferViews": [
    {
      "buffer": 0,
      "byteLength": 6912
    },
    {
      "buffer": 0,
      "byteOffset": 6912,
      "byteLength": 6912
    },
    {
      "buffer": 0,
      "byteOffset": 13824,
      "byteLength": 9216
    },
    {
      "buffer": 0,
      "byteOffset": 23040,
      "byteLength": 4608
    },
    {
      "buffer": 0,
      "byteOffset": 27648,
      "byteLength": 996
    },
    {
      "buffer": 0,
      "byteOffset": 28644,
      "byteLength": 996
    }
  ],
  "materials": [
    {
      "pbrMetallicRoughness": {
        "baseColorFactor": [
          0.411764681,
          0.411764681,
          0.411764681,
          1.0
        ],
        "metallicFactor": 0.5
      },
      "name": "carTire"
    },
    {
      "pbrMetallicRoughness": {
        "baseColorFactor": [
          0.827451,
          0.827451,
          0.827451,
          1.0
        ],
        "metallicFactor": 0.0,
        "roughnessFactor": 0.5
      },
      "name": "wheelCover"
    }
  ],
  "meshes": [
    {
      "primitives": [
        {
          "attributes": {
            "POSITION": 0,
            "NORMAL": 1,
            "TANGENT": 2,
            "TEXCOORD_0": 3
          },
          "indices": 4,
          "material": 0
        },
        {
          "attributes": {
            "POSITION": 0,
            "NORMAL": 1,
            "TANGENT": 2,
            "TEXCOORD_0": 3
          },
          "indices": 5,
          "material": 1
        }
      ],
      "name": "wheelWide_8angles"
    }
  ],
  "nodes": [
    {
      "mesh": 0,
      "translation": [
        -4.83550739,
        0.14,
        0.136080354
      ],
      "name": "wheelWide_8angles"
    }
  ],
  "scene": 0,
  "scenes": [
    {
      "nodes": [
        0
      ],
      "name": "wheelWide"
    }
  ]
}