# Exported using Kenney Suite 1.2 

mtllib wheelNormal.mtl 

g wheelNormal

v 1.6 1.92567 0.5159816 
v 1.28 2.163674 0.5797547 
v 1.6 1.9936 -1.315684E-12 
v 1.28 2.24 -1.052186E-12 
v 1.28 -7.219114E-16 2.24 
v 1.848093E-12 -7.219114E-16 2.24 
v 1.28 0.5797547 2.163674 
v 1.77879E-12 0.5797547 2.163674 
v 1.6 0.5159816 -1.92567 
v 1.6 0.9968 -1.726508 
v 1.28 0.5797547 -2.163674 
v 1.28 1.12 -1.939897 
v 0 2.24 0 
v 1.28 2.163674 -0.5797547 
v -4.735739E-13 2.163674 -0.5797547 
v 1.28 1.583919 1.583919 
v 1.305216E-12 1.583919 1.583919 
v 1.28 1.939897 1.12 
v 9.240466E-13 1.939897 1.12 
v 1.28 -2.24 -1.052186E-12 
v 1.28 -2.163674 -0.5797547 
v 0 -2.24 0 
v -4.735739E-13 -2.163674 -0.5797547 
v 1.28 -1.583919 1.583919 
v 1.305216E-12 -1.583919 1.583919 
v 1.28 -1.12 1.939897 
v 1.59398E-12 -1.12 1.939897 
v 1.28 -1.939897 1.12 
v 1.28 -2.163674 0.5797547 
v 9.240466E-13 -1.939897 1.12 
v 4.735739E-13 -2.163674 0.5797547 
v -1.77879E-12 -0.5797547 -2.163674 
v 1.28 -0.5797547 -2.163674 
v -1.848093E-12 0 -2.24 
v 1.28 0 -2.24 
v 1.28 1.12 1.939897 
v 1.59398E-12 1.12 1.939897 
v -1.305216E-12 -1.583919 -1.583919 
v 1.28 -1.583919 -1.583919 
v -1.59398E-12 -1.12 -1.939897 
v 1.28 -1.12 -1.939897 
v -1.77879E-12 0.5797547 -2.163674 
v -1.59398E-12 1.12 -1.939897 
v -1.305216E-12 1.583919 -1.583919 
v 1.28 1.583919 -1.583919 
v 1.28 -0.5797547 2.163674 
v 1.77879E-12 -0.5797547 2.163674 
v 1.6 -3.609557E-16 -1.9936 
v 1.6 -0.5159816 -1.92567 
v 1.6 -0.9968 -1.726508 
v 1.6 1.409688 -1.409688 
v 1.6 -1.409688 -1.409688 
v 1.6 1.726508 -0.9968 
v 1.6 -1.804779E-15 -1.135316 
v 1.6 0.2938414 -1.096631 
v 1.6 0.5676579 -0.9832124 
v 1.6 1.92567 -0.5159816 
v 1.6 0.8027896 -0.8027896 
v 1.6 0.9832124 -0.5676579 
v 1.6 1.096631 -0.2938414 
v 1.6 1.135316 -1.315684E-12 
v 1.6 1.096631 0.2938414 
v 1.6 0.9832124 0.5676579 
v 1.6 1.726508 0.9968 
v 1.6 0.8027896 0.8027896 
v 1.6 0.5676579 0.9832124 
v 1.6 0.2938414 1.096631 
v 1.6 1.409688 1.409688 
v 1.6 0 1.135316 
v 1.6 -1.409688 1.409688 
v 1.6 -0.2938414 1.096631 
v 1.6 -1.726508 0.9968 
v 1.6 -0.5676579 0.9832124 
v 1.6 -0.8027896 0.8027896 
v 1.6 -0.9832124 0.5676579 
v 1.6 -1.92567 0.5159816 
v 1.6 -1.096631 0.2938414 
v 1.6 -1.9936 -1.315684E-12 
v 1.6 -1.135316 -1.315684E-12 
v 1.6 -1.096631 -0.2938414 
v 1.6 -1.92567 -0.5159816 
v 1.6 -0.9832124 -0.5676579 
v 1.6 -0.8027896 -0.8027896 
v 1.6 -0.5676579 -0.9832124 
v 1.6 -1.726508 -0.9968 
v 1.6 -0.2938414 -1.096631 
v 1.6 0.9968 1.726508 
v 1.6 -0.9968 1.726508 
v 1.6 0.5159816 1.92567 
v 1.6 -0.5159816 1.92567 
v 1.6 -7.219114E-16 1.9936 
v 1.28 1.939897 -1.12 
v 1.28 -1.939897 -1.12 
v -9.240466E-13 -1.939897 -1.12 
v -9.240466E-13 1.939897 -1.12 
v 4.735739E-13 2.163674 0.5797547 
v 1.28 -0.2077772 -0.7754352 
v 1.28 -0.4013948 -0.6952362 
v 1.28 0.2077772 -0.7754352 
v 1.28 0.4013948 -0.6952362 
v 1.28 -1.443823E-15 -0.8027896 
v 1.28 -0.5676579 0.5676579 
v 1.28 -0.4013948 0.6952362 
v 1.28 0.6952362 -0.4013948 
v 1.28 0.7754352 -0.2077772 
v 1.28 -0.2077772 0.7754352 
v 1.28 0 0.8027896 
v 1.28 0.6952362 0.4013948 
v 1.28 0.5676579 0.5676579 
v 1.28 0.4013948 0.6952362 
v 1.28 -0.6952362 -0.4013948 
v 1.28 -0.7754352 -0.2077772 
v 1.28 0.2077772 0.7754352 
v 1.28 -0.8027896 -1.052186E-12 
v 1.28 -0.7754352 0.2077772 
v 1.28 -0.6952362 0.4013948 
v 1.28 -0.5676579 -0.5676579 
v 1.28 0.8027896 -1.052186E-12 
v 1.28 0.7754352 0.2077772 
v 1.28 0.5676579 -0.5676579 

vn 0.6100936 0.7653314 0.2050699
vn 0.6100936 0.7923294 0
vn 0 0 1
vn 0 0.258819 0.9659258
vn 0.6100936 0.2050699 -0.7653314
vn 0.6100936 0.3961647 -0.6861774
vn 0 1 0
vn 0 0.9659258 -0.258819
vn 0 0.7071068 0.7071068
vn 0 0.8660254 0.5
vn 0 -1 0
vn 0 -0.9659258 -0.258819
vn 0 -0.7071068 0.7071068
vn 0 -0.5 0.8660254
vn 0 -0.8660254 0.5
vn 0 -0.9659258 0.258819
vn 0 -0.258819 -0.9659258
vn 0 0 -1
vn 0 0.5 0.8660254
vn 0 -0.7071068 -0.7071068
vn 0 -0.5 -0.8660254
vn 0 0.258819 -0.9659258
vn 0 0.5 -0.8660254
vn 0 0.7071068 -0.7071068
vn 0 -0.258819 0.9659258
vn 1 0 0
vn 0.6100936 -0.2050699 0.7653314
vn 0.6100936 0 0.7923294
vn 0.6100936 0.6861774 -0.3961647
vn 0.6100937 0.5602615 -0.5602615
vn 0.6100936 0.6861774 0.3961647
vn 0 -0.8660254 -0.5
vn 0 0.8660254 -0.5
vn 0.6100936 -0.7653314 -0.2050699
vn 0.6100936 -0.6861774 -0.3961647
vn 0.6100937 -0.5602615 -0.5602615
vn 0.6100936 -0.3961647 -0.6861774
vn 0.6100936 -0.7923294 0
vn 0.6100936 -0.6861774 0.3961647
vn 0.6100936 -0.7653314 0.2050699
vn 0 0.9659258 0.258819
vn 0.6100936 0.2050699 0.7653314
vn 0.6100936 -0.3961647 0.6861774
vn 0.6100937 -0.5602615 0.5602615
vn 0.6100936 0.3961647 0.6861774
vn 0.6100937 0.5602615 0.5602615
vn 0.6100936 -0.2050699 -0.7653314
vn -1 0 0
vn 0.6100936 0 -0.7923294
vn 0.6100936 0.7653314 -0.2050699
vn 0.7205481 0.1794664 0.6697778
vn 0.7205481 0.3467025 0.6005063
vn 0.7205481 -0.1794664 0.6697778
vn 0.7205481 -0.3467025 0.6005063
vn 0.7205481 0 0.693405
vn 0.7205481 0.4903114 -0.4903114
vn 0.7205481 0.3467025 -0.6005063
vn 0.7205481 -0.6005063 0.3467025
vn 0.7205481 -0.6697778 0.1794664
vn 0.7205481 0.1794664 -0.6697778
vn 0.7205481 0 -0.693405
vn 0.7205481 -0.6005063 -0.3467025
vn 0.7205481 -0.4903114 -0.4903114
vn 0.7205481 -0.3467025 -0.6005063
vn 0.7205481 0.6005063 0.3467025
vn 0.7205481 0.6697778 0.1794664
vn 0.7205481 -0.1794664 -0.6697778
vn 0.7205481 0.693405 0
vn 0.7205481 0.6697778 -0.1794664
vn 0.7205481 0.6005063 -0.3467025
vn 0.7205481 0.4903114 0.4903114
vn 0.7205481 -0.693405 0
vn 0.7205481 -0.6697778 -0.1794664
vn 0.7205481 -0.4903114 0.4903114

vt -0.5879688 -0.3098513
vt -0.8753481 0.6414704
vt 0.6635104 -0.03832853
vt 0.5308083 0.9465522
vt 3.149606 -0.7194357
vt 3.81934E-14 -0.7194357
vt 3.149606 0.7194357
vt 2.131313E-14 0.7194357
vt -0.01668541 -0.6644071
vt -0.3288477 0.5775589
vt 0.9633477 -0.4996798
vt 0.6126035 0.8957877
vt -3.149606 0.7194357
vt -1.009742E-28 0.7194357
vt -3.149606 -0.7194357
vt -8.238652E-15 -0.7194357
vt 3.310428E-15 -0.7194357
vt 5.095848E-15 0.7194357
vt 1.009742E-28 -0.7194357
vt -8.238652E-15 0.7194357
vt 3.260942E-15 -0.7194357
vt -7.26602E-15 0.7194357
vt 1.913809E-14 0.7194357
vt -1.776058E-15 -0.7194357
vt 2.796858E-16 -0.7194357
vt 1.641797E-14 0.7194357
vt 1.832025E-14 -0.7194357
vt 1.436142E-14 0.7194357
vt 9.89105E-15 -0.7194357
vt 8.541707E-16 0.7194357
vt 1.641797E-14 -0.7194357
vt 2.796858E-16 0.7194357
vt -9.854595E-16 0.7194357
vt 0 -0.7194357
vt 8.541707E-16 -0.7194357
vt 9.89105E-15 0.7194357
vt -2.699556E-15 -0.7194357
vt 1.333363E-14 0.7194357
vt 4.905512 -8.881784E-16
vt 4.73836 -1.26964
vt 4.73836 1.26964
vt 4.248298 2.452756
vt 4.248298 -2.452756
vt 3.468721 3.468721
vt 3.468721 -3.468721
vt 2.452756 4.248298
vt 2.793592 -4.440892E-15
vt 2.698403 0.7230349
vt 2.419322 1.396796
vt 1.26964 4.73836
vt 1.975368 1.975368
vt 1.396796 2.419322
vt 0.7230349 2.698403
vt -3.346943E-15 4.905512
vt -3.346943E-15 2.793592
vt -1.26964 4.73836
vt -0.7230349 2.698403
vt -1.396796 2.419322
vt -2.452756 4.248298
vt -1.975368 1.975368
vt -2.419322 1.396796
vt -2.698403 0.7230349
vt -3.468721 3.468721
vt -2.793592 -3.647395E-28
vt -3.468721 -3.468721
vt -2.698403 -0.7230349
vt -2.452756 -4.248298
vt -2.419322 -1.396796
vt -1.975368 -1.975368
vt -1.396796 -2.419322
vt -1.26964 -4.73836
vt -0.7230349 -2.698403
vt -3.346943E-15 -4.905512
vt -3.346943E-15 -2.793592
vt 0.7230349 -2.698403
vt 1.26964 -4.73836
vt 1.396796 -2.419322
vt 1.975368 -1.975368
vt 2.419322 -1.396796
vt 2.452756 -4.248298
vt 2.698403 -0.7230349
vt -4.248298 2.452756
vt -4.248298 -2.452756
vt -4.73836 1.26964
vt -4.73836 -1.26964
vt -4.905512 -1.776357E-15
vt 3.367274E-15 0.7194357
vt 5.136044E-15 -0.7194357
vt -7.141054E-15 -0.7194357
vt -5.662649E-15 0.7194357
vt -0.7526132 -0.7818516
vt -0.8671951 0.6524502
vt 0.2285634 -0.6240785
vt 0.1265855 0.6524502
vt -0.5368958 0.3917373
vt 0.1910394 1.06828
vt 0.2574376 -0.6127325
vt 1.083549 -0.06033745
vt -7.26602E-15 -0.7194357
vt 3.260942E-15 0.7194357
vt -0.4284013 -0.5081216
vt -1.052265 0.2654378
vt 0.6292678 0.2138626
vt 0.1361273 1.076656
vt 9.753199E-15 -0.7194357
vt 9.896917E-15 0.7194357
vt -7.412035E-15 0.7194357
vt 8.250224E-15 -0.7194357
vt -0.6292678 -0.2138626
vt 0.4284013 0.5081216
vt -0.1361273 -1.076656
vt 1.052265 -0.2654378
vt 0.4328807 -0.9951547
vt -0.4317639 -0.5052674
vt 1.040232 0.3092515
vt 0.1087785 0.6556542
vt -7.392762E-15 -0.7194357
vt 8.287455E-15 0.7194357
vt -0.6635104 0.03832853
vt 0.5879688 0.3098513
vt -0.5308083 -0.9465522
vt 0.8753481 -0.6414704
vt 9.793395E-15 0.7194357
vt 9.953762E-15 -0.7194357
vt -0.4284013 0.5081216
vt 0.6292678 -0.2138626
vt -1.052265 -0.2654378
vt 0.1361273 -1.076656
vt 6.677367E-15 -0.7194357
vt -8.226205E-15 0.7194357
vt 0.1265855 -0.6524502
vt -0.8671951 -0.6524502
vt 0.2285634 0.6240785
vt -0.7526132 0.7818516
vt 9.257145E-16 -0.7194357
vt 3.334662E-15 0.7194357
vt -0.6126035 -0.8957877
vt -0.9633477 0.4996798
vt 0.3288477 -0.5775589
vt 0.01668541 0.6644071
vt 3.2853E-15 -0.7194357
vt 8.81458E-16 0.7194357
vt -0.4328807 -0.9951547
vt -1.040232 0.3092515
vt 0.4317639 -0.5052674
vt -0.1087785 0.6556542
vt -0.1087785 -0.6556542
vt -1.040232 -0.3092515
vt 0.4317639 0.5052674
vt -0.4328807 0.9951547
vt 0.6126035 -0.8957877
vt -0.3288477 -0.5775589
vt 0.9633477 0.4996798
vt -0.01668541 0.6644071
vt -0.2574376 0.6127325
vt 0.5368958 -0.3917373
vt -1.083549 0.06033745
vt -0.1910394 -1.06828
vt -0.5368958 -0.3917373
vt 0.2574376 0.6127325
vt 0.1910394 -1.06828
vt 1.083549 0.06033745
vt -7.373357E-15 -0.7194357
vt 0 0.7194357
vt -0.5879688 0.3098513
vt 0.6635104 0.03832853
vt -0.8753481 -0.6414704
vt 0.5308083 -0.9465522
vt -5.511811 5.602391E-42
vt -5.324001 1.426562
vt -5.324001 -1.426562
vt -4.773368 -2.755906
vt -4.773368 2.755906
vt -3.897439 -3.897439
vt -3.897439 3.897439
vt -2.755906 -4.773368
vt -2.755906 4.773368
vt -1.426562 -5.324001
vt -1.426562 5.324001
vt 0 -5.511811
vt 0 5.511811
vt 1.426562 -5.324001
vt 1.426562 5.324001
vt 2.755906 -4.773368
vt 2.755906 4.773368
vt 3.897439 -3.897439
vt 3.897439 3.897439
vt 4.773368 -2.755906
vt 4.773368 2.755906
vt 5.324001 -1.426562
vt 5.324001 1.426562
vt 5.511811 -1.776357E-15
vt -0.2574376 -0.6127325
vt -1.083549 -0.06033745
vt 0.5368958 0.3917373
vt -0.1910394 1.06828
vt 0.7526132 -0.7818516
vt -0.2285634 -0.6240785
vt 0.8671951 0.6524502
vt -0.1265855 0.6524502
vt -0.6635104 -0.03832853
vt -0.5308083 0.9465522
vt 0.5879688 -0.3098513
vt 0.8753481 0.6414704
vt 0.01668541 -0.6644071
vt -0.9633477 -0.4996798
vt 0.3288477 0.5775589
vt -0.6126035 0.8957877
vt -0.1265855 -0.6524502
vt -0.2285634 0.6240785
vt 0.8671951 -0.6524502
vt 0.7526132 0.7818516
vt -0.6292678 0.2138626
vt -0.1361273 1.076656
vt 0.4284013 -0.5081216
vt 1.052265 0.2654378
vt 0.1087785 -0.6556542
vt -0.4317639 0.5052674
vt 1.040232 -0.3092515
vt 0.4328807 0.9951547
vt 4.637402 -0.9979486
vt 4.429627 -1.696998
vt 3.523303 -0.7782282
vt 3.376384 -1.272531
vt 4.637402 0.9979486
vt 3.523303 0.7782282
vt 4.429627 1.696998
vt 3.376384 1.272531
vt 4.742858 -0.08179333
vt 4.67427 -0.8078347
vt 3.6073 -0.08179333
vt 3.558801 -0.5951821
vt 4.742858 0.08179333
vt 3.6073 0.08179333
vt 4.67427 0.8078347
vt 3.558801 0.5951821
vt -3.028334 -1.961758
vt -3.967152 -2.600596
vt -3.277058 -1.510032
vt -4.3189 -1.961758
vt 2.680253 3.913776
vt 2.022569 2.988063
vt 2.048655 4.278365
vt 1.575962 3.245866
vt -3.558801 -0.5951821
vt -4.67427 -0.8078347
vt -3.6073 -0.08179333
vt -4.742858 -0.08179333
vt -3.376384 -1.272531
vt -4.429627 -1.696998
vt -3.523303 -0.7782282
vt -4.637402 -0.9979486
vt -2.45258 2.646537
vt -2.804799 2.269891
vt -3.205361 3.496721
vt -3.703474 2.964064
vt -3.028334 1.961758
vt -3.277058 1.510032
vt -3.967152 2.600596
vt -4.3189 1.961758
vt 2.680253 -3.913776
vt 2.048655 -4.278365
vt 2.022569 -2.988063
vt 1.575962 -3.245866
vt -3.558801 0.5951821
vt -3.6073 0.08179333
vt -4.67427 0.8078347
vt -4.742858 0.08179333
vt -0.4948363 -4.717683
vt -1.212137 -4.586079
vt -0.395869 -3.586446
vt -0.9030775 -3.493387
vt 1.212137 -4.586079
vt 0.4948363 -4.717683
vt 0.9030775 -3.493387
vt 0.395869 -3.586446
vt -1.575962 -3.245866
vt -2.048655 -4.278365
vt -2.022569 -2.988063
vt -2.680253 -3.913776
vt 3.703474 -2.964064
vt 3.205361 -3.496721
vt 2.804799 -2.269891
vt 2.45258 -2.646537
vt -3.376384 1.272531
vt -3.523303 0.7782282
vt -4.429627 1.696998
vt -4.637402 0.9979486
vt 1.212137 4.586079
vt 0.9030775 3.493387
vt 0.4948363 4.717683
vt 0.395869 3.586446
vt -0.4948363 4.717683
vt -0.395869 3.586446
vt -1.212137 4.586079
vt -0.9030775 3.493387
vt 1.975368 -3.552714E-15
vt 1.908059 -0.5112628
vt 1.908059 0.5112628
vt 1.710719 0.987684
vt 1.710719 -0.987684
vt 1.396796 1.396796
vt 1.396796 -1.396796
vt 0.987684 1.710719
vt 0.987684 -1.710719
vt 0.5112628 1.908059
vt 0.5112628 -1.908059
vt -6.085084E-15 1.975368
vt -6.085084E-15 -1.975368
vt -0.5112628 1.908059
vt -0.5112628 -1.908059
vt -0.987684 1.710719
vt -0.987684 -1.710719
vt -1.396796 -1.396796
vt -1.396796 1.396796
vt -1.710719 0.987684
vt -1.710719 -0.987684
vt -1.908059 0.5112628
vt -1.908059 -0.5112628
vt -1.975368 3.290902E-28
vt 4.3189 1.961758
vt 3.277058 1.510032
vt 3.967152 2.600596
vt 3.028334 1.961758
vt -2.45258 -2.646537
vt -3.205361 -3.496721
vt -2.804799 -2.269891
vt -3.703474 -2.964064
vt -1.575962 3.245866
vt -2.022569 2.988063
vt -2.048655 4.278365
vt -2.680253 3.913776
vt 4.3189 -1.961758
vt 3.967152 -2.600596
vt 3.277058 -1.510032
vt 3.028334 -1.961758
vt 3.703474 2.964064
vt 2.804799 2.269891
vt 3.205361 3.496721
vt 2.45258 2.646537

usemtl carTire
usemap carTire

f 2/2/1 1/1/1 3/3/2
f 3/3/2 4/4/2 2/2/1
f 6/6/3 5/5/3 7/7/4
f 7/7/4 8/8/4 6/6/3
f 10/10/6 9/9/5 11/11/5
f 11/11/5 12/12/6 10/10/6
f 13/14/7 4/13/7 14/15/8
f 14/15/8 15/16/8 13/14/7
f 17/17/9 16/5/9 18/7/10
f 18/7/10 19/18/10 17/17/9
f 21/13/12 20/15/11 22/19/11
f 22/19/11 23/20/12 21/13/12
f 25/21/13 24/5/13 26/7/14
f 26/7/14 27/22/14 25/21/13
f 29/5/16 28/7/15 30/23/15
f 30/23/15 31/24/16 29/5/16
f 33/15/17 32/25/17 34/26/18
f 34/26/18 35/13/18 33/15/17
f 8/27/4 7/5/4 36/7/19
f 36/7/19 37/28/19 8/27/4
f 39/15/20 38/29/20 40/30/21
f 40/30/21 41/13/21 39/15/20
f 35/15/18 34/31/18 42/32/22
f 42/32/22 11/13/22 35/15/18
f 20/5/11 29/7/16 31/33/16
f 31/33/16 22/34/11 20/5/11
f 12/15/23 43/35/23 44/36/24
f 44/36/24 45/13/24 12/15/23
f 47/37/25 46/5/25 5/7/3
f 5/7/3 6/38/3 47/37/25
f 49/40/26 48/39/26 9/41/26
f 9/41/26 10/42/26 49/40/26
f 10/42/26 50/43/26 49/40/26
f 10/42/26 51/44/26 50/43/26
f 51/44/26 52/45/26 50/43/26
f 51/44/26 53/46/26 52/45/26
f 53/46/26 54/47/26 52/45/26
f 53/46/26 55/48/26 54/47/26
f 53/46/26 56/49/26 55/48/26
f 53/46/26 57/50/26 56/49/26
f 57/50/26 58/51/26 56/49/26
f 57/50/26 59/52/26 58/51/26
f 57/50/26 60/53/26 59/52/26
f 57/50/26 3/54/26 60/53/26
f 3/54/26 61/55/26 60/53/26
f 3/54/26 1/56/26 61/55/26
f 1/56/26 62/57/26 61/55/26
f 1/56/26 63/58/26 62/57/26
f 1/56/26 64/59/26 63/58/26
f 64/59/26 65/60/26 63/58/26
f 64/59/26 66/61/26 65/60/26
f 64/59/26 67/62/26 66/61/26
f 64/59/26 68/63/26 67/62/26
f 68/63/26 69/64/26 67/62/26
f 69/64/26 68/63/26 70/65/26
f 71/66/26 69/64/26 70/65/26
f 71/66/26 70/65/26 72/67/26
f 73/68/26 71/66/26 72/67/26
f 74/69/26 73/68/26 72/67/26
f 75/70/26 74/69/26 72/67/26
f 75/70/26 72/67/26 76/71/26
f 77/72/26 75/70/26 76/71/26
f 77/72/26 76/71/26 78/73/26
f 79/74/26 77/72/26 78/73/26
f 80/75/26 79/74/26 78/73/26
f 80/75/26 78/73/26 81/76/26
f 82/77/26 80/75/26 81/76/26
f 83/78/26 82/77/26 81/76/26
f 84/79/26 83/78/26 81/76/26
f 84/79/26 81/76/26 85/80/26
f 86/81/26 84/79/26 85/80/26
f 54/47/26 86/81/26 85/80/26
f 85/80/26 52/45/26 54/47/26
f 68/63/26 87/82/26 70/65/26
f 87/82/26 88/83/26 70/65/26
f 87/82/26 89/84/26 88/83/26
f 89/84/26 90/85/26 88/83/26
f 89/84/26 91/86/26 90/85/26
f 28/5/15 24/7/13 25/87/13
f 25/87/13 30/88/15 28/5/15
f 27/89/14 26/5/14 46/7/25
f 46/7/25 47/90/25 27/89/14
f 5/92/28 46/91/27 90/93/27
f 90/93/27 91/94/28 5/92/28
f 92/96/29 53/95/29 51/97/30
f 51/97/30 45/98/30 92/96/29
f 37/99/19 36/5/19 16/7/9
f 16/7/9 17/100/9 37/99/19
f 18/102/31 64/101/31 1/103/1
f 1/103/1 2/104/1 18/102/31
f 39/13/20 93/15/32 94/105/32
f 94/105/32 38/106/20 39/13/20
f 15/107/8 14/13/8 92/15/33
f 92/15/33 95/108/33 15/107/8
f 85/110/35 81/109/34 21/111/34
f 21/111/34 93/112/35 85/110/35
f 52/114/36 39/113/36 41/115/37
f 41/115/37 50/116/37 52/114/36
f 93/13/32 21/15/12 23/117/12
f 23/117/12 94/118/32 93/13/32
f 81/120/34 78/119/38 20/121/38
f 20/121/38 21/122/34 81/120/34
f 95/123/33 92/13/33 45/15/24
f 45/15/24 44/124/24 95/123/33
f 76/126/40 72/125/39 28/127/39
f 28/127/39 29/128/40 76/126/40
f 19/129/10 18/5/10 2/7/41
f 2/7/41 96/130/41 19/129/10
f 5/132/28 91/131/28 89/133/42
f 89/133/42 7/134/42 5/132/28
f 41/15/21 40/135/21 32/136/17
f 32/136/17 33/13/17 41/15/21
f 46/138/27 26/137/43 88/139/43
f 88/139/43 90/140/27 46/138/27
f 11/15/22 42/141/22 43/142/23
f 43/142/23 12/13/23 11/15/22
f 26/144/43 24/143/44 70/145/44
f 70/145/44 88/146/43 26/144/43
f 36/148/45 87/147/45 68/149/46
f 68/149/46 16/150/46 36/148/45
f 50/152/37 41/151/37 33/153/47
f 33/153/47 49/154/47 50/152/37
f 72/156/39 70/155/44 24/157/44
f 24/157/44 28/158/39 72/156/39
f 52/160/36 85/159/35 93/161/35
f 93/161/35 39/162/36 52/160/36
f 96/163/41 2/5/41 4/7/7
f 4/7/7 13/164/7 96/163/41
f 78/166/38 76/165/40 29/167/40
f 29/167/40 20/168/38 78/166/38
f 42/170/48 34/169/48 32/171/48
f 32/171/48 40/172/48 42/170/48
f 40/172/48 43/173/48 42/170/48
f 40/172/48 38/174/48 43/173/48
f 38/174/48 44/175/48 43/173/48
f 38/174/48 94/176/48 44/175/48
f 94/176/48 95/177/48 44/175/48
f 94/176/48 23/178/48 95/177/48
f 23/178/48 15/179/48 95/177/48
f 23/178/48 22/180/48 15/179/48
f 22/180/48 13/181/48 15/179/48
f 22/180/48 31/182/48 13/181/48
f 31/182/48 96/183/48 13/181/48
f 31/182/48 30/184/48 96/183/48
f 30/184/48 19/185/48 96/183/48
f 30/184/48 25/186/48 19/185/48
f 25/186/48 17/187/48 19/185/48
f 25/186/48 27/188/48 17/187/48
f 27/188/48 37/189/48 17/187/48
f 27/188/48 47/190/48 37/189/48
f 47/190/48 8/191/48 37/189/48
f 47/190/48 6/192/48 8/191/48
f 16/194/46 68/193/46 64/195/31
f 64/195/31 18/196/31 16/194/46
f 49/198/47 33/197/47 35/199/49
f 35/199/49 48/200/49 49/198/47
f 4/202/2 3/201/2 57/203/50
f 57/203/50 14/204/50 4/202/2
f 7/206/42 89/205/42 87/207/45
f 87/207/45 36/208/45 7/206/42
f 9/210/5 48/209/49 35/211/49
f 35/211/49 11/212/5 9/210/5
f 14/214/50 57/213/50 53/215/29
f 53/215/29 92/216/29 14/214/50
f 51/218/30 10/217/6 12/219/6
f 12/219/6 45/220/30 51/218/30

usemtl wheelCover
usemap wheelCover

f 84/222/52 86/221/51 97/223/51
f 97/223/51 98/224/52 84/222/52
f 99/226/53 55/225/53 56/227/54
f 56/227/54 100/228/54 99/226/53
f 86/230/51 54/229/55 101/231/55
f 101/231/55 97/232/51 86/230/51
f 101/234/55 54/233/55 55/235/53
f 55/235/53 99/236/53 101/234/55
f 74/238/56 102/237/56 103/239/57
f 103/239/57 73/240/57 74/238/56
f 104/242/58 59/241/58 60/243/59
f 60/243/59 105/244/59 104/242/58
f 71/246/60 106/245/60 107/247/61
f 107/247/61 69/248/61 71/246/60
f 73/250/57 103/249/57 106/251/60
f 106/251/60 71/252/60 73/250/57
f 109/254/63 108/253/62 63/255/62
f 63/255/62 65/256/63 109/254/63
f 110/258/64 109/257/63 65/259/63
f 65/259/63 66/260/64 110/258/64
f 80/262/66 82/261/65 111/263/65
f 111/263/65 112/264/66 80/262/66
f 107/266/61 113/265/67 67/267/67
f 67/267/67 69/268/61 107/266/61
f 77/270/69 79/269/68 114/271/68
f 114/271/68 115/272/69 77/270/69
f 79/274/68 80/273/66 112/275/66
f 112/275/66 114/276/68 79/274/68
f 77/278/69 115/277/69 116/279/70
f 116/279/70 75/280/70 77/278/69
f 82/282/65 83/281/71 117/283/71
f 117/283/71 111/284/65 82/282/65
f 113/286/67 110/285/64 66/287/64
f 66/287/64 67/288/67 113/286/67
f 105/290/59 60/289/59 61/291/72
f 61/291/72 118/292/72 105/290/59
f 118/294/72 61/293/72 62/295/73
f 62/295/73 119/296/73 118/294/72
f 97/298/26 101/297/26 99/299/26
f 99/299/26 100/300/26 97/298/26
f 100/300/26 98/301/26 97/298/26
f 100/300/26 120/302/26 98/301/26
f 120/302/26 117/303/26 98/301/26
f 120/302/26 104/304/26 117/303/26
f 104/304/26 111/305/26 117/303/26
f 104/304/26 105/306/26 111/305/26
f 105/306/26 112/307/26 111/305/26
f 105/306/26 118/308/26 112/307/26
f 118/308/26 114/309/26 112/307/26
f 118/308/26 119/310/26 114/309/26
f 119/310/26 115/311/26 114/309/26
f 119/310/26 108/312/26 115/311/26
f 108/312/26 116/313/26 115/311/26
f 108/312/26 102/314/26 116/313/26
f 108/312/26 109/315/26 102/314/26
f 109/315/26 110/316/26 102/314/26
f 110/316/26 103/317/26 102/314/26
f 110/316/26 113/318/26 103/317/26
f 113/318/26 106/319/26 103/317/26
f 113/318/26 107/320/26 106/319/26
f 100/322/54 56/321/54 58/323/74
f 58/323/74 120/324/74 100/322/54
f 75/326/70 116/325/70 102/327/56
f 102/327/56 74/328/56 75/326/70
f 108/330/62 119/329/73 62/331/73
f 62/331/73 63/332/62 108/330/62
f 83/334/71 84/333/52 98/335/52
f 98/335/52 117/336/71 83/334/71
f 120/338/74 58/337/74 59/339/58
f 59/339/58 104/340/58 120/338/74
