# Exported using Kenney Suite 1.2 

mtllib wheelRed.mtl 

g wheelRed

v 1.6 1.92567 0.5159816 
v 1.28 2.163674 0.5797547 
v 1.6 1.9936 -1.315323E-12 
v 1.28 2.24 -1.052547E-12 
v 1.28 -7.219114E-16 2.24 
v 1.848093E-12 -7.219114E-16 2.24 
v 1.28 0.5797547 2.163674 
v 1.77879E-12 0.5797547 2.163674 
v 1.6 0.5159816 -1.92567 
v 1.6 0.9968 -1.726508 
v 1.28 0.5797547 -2.163674 
v 1.28 1.12 -1.939897 
v 0 2.24 0 
v 1.28 2.163674 -0.5797547 
v -4.735739E-13 2.163674 -0.5797547 
v 1.28 1.583919 1.583919 
v 1.305216E-12 1.583919 1.583919 
v 1.28 1.939897 1.12 
v 9.240466E-13 1.939897 1.12 
v 1.28 -2.24 -1.052547E-12 
v 1.28 -2.163674 -0.5797547 
v 0 -2.24 0 
v -4.735739E-13 -2.163674 -0.5797547 
v 1.28 -1.583919 1.583919 
v 1.305216E-12 -1.583919 1.583919 
v 1.28 -1.12 1.939897 
v 1.59398E-12 -1.12 1.939897 
v 1.28 -1.939897 1.12 
v 1.28 -2.163674 0.5797547 
v 9.240466E-13 -1.939897 1.12 
v 4.735739E-13 -2.163674 0.5797547 
v -1.77879E-12 -0.5797547 -2.163674 
v 1.28 -0.5797547 -2.163674 
v -1.848093E-12 0 -2.24 
v 1.28 0 -2.24 
v 1.28 1.12 1.939897 
v 1.59398E-12 1.12 1.939897 
v -1.305216E-12 -1.583919 -1.583919 
v 1.28 -1.583919 -1.583919 
v -1.59398E-12 -1.12 -1.939897 
v 1.28 -1.12 -1.939897 
v -1.77879E-12 0.5797547 -2.163674 
v -1.59398E-12 1.12 -1.939897 
v -1.305216E-12 1.583919 -1.583919 
v 1.28 1.583919 -1.583919 
v 1.28 -0.5797547 2.163674 
v 1.77879E-12 -0.5797547 2.163674 
v 1.6 -0.5159816 1.92567 
v 1.6 -7.219114E-16 1.9936 
v 1.6 1.726508 -0.9968 
v 1.28 1.939897 -1.12 
v 1.6 1.409688 -1.409688 
v 1.6 1.726508 0.9968 
v 1.28 -1.939897 -1.12 
v -9.240466E-13 -1.939897 -1.12 
v -9.240466E-13 1.939897 -1.12 
v 1.6 -1.92567 -0.5159816 
v 1.6 -1.726508 -0.9968 
v 1.6 -1.409688 -1.409688 
v 1.6 -0.9968 -1.726508 
v 1.6 -1.9936 -1.315323E-12 
v 1.6 -1.726508 0.9968 
v 1.6 -1.92567 0.5159816 
v 4.735739E-13 2.163674 0.5797547 
v 1.6 0.5159816 1.92567 
v 1.6 -0.9968 1.726508 
v 1.6 -1.409688 1.409688 
v 1.6 0.9968 1.726508 
v 1.6 1.409688 1.409688 
v 1.6 -0.5159816 -1.92567 
v 1.6 -3.609557E-16 -1.9936 
v 1.6 1.92567 -0.5159816 
v 1.9392 -1.443823E-15 -0.8991243 
v 1.9392 -0.2327105 -0.8684874 
v 1.9392 0.2327105 -0.8684874 
v 1.9392 0.4495621 -0.7786645 
v 1.9392 -0.4495621 -0.7786645 
v 1.9392 0.6357769 -0.6357769 
v 1.9392 -0.6357769 -0.6357769 
v 1.9392 0.7786645 -0.4495621 
v 1.9392 -0.7786645 -0.4495621 
v 1.9392 0.8684874 -0.2327105 
v 1.9392 -0.8684874 -0.2327105 
v 1.9392 0.8991243 -1.019339E-12 
v 1.9392 -0.8991243 -1.019339E-12 
v 1.9392 0.8684874 0.2327105 
v 1.9392 -0.8684874 0.2327105 
v 1.9392 0.7786645 0.4495621 
v 1.9392 -0.7786645 0.4495621 
v 1.9392 -0.6357769 0.6357769 
v 1.9392 0.6357769 0.6357769 
v 1.9392 0.4495621 0.7786645 
v 1.9392 -0.4495621 0.7786645 
v 1.9392 0.2327105 0.8684874 
v 1.9392 -0.2327105 0.8684874 
v 1.9392 3.609557E-16 0.8991243 
v 1.5808 0.3291023 -1.228227 
v 1.5808 0.6357769 -1.101198 
v 1.5808 -0.3291023 -1.228227 
v 1.5808 -0.6357769 -1.101198 
v 1.5808 -1.228227 -0.3291023 
v 1.5808 -1.271554 -1.313879E-12 
v 1.5808 -1.228227 0.3291023 
v 1.5808 -1.804779E-15 -1.271554 
v 1.5808 -0.8991243 0.8991243 
v 1.5808 -0.6357769 1.101198 
v 1.5808 -0.3291023 1.228227 
v 1.5808 3.609557E-16 1.271554 
v 1.5808 1.101198 0.6357769 
v 1.5808 0.8991243 0.8991243 
v 1.5808 0.6357769 1.101198 
v 1.5808 -1.101198 -0.6357769 
v 1.5808 0.3291023 1.228227 
v 1.5808 1.101198 -0.6357769 
v 1.5808 1.228227 -0.3291023 
v 1.5808 1.271554 -1.313879E-12 
v 1.5808 -0.8991243 -0.8991243 
v 1.5808 1.228227 0.3291023 
v 1.5808 0.8991243 -0.8991243 
v 1.5808 -1.101198 0.6357769 

vn 0.6100936 0.7653314 0.2050699
vn 0.6100936 0.7923294 0
vn 0 0 1
vn 0 0.258819 0.9659258
vn 0.6100936 0.2050699 -0.7653314
vn 0.6100936 0.3961647 -0.6861774
vn 0 1 0
vn 0 0.9659258 -0.258819
vn 0 0.7071068 0.7071068
vn 0 0.8660254 0.5
vn 0 -1 0
vn 0 -0.9659258 -0.258819
vn 0 -0.7071068 0.7071068
vn 0 -0.5 0.8660254
vn 0 -0.8660254 0.5
vn 0 -0.9659258 0.258819
vn 0 -0.258819 -0.9659258
vn 0 0 -1
vn 0 0.5 0.8660254
vn 0 -0.7071068 -0.7071068
vn 0 -0.5 -0.8660254
vn 0 0.258819 -0.9659258
vn 0 0.5 -0.8660254
vn 0 0.7071068 -0.7071068
vn 0 -0.258819 0.9659258
vn 0.6100936 -0.2050699 0.7653314
vn 0.6100936 0 0.7923294
vn 0.6100936 0.6861774 -0.3961647
vn 0.6100937 0.5602615 -0.5602615
vn 0.6100936 0.6861774 0.3961647
vn 0 -0.8660254 -0.5
vn 0 0.8660254 -0.5
vn 0.6100936 -0.7653314 -0.2050699
vn 0.6100936 -0.6861774 -0.3961647
vn 0.6100937 -0.5602615 -0.5602615
vn 0.6100936 -0.3961647 -0.6861774
vn 0.6100936 -0.7923294 0
vn 0.6100936 -0.6861774 0.3961647
vn 0.6100936 -0.7653314 0.2050699
vn 0 0.9659258 0.258819
vn 0.6100936 0.2050699 0.7653314
vn 0.6100936 -0.3961647 0.6861774
vn 0.6100937 -0.5602615 0.5602615
vn 0.6100936 0.3961647 0.6861774
vn 0.6100937 0.5602615 0.5602615
vn 0.6100936 -0.2050699 -0.7653314
vn -1 0 0
vn 0.6100936 0 -0.7923294
vn 0.6100936 0.7653314 -0.2050699
vn 1 0 0
vn 0.7205481 0.1794664 -0.6697778
vn 0.7205481 0.3467025 -0.6005063
vn 0.7205481 -0.1794664 -0.6697778
vn 0.7205481 -0.3467025 -0.6005063
vn 0.7205481 -0.6697778 -0.1794664
vn 0.7205481 -0.693405 0
vn 0.7205481 -0.6697778 0.1794664
vn 0.7205481 0 -0.693405
vn 0.7205481 -0.4903114 0.4903114
vn 0.7205481 -0.3467025 0.6005063
vn 0.7205481 -0.1794664 0.6697778
vn 0.7205481 0 0.693405
vn 0.7205481 0.6005063 0.3467025
vn 0.7205481 0.4903114 0.4903114
vn 0.7205481 0.3467025 0.6005063
vn 0.7205481 -0.6005063 -0.3467025
vn 0.7205481 0.1794664 0.6697778
vn 0.7205481 0.6005063 -0.3467025
vn 0.7205481 0.6697778 -0.1794664
vn 0.7205481 0.693405 0
vn 0.7205481 -0.4903114 -0.4903114
vn 0.7205481 0.6697778 0.1794664
vn 0.7205481 0.4903114 -0.4903114
vn 0.7205481 -0.6005063 0.3467025
vn 0.9996467 -0.0187961 0.0187961
vn 0.9996467 -0.02302043 0.01329085
vn 0.9996467 -0.02567595 0.00687985
vn 0.9996467 -0.0265817 0
vn 0.9996467 -0.02567595 -0.00687985
vn 0.9996467 -0.02302043 -0.01329085
vn 0.9996467 -0.0187961 -0.0187961
vn 0.9996467 -0.01329085 -0.02302043
vn 0.9996467 -0.00687985 -0.02567595
vn 0.9996467 0 -0.0265817
vn 0.9996467 0.00687985 -0.02567595
vn 0.9996467 0.01329085 -0.02302043
vn 0.9996467 0.0187961 -0.0187961
vn 0.9996467 0.02302043 -0.01329085
vn 0.9996467 0.02567595 -0.00687985
vn 0.9996467 0.0265817 0
vn 0.9996467 0.02567595 0.00687985
vn 0.9996467 0.02302043 0.01329085
vn 0.9996467 0.0187961 0.0187961
vn 0.9996467 0.01329085 0.02302043
vn 0.9996467 0.00687985 0.02567595
vn 0.9996467 0 0.0265817
vn 0.9996467 -0.00687985 0.02567595
vn 0.9996467 -0.01329085 0.02302043

vt -0.5879688 -0.3098513
vt -0.8753481 0.6414704
vt 0.6635104 -0.03832853
vt 0.5308083 0.9465522
vt 3.149606 -0.7194357
vt 3.81934E-14 -0.7194357
vt 3.149606 0.7194357
vt 2.131313E-14 0.7194357
vt -0.01668541 -0.6644071
vt -0.3288477 0.5775589
vt 0.9633477 -0.4996798
vt 0.6126035 0.8957877
vt -3.149606 0.7194357
vt -1.009742E-28 0.7194357
vt -3.149606 -0.7194357
vt -8.238652E-15 -0.7194357
vt 3.310428E-15 -0.7194357
vt 5.095848E-15 0.7194357
vt 1.009742E-28 -0.7194357
vt -8.238652E-15 0.7194357
vt 3.260942E-15 -0.7194357
vt -7.26602E-15 0.7194357
vt 1.913809E-14 0.7194357
vt -1.776058E-15 -0.7194357
vt 2.796858E-16 -0.7194357
vt 1.641797E-14 0.7194357
vt 1.832025E-14 -0.7194357
vt 1.436142E-14 0.7194357
vt 9.89105E-15 -0.7194357
vt 8.541707E-16 0.7194357
vt 1.641797E-14 -0.7194357
vt 2.796858E-16 0.7194357
vt -9.854595E-16 0.7194357
vt 0 -0.7194357
vt 8.541707E-16 -0.7194357
vt 9.89105E-15 0.7194357
vt -2.699556E-15 -0.7194357
vt 1.333363E-14 0.7194357
vt 3.367274E-15 0.7194357
vt 5.136044E-15 -0.7194357
vt -7.141054E-15 -0.7194357
vt -5.662649E-15 0.7194357
vt -0.7526132 -0.7818516
vt -0.8671951 0.6524502
vt 0.2285634 -0.6240785
vt 0.1265855 0.6524502
vt -0.5368958 0.3917373
vt 0.1910394 1.06828
vt 0.2574376 -0.6127325
vt 1.083549 -0.06033745
vt -7.26602E-15 -0.7194357
vt 3.260942E-15 0.7194357
vt -0.4284013 -0.5081216
vt -1.052265 0.2654378
vt 0.6292678 0.2138626
vt 0.1361273 1.076656
vt 9.753199E-15 -0.7194357
vt 9.896917E-15 0.7194357
vt -7.412035E-15 0.7194357
vt 8.250224E-15 -0.7194357
vt -0.6292678 -0.2138626
vt 0.4284013 0.5081216
vt -0.1361273 -1.076656
vt 1.052265 -0.2654378
vt 0.4328807 -0.9951547
vt -0.4317639 -0.5052674
vt 1.040232 0.3092515
vt 0.1087785 0.6556542
vt -7.392762E-15 -0.7194357
vt 8.287455E-15 0.7194357
vt -0.6635104 0.03832853
vt 0.5879688 0.3098513
vt -0.5308083 -0.9465522
vt 0.8753481 -0.6414704
vt 9.793395E-15 0.7194357
vt 9.953762E-15 -0.7194357
vt -0.4284013 0.5081216
vt 0.6292678 -0.2138626
vt -1.052265 -0.2654378
vt 0.1361273 -1.076656
vt 6.677367E-15 -0.7194357
vt -8.226205E-15 0.7194357
vt 0.1265855 -0.6524502
vt -0.8671951 -0.6524502
vt 0.2285634 0.6240785
vt -0.7526132 0.7818516
vt 9.257145E-16 -0.7194357
vt 3.334662E-15 0.7194357
vt -0.6126035 -0.8957877
vt -0.9633477 0.4996798
vt 0.3288477 -0.5775589
vt 0.01668541 0.6644071
vt 3.2853E-15 -0.7194357
vt 8.81458E-16 0.7194357
vt -0.4328807 -0.9951547
vt -1.040232 0.3092515
vt 0.4317639 -0.5052674
vt -0.1087785 0.6556542
vt -0.1087785 -0.6556542
vt -1.040232 -0.3092515
vt 0.4317639 0.5052674
vt -0.4328807 0.9951547
vt 0.6126035 -0.8957877
vt -0.3288477 -0.5775589
vt 0.9633477 0.4996798
vt -0.01668541 0.6644071
vt -0.2574376 0.6127325
vt 0.5368958 -0.3917373
vt -1.083549 0.06033745
vt -0.1910394 -1.06828
vt -0.5368958 -0.3917373
vt 0.2574376 0.6127325
vt 0.1910394 -1.06828
vt 1.083549 0.06033745
vt -7.373357E-15 -0.7194357
vt 0 0.7194357
vt -0.5879688 0.3098513
vt 0.6635104 0.03832853
vt -0.8753481 -0.6414704
vt 0.5308083 -0.9465522
vt -5.511811 5.602391E-42
vt -5.324001 1.426562
vt -5.324001 -1.426562
vt -4.773368 -2.755906
vt -4.773368 2.755906
vt -3.897439 -3.897439
vt -3.897439 3.897439
vt -2.755906 -4.773368
vt -2.755906 4.773368
vt -1.426562 -5.324001
vt -1.426562 5.324001
vt 0 -5.511811
vt 0 5.511811
vt 1.426562 -5.324001
vt 1.426562 5.324001
vt 2.755906 -4.773368
vt 2.755906 4.773368
vt 3.897439 -3.897439
vt 3.897439 3.897439
vt 4.773368 -2.755906
vt 4.773368 2.755906
vt 5.324001 -1.426562
vt 5.324001 1.426562
vt 5.511811 -1.776357E-15
vt -0.2574376 -0.6127325
vt -1.083549 -0.06033745
vt 0.5368958 0.3917373
vt -0.1910394 1.06828
vt 0.7526132 -0.7818516
vt -0.2285634 -0.6240785
vt 0.8671951 0.6524502
vt -0.1265855 0.6524502
vt -0.6635104 -0.03832853
vt -0.5308083 0.9465522
vt 0.5879688 -0.3098513
vt 0.8753481 0.6414704
vt 0.01668541 -0.6644071
vt -0.9633477 -0.4996798
vt 0.3288477 0.5775589
vt -0.6126035 0.8957877
vt -0.1265855 -0.6524502
vt -0.2285634 0.6240785
vt 0.8671951 -0.6524502
vt 0.7526132 0.7818516
vt -0.6292678 0.2138626
vt -0.1361273 1.076656
vt 0.4284013 -0.5081216
vt 1.052265 0.2654378
vt 0.1087785 -0.6556542
vt -0.4317639 0.5052674
vt 1.040232 -0.3092515
vt 0.4328807 0.9951547
vt 2.212412 -3.552714E-15
vt 2.137026 -0.5726144
vt 2.137026 0.5726144
vt 1.916005 1.106206
vt 1.916005 -1.106206
vt 1.564412 1.564412
vt 1.564412 -1.564412
vt 1.106206 1.916005
vt 1.106206 -1.916005
vt 0.5726144 2.137026
vt 0.5726144 -2.137026
vt -1.407806E-12 2.212412
vt -1.407806E-12 -2.212412
vt -0.5726144 2.137026
vt -0.5726144 -2.137026
vt -1.106206 1.916005
vt -1.106206 -1.916005
vt -1.564412 -1.564412
vt -1.564412 1.564412
vt -1.916005 1.106206
vt -1.916005 -1.106206
vt -2.137026 0.5726144
vt -2.137026 -0.5726144
vt -2.212412 8.881784E-16
vt -0.3468827 -0.5291531
vt -1.594673 -0.7752399
vt -0.5795906 0.2537822
vt -1.759222 -0.2216211
vt -0.3468827 0.5291531
vt -0.5795906 -0.2537822
vt -1.594673 0.7752399
vt -1.759222 0.2216211
vt 0.3144789 0.5490298
vt -0.4888983 0.4016331
vt -0.03166817 1.772844
vt -0.5997416 1.668619
vt 0.4888983 0.4016331
vt -0.3144789 0.5490298
vt 0.5997416 1.668619
vt 0.03166817 1.772844
vt -0.4427138 0.4520345
vt -0.5195329 -0.3611318
vt -1.714539 0.4520345
vt -1.768858 -0.1229609
vt 1.671791 0.5908409
vt 0.6203154 -0.1246573
vt 1.393221 1.096775
vt 0.2263574 0.5908409
vt 1.759222 0.2216211
vt 0.5795906 -0.2537822
vt 1.594673 0.7752399
vt 0.3468827 0.5291531
vt 1.768858 -0.1229609
vt 0.5195329 -0.3611318
vt 1.714539 0.4520345
vt 0.4427138 0.4520345
vt 1.475032 -0.984001
vt 1.080547 -1.405844
vt 0.6319175 -0.03179504
vt 0.07403063 -0.628371
vt 1.671791 -0.5908409
vt 1.393221 -1.096775
vt 0.6203154 0.1246573
vt 0.2263574 -0.5908409
vt 0.1120935 0.6227084
vt -0.5952955 0.2143685
vt -0.624512 1.659507
vt -1.124712 1.370767
vt 1.768858 0.1229609
vt 1.714539 -0.4520345
vt 0.5195329 0.3611318
vt 0.4427138 -0.4520345
vt 0.1120935 -0.6227084
vt -0.624512 -1.659507
vt -0.5952955 -0.2143685
vt -1.124712 -1.370767
vt -0.4427138 -0.4520345
vt -1.714539 -0.4520345
vt -0.5195329 0.3611318
vt -1.768858 0.1229609
vt 0.3144789 -0.5490298
vt -0.03166817 -1.772844
vt -0.4888983 -0.4016331
vt -0.5997416 -1.668619
vt -0.07403063 0.628371
vt -0.6319175 0.03179504
vt -1.080547 1.405844
vt -1.475032 0.984001
vt 0.4888983 -0.4016331
vt 0.5997416 -1.668619
vt -0.3144789 -0.5490298
vt 0.03166817 -1.772844
vt -0.2263574 -0.5908409
vt -1.393221 -1.096775
vt -0.6203154 0.1246573
vt -1.671791 -0.5908409
vt 1.475032 0.984001
vt 0.6319175 0.03179504
vt 1.080547 1.405844
vt 0.07403063 0.628371
vt 1.124712 1.370767
vt 0.5952955 0.2143685
vt 0.624512 1.659507
vt -0.1120935 0.6227084
vt 1.759222 -0.2216211
vt 1.594673 -0.7752399
vt 0.5795906 0.2537822
vt 0.3468827 -0.5291531
vt 1.124712 -1.370767
vt 0.624512 -1.659507
vt 0.5952955 -0.2143685
vt -0.1120935 -0.6227084
vt -0.2263574 0.5908409
vt -0.6203154 -0.1246573
vt -1.393221 1.096775
vt -1.671791 0.5908409
vt -0.07403063 -0.628371
vt -1.080547 -1.405844
vt -0.6319175 -0.03179504
vt -1.475032 -0.984001
vt 3.532531 3.550462
vt 2.275618 2.29387
vt 2.516701 4.330216
vt 1.627704 2.79121
vt 2.493033 4.343885
vt 1.604251 2.804756
vt 1.309979 4.834099
vt 0.849678 3.117423
vt 1.283415 4.841219
vt 0.8234112 3.124463
vt 0.01378253 5.00843
vt 0.01361714 3.231113
vt -0.01378253 5.00843
vt -0.01361714 3.231113
vt -1.283415 4.841219
vt -0.8234112 3.124463
vt -0.849678 3.117423
vt -1.604251 2.804756
vt -1.309979 4.834099
vt -2.493033 4.343885
vt -1.627704 2.79121
vt -2.275618 2.29387
vt -2.516701 4.330216
vt -3.532531 3.550462
vt -2.29466 2.274822
vt -2.791775 1.626735
vt -3.551689 3.531297
vt -4.33109 2.515197
vt -2.805164 1.603538
vt -3.117639 0.8488854
vt -4.344519 2.491929
vt -4.834432 1.30875
vt -3.12454 0.8231205
vt -3.231114 0.01331646
vt -4.841339 1.282964
vt -5.008431 0.01331646
vt -3.12454 -0.8231205
vt -4.841339 -1.282964
vt -3.231114 -0.01331646
vt -5.008431 -0.01331646
vt -2.805164 -1.603538
vt -4.344519 -2.491929
vt -3.117639 -0.8488854
vt -4.834432 -1.30875
vt -2.29466 -2.274822
vt -3.551689 -3.531297
vt -2.791775 -1.626735
vt -4.33109 -2.515197
vt -1.627704 -2.79121
vt -2.516701 -4.330216
vt -2.275618 -2.29387
vt -3.532531 -3.550462
vt -0.849678 -3.117423
vt -1.309979 -4.834099
vt -1.604251 -2.804756
vt -2.493033 -4.343885
vt -0.01378253 -5.00843
vt -1.283415 -4.841219
vt -0.01361714 -3.231113
vt -0.8234112 -3.124463
vt 1.283415 -4.841219
vt 0.01378253 -5.00843
vt 0.8234112 -3.124463
vt 0.01361714 -3.231113
vt 2.493033 -4.343885
vt 1.309979 -4.834099
vt 1.604251 -2.804756
vt 0.849678 -3.117423
vt 3.532531 -3.550462
vt 2.516701 -4.330216
vt 2.275618 -2.29387
vt 1.627704 -2.79121
vt 4.33109 -2.515197
vt 3.551689 -3.531297
vt 2.791775 -1.626735
vt 2.29466 -2.274822
vt 4.834432 -1.30875
vt 4.344519 -2.491929
vt 3.117639 -0.8488854
vt 2.805164 -1.603538
vt 5.008431 -0.01331646
vt 4.841339 -1.282964
vt 3.231114 -0.01331646
vt 3.12454 -0.8231205
vt 5.008431 0.01331646
vt 3.231114 0.01331646
vt 4.841339 1.282964
vt 3.12454 0.8231205
vt 4.834432 1.30875
vt 3.117639 0.8488854
vt 4.344519 2.491929
vt 2.805164 1.603538
vt 4.33109 2.515197
vt 2.791775 1.626735
vt 3.551689 3.531297
vt 2.29466 2.274822

usemtl carTire
usemap carTire

f 2/2/1 1/1/1 3/3/2
f 3/3/2 4/4/2 2/2/1
f 6/6/3 5/5/3 7/7/4
f 7/7/4 8/8/4 6/6/3
f 10/10/6 9/9/5 11/11/5
f 11/11/5 12/12/6 10/10/6
f 13/14/7 4/13/7 14/15/8
f 14/15/8 15/16/8 13/14/7
f 17/17/9 16/5/9 18/7/10
f 18/7/10 19/18/10 17/17/9
f 21/13/12 20/15/11 22/19/11
f 22/19/11 23/20/12 21/13/12
f 25/21/13 24/5/13 26/7/14
f 26/7/14 27/22/14 25/21/13
f 29/5/16 28/7/15 30/23/15
f 30/23/15 31/24/16 29/5/16
f 33/15/17 32/25/17 34/26/18
f 34/26/18 35/13/18 33/15/17
f 8/27/4 7/5/4 36/7/19
f 36/7/19 37/28/19 8/27/4
f 39/15/20 38/29/20 40/30/21
f 40/30/21 41/13/21 39/15/20
f 35/15/18 34/31/18 42/32/22
f 42/32/22 11/13/22 35/15/18
f 20/5/11 29/7/16 31/33/16
f 31/33/16 22/34/11 20/5/11
f 12/15/23 43/35/23 44/36/24
f 44/36/24 45/13/24 12/15/23
f 47/37/25 46/5/25 5/7/3
f 5/7/3 6/38/3 47/37/25
f 28/5/15 24/7/13 25/39/13
f 25/39/13 30/40/15 28/5/15
f 27/41/14 26/5/14 46/7/25
f 46/7/25 47/42/25 27/41/14
f 5/44/27 46/43/26 48/45/26
f 48/45/26 49/46/27 5/44/27
f 51/48/28 50/47/28 52/49/29
f 52/49/29 45/50/29 51/48/28
f 37/51/19 36/5/19 16/7/9
f 16/7/9 17/52/9 37/51/19
f 18/54/30 53/53/30 1/55/1
f 1/55/1 2/56/1 18/54/30
f 39/13/20 54/15/31 55/57/31
f 55/57/31 38/58/20 39/13/20
f 15/59/8 14/13/8 51/15/32
f 51/15/32 56/60/32 15/59/8
f 58/62/34 57/61/33 21/63/33
f 21/63/33 54/64/34 58/62/34
f 59/66/35 39/65/35 41/67/36
f 41/67/36 60/68/36 59/66/35
f 54/13/31 21/15/12 23/69/12
f 23/69/12 55/70/31 54/13/31
f 57/72/33 61/71/37 20/73/37
f 20/73/37 21/74/33 57/72/33
f 56/75/32 51/13/32 45/15/24
f 45/15/24 44/76/24 56/75/32
f 63/78/39 62/77/38 28/79/38
f 28/79/38 29/80/39 63/78/39
f 19/81/10 18/5/10 2/7/40
f 2/7/40 64/82/40 19/81/10
f 5/84/27 49/83/27 65/85/41
f 65/85/41 7/86/41 5/84/27
f 41/15/21 40/87/21 32/88/17
f 32/88/17 33/13/17 41/15/21
f 46/90/26 26/89/42 66/91/42
f 66/91/42 48/92/26 46/90/26
f 11/15/22 42/93/22 43/94/23
f 43/94/23 12/13/23 11/15/22
f 26/96/42 24/95/43 67/97/43
f 67/97/43 66/98/42 26/96/42
f 36/100/44 68/99/44 69/101/45
f 69/101/45 16/102/45 36/100/44
f 60/104/36 41/103/36 33/105/46
f 33/105/46 70/106/46 60/104/36
f 62/108/38 67/107/43 24/109/43
f 24/109/43 28/110/38 62/108/38
f 59/112/35 58/111/34 54/113/34
f 54/113/34 39/114/35 59/112/35
f 64/115/40 2/5/40 4/7/7
f 4/7/7 13/116/7 64/115/40
f 61/118/37 63/117/39 29/119/39
f 29/119/39 20/120/37 61/118/37
f 42/122/47 34/121/47 32/123/47
f 32/123/47 40/124/47 42/122/47
f 40/124/47 43/125/47 42/122/47
f 40/124/47 38/126/47 43/125/47
f 38/126/47 44/127/47 43/125/47
f 38/126/47 55/128/47 44/127/47
f 55/128/47 56/129/47 44/127/47
f 55/128/47 23/130/47 56/129/47
f 23/130/47 15/131/47 56/129/47
f 23/130/47 22/132/47 15/131/47
f 22/132/47 13/133/47 15/131/47
f 22/132/47 31/134/47 13/133/47
f 31/134/47 64/135/47 13/133/47
f 31/134/47 30/136/47 64/135/47
f 30/136/47 19/137/47 64/135/47
f 30/136/47 25/138/47 19/137/47
f 25/138/47 17/139/47 19/137/47
f 25/138/47 27/140/47 17/139/47
f 27/140/47 37/141/47 17/139/47
f 27/140/47 47/142/47 37/141/47
f 47/142/47 8/143/47 37/141/47
f 47/142/47 6/144/47 8/143/47
f 16/146/45 69/145/45 53/147/30
f 53/147/30 18/148/30 16/146/45
f 70/150/46 33/149/46 35/151/48
f 35/151/48 71/152/48 70/150/46
f 4/154/2 3/153/2 72/155/49
f 72/155/49 14/156/49 4/154/2
f 7/158/41 65/157/41 68/159/44
f 68/159/44 36/160/44 7/158/41
f 9/162/5 71/161/48 35/163/48
f 35/163/48 11/164/5 9/162/5
f 14/166/49 72/165/49 50/167/28
f 50/167/28 51/168/28 14/166/49
f 52/170/29 10/169/6 12/171/6
f 12/171/6 45/172/29 52/170/29

usemtl paintRed
usemap paintRed

f 74/174/50 73/173/50 75/175/50
f 75/175/50 76/176/50 74/174/50
f 76/176/50 77/177/50 74/174/50
f 76/176/50 78/178/50 77/177/50
f 78/178/50 79/179/50 77/177/50
f 78/178/50 80/180/50 79/179/50
f 80/180/50 81/181/50 79/179/50
f 80/180/50 82/182/50 81/181/50
f 82/182/50 83/183/50 81/181/50
f 82/182/50 84/184/50 83/183/50
f 84/184/50 85/185/50 83/183/50
f 84/184/50 86/186/50 85/185/50
f 86/186/50 87/187/50 85/185/50
f 86/186/50 88/188/50 87/187/50
f 88/188/50 89/189/50 87/187/50
f 88/188/50 90/190/50 89/189/50
f 88/188/50 91/191/50 90/190/50
f 91/191/50 92/192/50 90/190/50
f 92/192/50 93/193/50 90/190/50
f 92/192/50 94/194/50 93/193/50
f 94/194/50 95/195/50 93/193/50
f 94/194/50 96/196/50 95/195/50
f 75/198/51 97/197/51 98/199/52
f 98/199/52 76/200/52 75/198/51
f 100/202/54 99/201/53 74/203/53
f 74/203/53 77/204/54 100/202/54
f 102/206/56 101/205/55 83/207/55
f 83/207/55 85/208/56 102/206/56
f 103/210/57 102/209/56 85/211/56
f 85/211/56 87/212/57 103/210/57
f 99/214/53 104/213/58 73/215/58
f 73/215/58 74/216/53 99/214/53
f 105/218/59 90/217/59 93/219/60
f 93/219/60 106/220/60 105/218/59
f 106/222/60 93/221/60 95/223/61
f 95/223/61 107/224/61 106/222/60
f 107/226/61 95/225/61 96/227/62
f 96/227/62 108/228/62 107/226/61
f 91/230/64 88/229/63 109/231/63
f 109/231/63 110/232/64 91/230/64
f 92/234/65 91/233/64 110/235/64
f 110/235/64 111/236/65 92/234/65
f 101/238/55 112/237/66 81/239/66
f 81/239/66 83/240/55 101/238/55
f 96/242/62 94/241/67 113/243/67
f 113/243/67 108/244/62 96/242/62
f 80/246/68 114/245/68 115/247/69
f 115/247/69 82/248/69 80/246/68
f 73/250/58 104/249/58 97/251/51
f 97/251/51 75/252/51 73/250/58
f 82/254/69 115/253/69 116/255/70
f 116/255/70 84/256/70 82/254/69
f 112/258/66 117/257/71 79/259/71
f 79/259/71 81/260/66 112/258/66
f 84/262/70 116/261/70 118/263/72
f 118/263/72 86/264/72 84/262/70
f 76/266/52 98/265/52 119/267/73
f 119/267/73 78/268/73 76/266/52
f 120/270/74 89/269/74 90/271/59
f 90/271/59 105/272/59 120/270/74
f 103/274/57 87/273/57 89/275/74
f 89/275/74 120/276/74 103/274/57
f 94/278/67 92/277/65 111/279/65
f 111/279/65 113/280/67 94/278/67
f 88/282/63 86/281/72 118/283/72
f 118/283/72 109/284/63 88/282/63
f 117/286/71 100/285/54 77/287/54
f 77/287/54 79/288/71 117/286/71
f 78/290/73 119/289/73 114/291/68
f 114/291/68 80/292/68 78/290/73

usemtl wheelCover
usemap wheelCover

f 119/294/75 52/293/75 50/295/76
f 50/295/76 114/296/76 119/294/75
f 114/298/76 50/297/76 72/299/77
f 72/299/77 115/300/77 114/298/76
f 115/302/77 72/301/77 3/303/78
f 3/303/78 116/304/78 115/302/77
f 116/306/78 3/305/78 1/307/79
f 1/307/79 118/308/79 116/306/78
f 109/310/80 118/309/79 1/311/79
f 1/311/79 53/312/80 109/310/80
f 110/314/81 109/313/80 53/315/80
f 53/315/80 69/316/81 110/314/81
f 111/318/82 110/317/81 69/319/81
f 69/319/81 68/320/82 111/318/82
f 113/322/83 111/321/82 68/323/82
f 68/323/82 65/324/83 113/322/83
f 108/326/84 113/325/83 65/327/83
f 65/327/83 49/328/84 108/326/84
f 48/330/85 107/329/85 108/331/84
f 108/331/84 49/332/84 48/330/85
f 66/334/86 106/333/86 107/335/85
f 107/335/85 48/336/85 66/334/86
f 67/338/87 105/337/87 106/339/86
f 106/339/86 66/340/86 67/338/87
f 62/342/88 120/341/88 105/343/87
f 105/343/87 67/344/87 62/342/88
f 63/346/89 103/345/89 120/347/88
f 120/347/88 62/348/88 63/346/89
f 63/350/89 61/349/90 102/351/90
f 102/351/90 103/352/89 63/350/89
f 61/354/90 57/353/91 101/355/91
f 101/355/91 102/356/90 61/354/90
f 57/358/91 58/357/92 112/359/92
f 112/359/92 101/360/91 57/358/91
f 58/362/92 59/361/93 117/363/93
f 117/363/93 112/364/92 58/362/92
f 59/366/93 60/365/94 100/367/94
f 100/367/94 117/368/93 59/366/93
f 60/370/94 70/369/95 99/371/95
f 99/371/95 100/372/94 60/370/94
f 70/374/95 71/373/96 104/375/96
f 104/375/96 99/376/95 70/374/95
f 104/378/96 71/377/96 9/379/97
f 9/379/97 97/380/97 104/378/96
f 97/382/97 9/381/97 10/383/98
f 10/383/98 98/384/98 97/382/97
f 98/386/98 10/385/98 52/387/75
f 52/387/75 119/388/75 98/386/98
