# Exported using Kenney Suite 1.2 

mtllib wheelLargeRim.mtl 

g wheelLargeRim

v 1.6 1.92567 0.5159816 
v 1.28 2.163674 0.5797547 
v 1.6 1.9936 -1.315323E-12 
v 1.28 2.24 -1.052547E-12 
v 1.28 -7.219114E-16 2.24 
v 1.848093E-12 -7.219114E-16 2.24 
v 1.28 0.5797547 2.163674 
v 1.77879E-12 0.5797547 2.163674 
v 1.6 0.5159816 -1.92567 
v 1.6 0.9968 -1.726508 
v 1.28 0.5797547 -2.163674 
v 1.28 1.12 -1.939897 
v 0 2.24 0 
v 1.28 2.163674 -0.5797547 
v -4.735739E-13 2.163674 -0.5797547 
v 1.28 1.583919 1.583919 
v 1.305216E-12 1.583919 1.583919 
v 1.28 1.939897 1.12 
v 9.240466E-13 1.939897 1.12 
v 1.28 -2.24 -1.052547E-12 
v 1.28 -2.163674 -0.5797547 
v 0 -2.24 0 
v -4.735739E-13 -2.163674 -0.5797547 
v 1.28 -1.583919 1.583919 
v 1.305216E-12 -1.583919 1.583919 
v 1.28 -1.12 1.939897 
v 1.59398E-12 -1.12 1.939897 
v 1.28 -1.939897 1.12 
v 1.28 -2.163674 0.5797547 
v 9.240466E-13 -1.939897 1.12 
v 4.735739E-13 -2.163674 0.5797547 
v -1.77879E-12 -0.5797547 -2.163674 
v 1.28 -0.5797547 -2.163674 
v -1.848093E-12 0 -2.24 
v 1.28 0 -2.24 
v 1.28 1.12 1.939897 
v 1.59398E-12 1.12 1.939897 
v -1.305216E-12 -1.583919 -1.583919 
v 1.28 -1.583919 -1.583919 
v -1.59398E-12 -1.12 -1.939897 
v 1.28 -1.12 -1.939897 
v -1.77879E-12 0.5797547 -2.163674 
v -1.59398E-12 1.12 -1.939897 
v -1.305216E-12 1.583919 -1.583919 
v 1.28 1.583919 -1.583919 
v 1.28 -0.5797547 2.163674 
v 1.77879E-12 -0.5797547 2.163674 
v 1.6 -0.5159816 1.92567 
v 1.6 -7.219114E-16 1.9936 
v 1.6 1.726508 -0.9968 
v 1.28 1.939897 -1.12 
v 1.6 1.409688 -1.409688 
v 1.6 1.726508 0.9968 
v 1.28 -1.939897 -1.12 
v -9.240466E-13 -1.939897 -1.12 
v -9.240466E-13 1.939897 -1.12 
v 1.6 -1.92567 -0.5159816 
v 1.6 -1.726508 -0.9968 
v 1.6 -1.409688 -1.409688 
v 1.6 -0.9968 -1.726508 
v 1.6 -1.9936 -1.315323E-12 
v 1.6 -1.726508 0.9968 
v 1.6 -1.92567 0.5159816 
v 4.735739E-13 2.163674 0.5797547 
v 1.6 0.5159816 1.92567 
v 1.6 -0.9968 1.726508 
v 1.6 -1.409688 1.409688 
v 1.6 0.9968 1.726508 
v 1.6 1.409688 1.409688 
v 1.6 -0.5159816 -1.92567 
v 1.6 -3.609557E-16 -1.9936 
v 1.6 1.92567 -0.5159816 
v 1.6592 1.099822 -1.099822 
v 1.6592 1.347001 -0.7776914 
v 1.6592 1.502384 -0.4025627 
v 1.6592 1.555383 -1.312435E-12 
v 1.6592 1.502384 0.4025627 
v 1.6592 1.347001 0.7776914 
v 1.6592 1.099822 1.099822 
v 1.6592 0.7776914 1.347001 
v 1.6592 0.4025627 1.502384 
v 1.6592 7.219114E-16 1.555383 
v 1.6592 -0.4025627 1.502384 
v 1.6592 -0.7776914 1.347001 
v 1.6592 -1.099822 1.099822 
v 1.6592 -1.347001 0.7776914 
v 1.6592 -1.502384 0.4025627 
v 1.6592 -1.555383 -1.312435E-12 
v 1.6592 -1.502384 -0.4025627 
v 1.6592 -1.347001 -0.7776914 
v 1.6592 -1.099822 -1.099822 
v 1.6592 -0.7776914 -1.347001 
v 1.6592 -0.4025627 -1.502384 
v 1.6592 -2.165734E-15 -1.555383 
v 1.6592 0.4025627 -1.502384 
v 1.6592 0.7776914 -1.347001 
v 1.2208 -0.2846548 -1.062346 
v 1.2208 -0.5499108 -0.9524735 
v 1.2208 0.2846548 -1.062346 
v 1.2208 0.5499108 -0.9524735 
v 1.2208 -1.443823E-15 -1.099822 
v 1.2208 -0.7776914 0.7776914 
v 1.2208 -0.5499108 0.9524735 
v 1.2208 0.9524735 -0.5499108 
v 1.2208 1.062346 -0.2846548 
v 1.2208 -0.2846548 1.062346 
v 1.2208 7.219114E-16 1.099822 
v 1.2208 0.9524735 0.5499108 
v 1.2208 0.7776914 0.7776914 
v 1.2208 0.5499108 0.9524735 
v 1.2208 -0.9524735 -0.5499108 
v 1.2208 -1.062346 -0.2846548 
v 1.2208 0.2846548 1.062346 
v 1.2208 -1.099822 -9.514792E-13 
v 1.2208 -1.062346 0.2846548 
v 1.2208 -0.9524735 0.5499108 
v 1.2208 -0.7776914 -0.7776914 
v 1.2208 1.099822 -9.514792E-13 
v 1.2208 1.062346 0.2846548 
v 1.2208 0.7776914 -0.7776914 

vn 0.6100936 0.7653314 0.2050699
vn 0.6100936 0.7923294 0
vn 0 0 1
vn 0 0.258819 0.9659258
vn 0.6100936 0.2050699 -0.7653314
vn 0.6100936 0.3961647 -0.6861774
vn 0 1 0
vn 0 0.9659258 -0.258819
vn 0 0.7071068 0.7071068
vn 0 0.8660254 0.5
vn 0 -1 0
vn 0 -0.9659258 -0.258819
vn 0 -0.7071068 0.7071068
vn 0 -0.5 0.8660254
vn 0 -0.8660254 0.5
vn 0 -0.9659258 0.258819
vn 0 -0.258819 -0.9659258
vn 0 0 -1
vn 0 0.5 0.8660254
vn 0 -0.7071068 -0.7071068
vn 0 -0.5 -0.8660254
vn 0 0.258819 -0.9659258
vn 0 0.5 -0.8660254
vn 0 0.7071068 -0.7071068
vn 0 -0.258819 0.9659258
vn 0.6100936 -0.2050699 0.7653314
vn 0.6100936 0 0.7923294
vn 0.6100936 0.6861774 -0.3961647
vn 0.6100937 0.5602615 -0.5602615
vn 0.6100936 0.6861774 0.3961647
vn 0 -0.8660254 -0.5
vn 0 0.8660254 -0.5
vn 0.6100936 -0.7653314 -0.2050699
vn 0.6100936 -0.6861774 -0.3961647
vn 0.6100937 -0.5602615 -0.5602615
vn 0.6100936 -0.3961647 -0.6861774
vn 0.6100936 -0.7923294 0
vn 0.6100936 -0.6861774 0.3961647
vn 0.6100936 -0.7653314 0.2050699
vn 0 0.9659258 0.258819
vn 0.6100936 0.2050699 0.7653314
vn 0.6100936 -0.3961647 0.6861774
vn 0.6100937 -0.5602615 0.5602615
vn 0.6100936 0.3961647 0.6861774
vn 0.6100937 0.5602615 0.5602615
vn 0.6100936 -0.2050699 -0.7653314
vn -1 0 0
vn 0.6100936 0 -0.7923294
vn 0.6100936 0.7653314 -0.2050699
vn 0.990998 0.09466513 -0.09466513
vn 0.990998 0.1159406 -0.06693836
vn 0.990998 0.129315 -0.03464985
vn 0.990998 0.1338767 0
vn 0.990998 0.129315 0.03464985
vn 0.990998 0.1159406 0.06693836
vn 0.990998 0.09466513 0.09466513
vn 0.990998 0.06693836 0.1159406
vn 0.990998 0.03464985 0.129315
vn 0.990998 0 0.1338767
vn 0.990998 -0.03464985 0.129315
vn 0.990998 -0.06693836 0.1159406
vn 0.990998 -0.09466513 0.09466513
vn 0.990998 -0.1159406 0.06693836
vn 0.990998 -0.129315 0.03464985
vn 0.990998 -0.1338767 0
vn 0.990998 -0.129315 -0.03464985
vn 0.990998 -0.1159406 -0.06693836
vn 0.990998 -0.09466513 -0.09466513
vn 0.990998 -0.06693836 -0.1159406
vn 0.990998 -0.03464985 -0.129315
vn 0.990998 0 -0.1338767
vn 0.990998 0.03464985 -0.129315
vn 0.990998 0.06693836 -0.1159406
vn 0.7205481 0.1794664 0.6697778
vn 0.7205481 0.3467025 0.6005063
vn 0.7205481 -0.1794664 0.6697778
vn 0.7205481 -0.3467025 0.6005063
vn 0.7205481 0 0.693405
vn 0.7205481 0.4903114 -0.4903114
vn 0.7205481 0.3467025 -0.6005063
vn 0.7205481 -0.6005063 0.3467025
vn 0.7205481 -0.6697778 0.1794664
vn 0.7205481 0.1794664 -0.6697778
vn 0.7205481 0 -0.693405
vn 0.7205481 -0.6005063 -0.3467025
vn 0.7205481 -0.4903114 -0.4903114
vn 0.7205481 -0.3467025 -0.6005063
vn 0.7205481 0.6005063 0.3467025
vn 0.7205481 0.6697778 0.1794664
vn 0.7205481 -0.1794664 -0.6697778
vn 0.7205481 0.693405 0
vn 0.7205481 0.6697778 -0.1794664
vn 0.7205481 0.6005063 -0.3467025
vn 0.7205481 0.4903114 0.4903114
vn 0.7205481 -0.693405 0
vn 0.7205481 -0.6697778 -0.1794664
vn 1 0 0
vn 0.7205481 -0.4903114 0.4903114

vt -0.5879688 -0.3098513
vt -0.8753481 0.6414704
vt 0.6635104 -0.03832853
vt 0.5308083 0.9465522
vt 3.149606 -0.7194357
vt 3.81934E-14 -0.7194357
vt 3.149606 0.7194357
vt 2.131313E-14 0.7194357
vt -0.01668541 -0.6644071
vt -0.3288477 0.5775589
vt 0.9633477 -0.4996798
vt 0.6126035 0.8957877
vt -3.149606 0.7194357
vt -1.009742E-28 0.7194357
vt -3.149606 -0.7194357
vt -8.238652E-15 -0.7194357
vt 3.310428E-15 -0.7194357
vt 5.095848E-15 0.7194357
vt 1.009742E-28 -0.7194357
vt -8.238652E-15 0.7194357
vt 3.260942E-15 -0.7194357
vt -7.26602E-15 0.7194357
vt 1.913809E-14 0.7194357
vt -1.776058E-15 -0.7194357
vt 2.796858E-16 -0.7194357
vt 1.641797E-14 0.7194357
vt 1.832025E-14 -0.7194357
vt 1.436142E-14 0.7194357
vt 9.89105E-15 -0.7194357
vt 8.541707E-16 0.7194357
vt 1.641797E-14 -0.7194357
vt 2.796858E-16 0.7194357
vt -9.854595E-16 0.7194357
vt 0 -0.7194357
vt 8.541707E-16 -0.7194357
vt 9.89105E-15 0.7194357
vt -2.699556E-15 -0.7194357
vt 1.333363E-14 0.7194357
vt 3.367274E-15 0.7194357
vt 5.136044E-15 -0.7194357
vt -7.141054E-15 -0.7194357
vt -5.662649E-15 0.7194357
vt -0.7526132 -0.7818516
vt -0.8671951 0.6524502
vt 0.2285634 -0.6240785
vt 0.1265855 0.6524502
vt -0.5368958 0.3917373
vt 0.1910394 1.06828
vt 0.2574376 -0.6127325
vt 1.083549 -0.06033745
vt -7.26602E-15 -0.7194357
vt 3.260942E-15 0.7194357
vt -0.4284013 -0.5081216
vt -1.052265 0.2654378
vt 0.6292678 0.2138626
vt 0.1361273 1.076656
vt 9.753199E-15 -0.7194357
vt 9.896917E-15 0.7194357
vt -7.412035E-15 0.7194357
vt 8.250224E-15 -0.7194357
vt -0.6292678 -0.2138626
vt 0.4284013 0.5081216
vt -0.1361273 -1.076656
vt 1.052265 -0.2654378
vt 0.4328807 -0.9951547
vt -0.4317639 -0.5052674
vt 1.040232 0.3092515
vt 0.1087785 0.6556542
vt -7.392762E-15 -0.7194357
vt 8.287455E-15 0.7194357
vt -0.6635104 0.03832853
vt 0.5879688 0.3098513
vt -0.5308083 -0.9465522
vt 0.8753481 -0.6414704
vt 9.793395E-15 0.7194357
vt 9.953762E-15 -0.7194357
vt -0.4284013 0.5081216
vt 0.6292678 -0.2138626
vt -1.052265 -0.2654378
vt 0.1361273 -1.076656
vt 6.677367E-15 -0.7194357
vt -8.226205E-15 0.7194357
vt 0.1265855 -0.6524502
vt -0.8671951 -0.6524502
vt 0.2285634 0.6240785
vt -0.7526132 0.7818516
vt 9.257145E-16 -0.7194357
vt 3.334662E-15 0.7194357
vt -0.6126035 -0.8957877
vt -0.9633477 0.4996798
vt 0.3288477 -0.5775589
vt 0.01668541 0.6644071
vt 3.2853E-15 -0.7194357
vt 8.81458E-16 0.7194357
vt -0.4328807 -0.9951547
vt -1.040232 0.3092515
vt 0.4317639 -0.5052674
vt -0.1087785 0.6556542
vt -0.1087785 -0.6556542
vt -1.040232 -0.3092515
vt 0.4317639 0.5052674
vt -0.4328807 0.9951547
vt 0.6126035 -0.8957877
vt -0.3288477 -0.5775589
vt 0.9633477 0.4996798
vt -0.01668541 0.6644071
vt -0.2574376 0.6127325
vt 0.5368958 -0.3917373
vt -1.083549 0.06033745
vt -0.1910394 -1.06828
vt -0.5368958 -0.3917373
vt 0.2574376 0.6127325
vt 0.1910394 -1.06828
vt 1.083549 0.06033745
vt -7.373357E-15 -0.7194357
vt 0 0.7194357
vt -0.5879688 0.3098513
vt 0.6635104 0.03832853
vt -0.8753481 -0.6414704
vt 0.5308083 -0.9465522
vt -5.511811 5.602391E-42
vt -5.324001 1.426562
vt -5.324001 -1.426562
vt -4.773368 -2.755906
vt -4.773368 2.755906
vt -3.897439 -3.897439
vt -3.897439 3.897439
vt -2.755906 -4.773368
vt -2.755906 4.773368
vt -1.426562 -5.324001
vt -1.426562 5.324001
vt 0 -5.511811
vt 0 5.511811
vt 1.426562 -5.324001
vt 1.426562 5.324001
vt 2.755906 -4.773368
vt 2.755906 4.773368
vt 3.897439 -3.897439
vt 3.897439 3.897439
vt 4.773368 -2.755906
vt 4.773368 2.755906
vt 5.324001 -1.426562
vt 5.324001 1.426562
vt 5.511811 -1.776357E-15
vt -0.2574376 -0.6127325
vt -1.083549 -0.06033745
vt 0.5368958 0.3917373
vt -0.1910394 1.06828
vt 0.7526132 -0.7818516
vt -0.2285634 -0.6240785
vt 0.8671951 0.6524502
vt -0.1265855 0.6524502
vt -0.6635104 -0.03832853
vt -0.5308083 0.9465522
vt 0.5879688 -0.3098513
vt 0.8753481 0.6414704
vt 0.01668541 -0.6644071
vt -0.9633477 -0.4996798
vt 0.3288477 0.5775589
vt -0.6126035 0.8957877
vt -0.1265855 -0.6524502
vt -0.2285634 0.6240785
vt 0.8671951 -0.6524502
vt 0.7526132 0.7818516
vt -0.6292678 0.2138626
vt -0.1361273 1.076656
vt 0.4284013 -0.5081216
vt 1.052265 0.2654378
vt 0.1087785 -0.6556542
vt -0.4317639 0.5052674
vt 1.040232 -0.3092515
vt 0.4328807 0.9951547
vt 3.131396 2.997797
vt 2.359497 2.230918
vt 2.118908 3.781885
vt 1.569566 2.842654
vt 2.244416 3.708776
vt 1.698417 2.767599
vt 1.062905 4.202696
vt 0.776616 3.15295
vt 1.199429 4.165789
vt 0.917801 3.114782
vt -0.07000981 4.334458
vt -0.07260018 3.246375
vt 0.07000981 4.334458
vt 0.07260018 3.246375
vt -1.199429 4.165789
vt -0.917801 3.114782
vt -0.776616 3.15295
vt -1.698417 2.767599
vt -1.062905 4.202696
vt -2.244416 3.708776
vt -1.569566 2.842654
vt -2.359497 2.230918
vt -2.118908 3.781885
vt -3.131396 2.997797
vt -2.251793 2.339583
vt -2.856487 1.544249
vt -3.025499 3.104638
vt -3.800561 2.085225
vt -2.778587 1.68038
vt -3.157934 0.756093
vt -3.723296 2.220247
vt -4.209521 1.035548
vt -3.116958 0.9103831
vt -3.246193 -0.08032849
vt -4.168632 1.189509
vt -4.334279 -0.08032849
vt -3.116958 -0.9103831
vt -4.168632 -1.189509
vt -3.246193 0.08032849
vt -4.334279 0.08032849
vt -2.778587 -1.68038
vt -3.723296 -2.220247
vt -3.157934 -0.756093
vt -4.209521 -1.035548
vt -2.251793 -2.339583
vt -3.025499 -3.104638
vt -2.856487 -1.544249
vt -3.800561 -2.085225
vt -1.569566 -2.842654
vt -2.118908 -3.781885
vt -2.359497 -2.230918
vt -3.131396 -2.997797
vt -0.776616 -3.15295
vt -1.062905 -4.202696
vt -1.698417 -2.767599
vt -2.244416 -3.708776
vt 0.07000981 -4.334458
vt -1.199429 -4.165789
vt 0.07260018 -3.246375
vt -0.917801 -3.114782
vt 1.199429 -4.165789
vt -0.07000981 -4.334458
vt 0.917801 -3.114782
vt -0.07260018 -3.246375
vt 2.244416 -3.708776
vt 1.062905 -4.202696
vt 1.698417 -2.767599
vt 0.776616 -3.15295
vt 3.131396 -2.997797
vt 2.118908 -3.781885
vt 2.359497 -2.230918
vt 1.569566 -2.842654
vt 3.800561 -2.085225
vt 3.025499 -3.104638
vt 2.856487 -1.544249
vt 2.251793 -2.339583
vt 4.209521 -1.035548
vt 3.723296 -2.220247
vt 3.157934 -0.756093
vt 2.778587 -1.68038
vt 4.334279 0.08032849
vt 4.168632 -1.189509
vt 3.246193 0.08032849
vt 3.116958 -0.9103831
vt 4.334279 -0.08032849
vt 3.246193 -0.08032849
vt 4.168632 1.189509
vt 3.116958 0.9103831
vt 4.209521 1.035548
vt 3.157934 0.756093
vt 3.723296 2.220247
vt 2.778587 1.68038
vt 3.800561 2.085225
vt 2.856487 1.544249
vt 3.025499 3.104638
vt 2.251793 2.339583
vt 5.477966 -1.107036
vt 5.193315 -2.064734
vt 3.951652 -0.8060194
vt 3.750373 -1.483214
vt 5.477966 1.107036
vt 3.951652 0.8060194
vt 5.193315 2.064734
vt 3.750373 1.483214
vt 5.588645 -0.02617777
vt 5.494679 -1.020854
vt 4.032931 -0.02617777
vt 3.966487 -0.7295204
vt 5.588645 0.02617777
vt 4.032931 0.02617777
vt 5.494679 1.020854
vt 3.966487 0.7295204
vt -3.348935 -2.247188
vt -4.635115 -3.122396
vt -3.689686 -1.628323
vt -5.11701 -2.247188
vt 3.215447 4.571055
vt 2.314421 3.302828
vt 2.350159 5.070542
vt 1.702569 3.656019
vt -3.966487 -0.7295204
vt -5.494679 -1.020854
vt -4.032931 -0.02617777
vt -5.588645 -0.02617777
vt -3.750373 -1.483214
vt -5.193315 -2.064734
vt -3.951652 -0.8060194
vt -5.477966 -1.107036
vt -2.693099 3.002072
vt -3.175639 2.486068
vt -3.724409 4.166824
vt -4.406825 3.437084
vt -3.348935 2.247188
vt -3.689686 1.628323
vt -4.635115 3.122396
vt -5.11701 2.247188
vt 3.215447 -4.571055
vt 2.350159 -5.070542
vt 2.314421 -3.302828
vt 1.702569 -3.656019
vt -3.966487 0.7295204
vt -4.032931 0.02617777
vt -5.494679 1.020854
vt -5.588645 0.02617777
vt -0.5131453 -5.565099
vt -1.495848 -5.384801
vt -0.3775601 -4.015304
vt -1.072436 -3.887814
vt 1.495848 -5.384801
vt 0.5131453 -5.565099
vt 1.072436 -3.887814
vt 0.3775601 -4.015304
vt -1.702569 -3.656019
vt -2.350159 -5.070542
vt -2.314421 -3.302828
vt -3.215447 -4.571055
vt 4.406825 -3.437084
vt 3.724409 -4.166824
vt 3.175639 -2.486068
vt 2.693099 -3.002072
vt -3.750373 1.483214
vt -3.951652 0.8060194
vt -5.193315 2.064734
vt -5.477966 1.107036
vt 1.495848 5.384801
vt 1.072436 3.887814
vt 0.5131453 5.565099
vt 0.3775601 4.015304
vt -0.5131453 5.565099
vt -0.3775601 4.015304
vt -1.495848 5.384801
vt -1.072436 3.887814
vt 2.706254 -3.552714E-15
vt 2.614041 -0.7004301
vt 2.614041 0.7004301
vt 2.343685 1.353127
vt 2.343685 -1.353127
vt 1.913611 1.913611
vt 1.913611 -1.913611
vt 1.353127 2.343685
vt 1.353127 -2.343685
vt 0.7004301 2.614041
vt 0.7004301 -2.614041
vt -1.338623E-13 2.706254
vt -1.338623E-13 -2.706254
vt -0.7004301 2.614041
vt -0.7004301 -2.614041
vt -1.353127 2.343685
vt -1.353127 -2.343685
vt -1.913611 -1.913611
vt -1.913611 1.913611
vt -2.343685 1.353127
vt -2.343685 -1.353127
vt -2.614041 0.7004301
vt -2.614041 -0.7004301
vt -2.706254 1.776357E-15
vt 5.11701 2.247188
vt 3.689686 1.628323
vt 4.635115 3.122396
vt 3.348935 2.247188
vt -2.693099 -3.002072
vt -3.724409 -4.166824
vt -3.175639 -2.486068
vt -4.406825 -3.437084
vt -1.702569 3.656019
vt -2.314421 3.302828
vt -2.350159 5.070542
vt -3.215447 4.571055
vt 5.11701 -2.247188
vt 4.635115 -3.122396
vt 3.689686 -1.628323
vt 3.348935 -2.247188
vt 4.406825 3.437084
vt 3.175639 2.486068
vt 3.724409 4.166824
vt 2.693099 3.002072

usemtl carTire
usemap carTire

f 2/2/1 1/1/1 3/3/2
f 3/3/2 4/4/2 2/2/1
f 6/6/3 5/5/3 7/7/4
f 7/7/4 8/8/4 6/6/3
f 10/10/6 9/9/5 11/11/5
f 11/11/5 12/12/6 10/10/6
f 13/14/7 4/13/7 14/15/8
f 14/15/8 15/16/8 13/14/7
f 17/17/9 16/5/9 18/7/10
f 18/7/10 19/18/10 17/17/9
f 21/13/12 20/15/11 22/19/11
f 22/19/11 23/20/12 21/13/12
f 25/21/13 24/5/13 26/7/14
f 26/7/14 27/22/14 25/21/13
f 29/5/16 28/7/15 30/23/15
f 30/23/15 31/24/16 29/5/16
f 33/15/17 32/25/17 34/26/18
f 34/26/18 35/13/18 33/15/17
f 8/27/4 7/5/4 36/7/19
f 36/7/19 37/28/19 8/27/4
f 39/15/20 38/29/20 40/30/21
f 40/30/21 41/13/21 39/15/20
f 35/15/18 34/31/18 42/32/22
f 42/32/22 11/13/22 35/15/18
f 20/5/11 29/7/16 31/33/16
f 31/33/16 22/34/11 20/5/11
f 12/15/23 43/35/23 44/36/24
f 44/36/24 45/13/24 12/15/23
f 47/37/25 46/5/25 5/7/3
f 5/7/3 6/38/3 47/37/25
f 28/5/15 24/7/13 25/39/13
f 25/39/13 30/40/15 28/5/15
f 27/41/14 26/5/14 46/7/25
f 46/7/25 47/42/25 27/41/14
f 5/44/27 46/43/26 48/45/26
f 48/45/26 49/46/27 5/44/27
f 51/48/28 50/47/28 52/49/29
f 52/49/29 45/50/29 51/48/28
f 37/51/19 36/5/19 16/7/9
f 16/7/9 17/52/9 37/51/19
f 18/54/30 53/53/30 1/55/1
f 1/55/1 2/56/1 18/54/30
f 39/13/20 54/15/31 55/57/31
f 55/57/31 38/58/20 39/13/20
f 15/59/8 14/13/8 51/15/32
f 51/15/32 56/60/32 15/59/8
f 58/62/34 57/61/33 21/63/33
f 21/63/33 54/64/34 58/62/34
f 59/66/35 39/65/35 41/67/36
f 41/67/36 60/68/36 59/66/35
f 54/13/31 21/15/12 23/69/12
f 23/69/12 55/70/31 54/13/31
f 57/72/33 61/71/37 20/73/37
f 20/73/37 21/74/33 57/72/33
f 56/75/32 51/13/32 45/15/24
f 45/15/24 44/76/24 56/75/32
f 63/78/39 62/77/38 28/79/38
f 28/79/38 29/80/39 63/78/39
f 19/81/10 18/5/10 2/7/40
f 2/7/40 64/82/40 19/81/10
f 5/84/27 49/83/27 65/85/41
f 65/85/41 7/86/41 5/84/27
f 41/15/21 40/87/21 32/88/17
f 32/88/17 33/13/17 41/15/21
f 46/90/26 26/89/42 66/91/42
f 66/91/42 48/92/26 46/90/26
f 11/15/22 42/93/22 43/94/23
f 43/94/23 12/13/23 11/15/22
f 26/96/42 24/95/43 67/97/43
f 67/97/43 66/98/42 26/96/42
f 36/100/44 68/99/44 69/101/45
f 69/101/45 16/102/45 36/100/44
f 60/104/36 41/103/36 33/105/46
f 33/105/46 70/106/46 60/104/36
f 62/108/38 67/107/43 24/109/43
f 24/109/43 28/110/38 62/108/38
f 59/112/35 58/111/34 54/113/34
f 54/113/34 39/114/35 59/112/35
f 64/115/40 2/5/40 4/7/7
f 4/7/7 13/116/7 64/115/40
f 61/118/37 63/117/39 29/119/39
f 29/119/39 20/120/37 61/118/37
f 42/122/47 34/121/47 32/123/47
f 32/123/47 40/124/47 42/122/47
f 40/124/47 43/125/47 42/122/47
f 40/124/47 38/126/47 43/125/47
f 38/126/47 44/127/47 43/125/47
f 38/126/47 55/128/47 44/127/47
f 55/128/47 56/129/47 44/127/47
f 55/128/47 23/130/47 56/129/47
f 23/130/47 15/131/47 56/129/47
f 23/130/47 22/132/47 15/131/47
f 22/132/47 13/133/47 15/131/47
f 22/132/47 31/134/47 13/133/47
f 31/134/47 64/135/47 13/133/47
f 31/134/47 30/136/47 64/135/47
f 30/136/47 19/137/47 64/135/47
f 30/136/47 25/138/47 19/137/47
f 25/138/47 17/139/47 19/137/47
f 25/138/47 27/140/47 17/139/47
f 27/140/47 37/141/47 17/139/47
f 27/140/47 47/142/47 37/141/47
f 47/142/47 8/143/47 37/141/47
f 47/142/47 6/144/47 8/143/47
f 16/146/45 69/145/45 53/147/30
f 53/147/30 18/148/30 16/146/45
f 70/150/46 33/149/46 35/151/48
f 35/151/48 71/152/48 70/150/46
f 4/154/2 3/153/2 72/155/49
f 72/155/49 14/156/49 4/154/2
f 7/158/41 65/157/41 68/159/44
f 68/159/44 36/160/44 7/158/41
f 9/162/5 71/161/48 35/163/48
f 35/163/48 11/164/5 9/162/5
f 14/166/49 72/165/49 50/167/28
f 50/167/28 51/168/28 14/166/49
f 52/170/29 10/169/6 12/171/6
f 12/171/6 45/172/29 52/170/29
f 73/174/50 52/173/50 50/175/51
f 50/175/51 74/176/51 73/174/50
f 74/178/51 50/177/51 72/179/52
f 72/179/52 75/180/52 74/178/51
f 75/182/52 72/181/52 3/183/53
f 3/183/53 76/184/53 75/182/52
f 76/186/53 3/185/53 1/187/54
f 1/187/54 77/188/54 76/186/53
f 78/190/55 77/189/54 1/191/54
f 1/191/54 53/192/55 78/190/55
f 79/194/56 78/193/55 53/195/55
f 53/195/55 69/196/56 79/194/56
f 80/198/57 79/197/56 69/199/56
f 69/199/56 68/200/57 80/198/57
f 81/202/58 80/201/57 68/203/57
f 68/203/57 65/204/58 81/202/58
f 82/206/59 81/205/58 65/207/58
f 65/207/58 49/208/59 82/206/59
f 48/210/60 83/209/60 82/211/59
f 82/211/59 49/212/59 48/210/60
f 66/214/61 84/213/61 83/215/60
f 83/215/60 48/216/60 66/214/61
f 67/218/62 85/217/62 84/219/61
f 84/219/61 66/220/61 67/218/62
f 62/222/63 86/221/63 85/223/62
f 85/223/62 67/224/62 62/222/63
f 63/226/64 87/225/64 86/227/63
f 86/227/63 62/228/63 63/226/64
f 63/230/64 61/229/65 88/231/65
f 88/231/65 87/232/64 63/230/64
f 61/234/65 57/233/66 89/235/66
f 89/235/66 88/236/65 61/234/65
f 57/238/66 58/237/67 90/239/67
f 90/239/67 89/240/66 57/238/66
f 58/242/67 59/241/68 91/243/68
f 91/243/68 90/244/67 58/242/67
f 59/246/68 60/245/69 92/247/69
f 92/247/69 91/248/68 59/246/68
f 60/250/69 70/249/70 93/251/70
f 93/251/70 92/252/69 60/250/69
f 70/254/70 71/253/71 94/255/71
f 94/255/71 93/256/70 70/254/70
f 94/258/71 71/257/71 9/259/72
f 9/259/72 95/260/72 94/258/71
f 95/262/72 9/261/72 10/263/73
f 10/263/73 96/264/73 95/262/72
f 96/266/73 10/265/73 52/267/50
f 52/267/50 73/268/50 96/266/73

usemtl wheelCover
usemap wheelCover

f 92/270/75 93/269/74 97/271/74
f 97/271/74 98/272/75 92/270/75
f 99/274/76 95/273/76 96/275/77
f 96/275/77 100/276/77 99/274/76
f 93/278/74 94/277/78 101/279/78
f 101/279/78 97/280/74 93/278/74
f 101/282/78 94/281/78 95/283/76
f 95/283/76 99/284/76 101/282/78
f 85/286/79 102/285/79 103/287/80
f 103/287/80 84/288/80 85/286/79
f 104/290/81 74/289/81 75/291/82
f 75/291/82 105/292/82 104/290/81
f 83/294/83 106/293/83 107/295/84
f 107/295/84 82/296/84 83/294/83
f 84/298/80 103/297/80 106/299/83
f 106/299/83 83/300/83 84/298/80
f 109/302/86 108/301/85 78/303/85
f 78/303/85 79/304/86 109/302/86
f 110/306/87 109/305/86 79/307/86
f 79/307/86 80/308/87 110/306/87
f 89/310/89 90/309/88 111/311/88
f 111/311/88 112/312/89 89/310/89
f 107/314/84 113/313/90 81/315/90
f 81/315/90 82/316/84 107/314/84
f 87/318/92 88/317/91 114/319/91
f 114/319/91 115/320/92 87/318/92
f 88/322/91 89/321/89 112/323/89
f 112/323/89 114/324/91 88/322/91
f 87/326/92 115/325/92 116/327/93
f 116/327/93 86/328/93 87/326/92
f 90/330/88 91/329/94 117/331/94
f 117/331/94 111/332/88 90/330/88
f 113/334/90 110/333/87 80/335/87
f 80/335/87 81/336/90 113/334/90
f 105/338/82 75/337/82 76/339/95
f 76/339/95 118/340/95 105/338/82
f 118/342/95 76/341/95 77/343/96
f 77/343/96 119/344/96 118/342/95
f 97/346/97 101/345/97 99/347/97
f 99/347/97 100/348/97 97/346/97
f 100/348/97 98/349/97 97/346/97
f 100/348/97 120/350/97 98/349/97
f 120/350/97 117/351/97 98/349/97
f 120/350/97 104/352/97 117/351/97
f 104/352/97 111/353/97 117/351/97
f 104/352/97 105/354/97 111/353/97
f 105/354/97 112/355/97 111/353/97
f 105/354/97 118/356/97 112/355/97
f 118/356/97 114/357/97 112/355/97
f 118/356/97 119/358/97 114/357/97
f 119/358/97 115/359/97 114/357/97
f 119/358/97 108/360/97 115/359/97
f 108/360/97 116/361/97 115/359/97
f 108/360/97 102/362/97 116/361/97
f 108/360/97 109/363/97 102/362/97
f 109/363/97 110/364/97 102/362/97
f 110/364/97 103/365/97 102/362/97
f 110/364/97 113/366/97 103/365/97
f 113/366/97 106/367/97 103/365/97
f 113/366/97 107/368/97 106/367/97
f 100/370/77 96/369/77 73/371/98
f 73/371/98 120/372/98 100/370/77
f 86/374/93 116/373/93 102/375/79
f 102/375/79 85/376/79 86/374/93
f 108/378/85 119/377/96 77/379/96
f 77/379/96 78/380/85 108/378/85
f 91/382/94 92/381/75 98/383/75
f 98/383/75 117/384/94 91/382/94
f 120/386/98 73/385/98 74/387/81
f 74/387/81 104/388/81 120/386/98
