# Exported using Kenney Suite 1.2 

mtllib buildingCorridorFactory_exclusive.mtl 

g buildingCorridorFactory_exclusive

v 2.887646E-14 -2.887646E-14 -2.887646E-14 
v 2.887646E-14 -2.887646E-14 10 
v -10 -2.887646E-14 -2.887646E-14 
v -10 -2.887646E-14 10 
v 2.887646E-14 0.6999976 10 
v -10 0.6999976 10 
v -10 0.6999976 -2.887646E-14 
v 2.887646E-14 0.6999976 -2.887646E-14 
v 2.887646E-14 1.499998 10 
v -10 1.499998 10 
v 2.887646E-14 2.699998 10 
v -10 2.699998 10 
v 2.887646E-14 2.699998 -2.887646E-14 
v 2.887646E-14 1.499998 -2.887646E-14 
v -10 1.499998 -2.887646E-14 
v -10 2.699998 -2.887646E-14 
v -0.2999976 2.699998 0.2999976 
v -9.700003 2.699998 0.2999976 
v -9.700003 2.699998 9.700003 
v -0.2999976 2.699998 9.700003 
v -2.649996 8.033798 -2.887646E-14 
v -2.649996 8.033798 10 
v -5.000005 6.341597 -2.887646E-14 
v -5.000005 6.341597 10 
v -7.350004 8.033798 -2.887646E-14 
v -7.350004 8.033798 10 
v -9.700003 6.341597 -2.887646E-14 
v -9.700003 6.341597 10 
v -0.2999976 6.341597 -2.887646E-14 
v -0.2999976 6.341597 10 
v 2.887646E-14 6.341597 -2.887646E-14 
v -10 6.341597 -2.887646E-14 
v 2.887646E-14 5.800004 -2.887646E-14 
v -10 5.800004 -2.887646E-14 
v -10 6.341597 10 
v 2.887646E-14 6.341597 10 
v -10 5.800004 10 
v 2.887646E-14 5.800004 10 
v -0.2999976 5.800004 9.700003 
v -9.700003 5.800004 9.700003 
v -9.700003 5.800004 0.2999976 
v -0.2999976 5.800004 0.2999976 

vn -0.003921539 0.9999924 0
vn -0.003921569 0.003921569 0.9999846
vn -0.9999924 0.003921539 0
vn -0.003921569 0.003921569 -0.9999846
vn 0.9999924 0.003921539 0
vn -0.5842014 0.8116087 0
vn 0.5842014 0.8116087 0
vn -0.003921539 -0.9999924 0

vt -8.973376E-07 -8.973376E-07
vt -8.973376E-07 5.905513
vt -39.37008 5.905513
vt -8.973376E-07 10.62992
vt -39.37008 10.62992
vt 39.37008 5.905513
vt 39.37008 10.62992
vt -8.973376E-07 39.37008
vt 1.181104 1.181104
vt 39.37008 -8.973376E-07
vt 38.18897 1.181104
vt 38.18897 38.18897
vt 1.181104 38.18897
vt 39.37008 39.37008
vt -8.973376E-07 2.75591
vt -39.37008 2.75591
vt 39.37008 2.75591
vt -8.973376E-07 10.01604
vt 39.37008 10.01604
vt -8.973376E-07 -1.38501
vt 39.37008 -1.38501
vt -8.973376E-07 -4.999938
vt 39.37008 -4.999938
vt -8.973376E-07 -16.40098
vt 39.37008 -16.40098
vt -8.973376E-07 15.5479
vt -39.37008 15.5479
vt -8.973376E-07 26.94895
vt -39.37008 26.94895
vt -8.973376E-07 30.56387
vt -39.37008 30.56387
vt -8.973376E-07 41.96492
vt -39.37008 41.96492
vt 38.18897 24.96692
vt 19.68504 24.96692
vt 28.937 31.62913
vt -8.973376E-07 24.96692
vt 39.37008 24.96692
vt -8.973376E-07 22.83465
vt 39.37008 22.83465
vt 1.181104 24.96692
vt 10.43308 31.62913
vt -1.181106 24.96692
vt -19.68504 24.96692
vt -10.43307 31.62913
vt -39.37008 24.96692
vt -39.37008 22.83465
vt -38.18897 24.96692
vt -28.93701 31.62913
vt -1.181106 38.18897
vt -39.37008 39.37008
vt -38.18897 38.18897
vt -38.18897 1.181104
vt -1.181106 1.181104
vt -39.37008 -8.973376E-07
vt 1.181104 -8.973376E-07
vt 1.181104 39.37008
vt 38.18897 -8.973376E-07
vt 38.18897 39.37008
vt -1.181106 10.62992
vt -38.18897 10.62992
vt -1.181106 22.83465
vt -38.18897 22.83465
vt 38.18897 10.62992
vt 1.181104 10.62992
vt 38.18897 22.83465
vt 1.181104 22.83465

usemtl _defaultMat
usemap _defaultMat

f 2/1/1 1/1/1 3/1/1
f 3/1/1 4/1/1 2/1/1
f 4/1/2 2/1/2 5/1/2
f 5/1/2 6/1/2 4/1/2
f 7/1/3 3/1/3 4/1/3
f 4/1/3 6/1/3 7/1/3
f 1/1/4 3/1/4 7/1/4
f 7/1/4 8/1/4 1/1/4
f 1/1/5 8/1/5 5/1/5
f 5/1/5 2/1/5 1/1/5

usemtl pipe
usemap pipe

f 10/3/2 9/2/2 11/4/2
f 11/4/2 12/5/2 10/3/2
f 14/2/5 13/4/5 11/5/5
f 11/5/5 9/3/5 14/2/5
f 14/2/4 15/6/4 16/7/4
f 16/7/4 13/4/4 14/2/4
f 16/4/3 15/2/3 10/6/3
f 10/6/3 12/7/3 16/4/3
f 17/9/1 11/8/1 13/1/1
f 13/1/1 16/10/1 17/9/1
f 16/10/1 18/11/1 17/9/1
f 16/10/1 19/12/1 18/11/1
f 11/8/1 17/9/1 20/13/1
f 20/13/1 12/14/1 11/8/1
f 20/13/1 19/12/1 12/14/1
f 19/12/1 16/10/1 12/14/1

usemtl metal
usemap metal

f 8/15/5 14/2/5 9/3/5
f 9/3/5 5/16/5 8/15/5
f 8/15/4 7/17/4 15/6/4
f 15/6/4 14/2/4 8/15/4
f 6/16/2 5/15/2 9/2/2
f 9/2/2 10/3/2 6/16/2
f 15/2/3 7/15/3 6/17/3
f 6/17/3 10/6/3 15/2/3
f 22/19/6 21/18/6 23/20/6
f 23/20/6 24/21/6 22/19/6
f 26/23/6 25/22/6 27/24/6
f 27/24/6 28/25/6 26/23/6
f 30/27/7 29/26/7 21/28/7
f 21/28/7 22/29/7 30/27/7
f 24/31/7 23/30/7 25/32/7
f 25/32/7 26/33/7 24/31/7
f 23/35/4 27/34/4 25/36/4
f 27/34/4 23/35/4 31/37/4
f 32/38/4 27/34/4 31/37/4
f 32/38/4 31/37/4 33/39/4
f 33/39/4 34/40/4 32/38/4
f 23/35/4 29/41/4 31/37/4
f 29/41/4 23/35/4 21/42/4
f 24/44/2 30/43/2 22/45/2
f 30/43/2 24/44/2 35/46/2
f 36/37/2 30/43/2 35/46/2
f 36/37/2 35/46/2 37/47/2
f 37/47/2 38/39/2 36/37/2
f 24/44/2 28/48/2 35/46/2
f 28/48/2 24/44/2 26/49/2
f 33/39/5 31/37/5 36/46/5
f 36/46/5 38/47/5 33/39/5
f 39/50/8 33/1/8 38/8/8
f 38/8/8 37/51/8 39/50/8
f 37/51/8 40/52/8 39/50/8
f 37/51/8 41/53/8 40/52/8
f 33/1/8 39/50/8 42/54/8
f 42/54/8 34/55/8 33/1/8
f 42/54/8 41/53/8 34/55/8
f 41/53/8 37/51/8 34/55/8
f 36/8/1 31/1/1 29/56/1
f 29/56/1 30/57/1 36/8/1
f 32/37/3 34/39/3 37/40/3
f 37/40/3 35/38/3 32/37/3
f 28/59/1 27/58/1 32/10/1
f 32/10/1 35/14/1 28/59/1

usemtl glass
usemap glass

f 19/61/2 20/60/2 39/62/2
f 39/62/2 40/63/2 19/61/2
f 17/60/5 42/62/5 39/63/5
f 39/63/5 20/61/5 17/60/5
f 17/65/4 18/64/4 41/66/4
f 41/66/4 42/67/4 17/65/4
f 41/67/3 18/65/3 19/64/3
f 19/64/3 40/66/3 41/67/3
