# Exported using Kenney Suite 1.2 

mtllib groundTileRough.mtl 

g groundTileRough

v -7.500002 0.7505968 5.000004 
v -5.000004 -1.600062E-06 7.500002 
v -7.500002 -0.5043045 7.500002 
v -5.000004 -1.600062E-06 5.000004 
v -5.000004 -1.600062E-06 2.499996 
v -9.999999 -1.600062E-06 5.000004 
v -9.999999 -1.600062E-06 7.500002 
v -9.999999 -1.600062E-06 2.499996 
v -7.500002 -0.7118034 2.499996 
v -2.499996 0.9677045 7.500002 
v 1.600062E-06 -1.600062E-06 9.999999 
v -2.499996 -1.600062E-06 9.999999 
v -5.000004 -1.600062E-06 9.999999 
v 1.600062E-06 -1.600062E-06 7.500002 
v 1.600062E-06 -1.600062E-06 5.000004 
v -2.499996 -1.600062E-06 5.000004 
v -2.499996 -0.8108 2.499996 
v 1.600062E-06 -1.600062E-06 2.499996 
v 1.600062E-06 -1.600062E-06 -1.600062E-06 
v -5.000004 -1.600062E-06 -1.600062E-06 
v -2.499996 -1.600062E-06 -1.600062E-06 
v -7.500002 -1.600062E-06 -1.600062E-06 
v -9.999999 -1.600062E-06 -1.600062E-06 
v -9.999999 -1.600062E-06 9.999999 
v -7.500002 -1.600062E-06 9.999999 

vn -0.1755138 0.88032 0.4407173
vn 0.2869622 0.9579419 0
vn -0.285701 0.9583188 0
vn 0.1768893 0.88032 0.440167
vn 0.2400063 0.838242 -0.48964
vn -0.2386308 0.838242 -0.4903118
vn -0.001942133 0.9329175 0.360085
vn 0.3608646 0.9326182 0
vn -0.001942133 0.9329175 -0.360085
vn -0.359605 0.9329175 -0.01868753
vn -0.001942133 0.9486967 -0.3161817
vn -0.3070075 0.9486967 -0.0756375
vn 0.308383 0.9486967 -0.06981824
vn -0.001942133 0.9486967 0.3161817
vn -0.001942133 0.9592162 0.2826669
vn 0.2715648 0.9592162 -0.07846605
vn -0.275449 0.9592162 -0.06349909
vn 0.1979208 0.9802181 0
vn -0.001942133 0.9802552 -0.1977271
vn -0.1965528 0.9802552 -0.02160472

vt -20.0578 -24.34318
vt -7.255042 -30.55385
vt -16.3877 -34.72656
vt -19.68504 18.85361
vt -29.52756 18.85361
vt -19.68504 29.13018
vt -9.842519 18.85361
vt 19.68504 -37.70721
vt 19.68504 -27.43064
vt 29.52757 -37.70721
vt 9.842523 -37.70721
vt -34.73819 -4.975067
vt -38.40829 -15.35844
vt -47.54095 -11.18573
vt 22.24209 16.72204
vt 17.93456 27.27992
vt 31.09197 21.86093
vt 30.85717 -4.942068
vt 22.00729 0.1968222
vt 35.16471 5.615821
vt -9.842519 -26.16134
vt 1.783104E-06 -36.71549
vt -9.842519 -36.71549
vt -19.68504 -36.71549
vt -29.52756 1.783104E-06
vt -39.37008 1.783104E-06
vt -29.52756 10.55415
vt -19.68504 1.783104E-06
vt 9.842523 18.35775
vt 1.783104E-06 18.35775
vt 9.842523 28.9119
vt 19.68504 18.35775
vt 19.68504 -18.35774
vt 29.52757 -7.803594
vt 29.52757 -18.35774
vt 39.37008 -18.35774
vt 9.842523 8.377668
vt 1.783104E-06 18.72489
vt 9.842523 18.72489
vt 19.68504 18.72489
vt 9.842523 1.783104E-06
vt 19.68504 1.783104E-06
vt 9.842523 -10.34722
vt 1.783104E-06 1.783104E-06
vt -9.842519 18.72489
vt -9.842519 8.377668
vt -19.68504 18.72489
vt -9.842519 1.783104E-06
vt -9.842519 -10.34722
vt -29.52756 -10.23369
vt 1.783104E-06 37.86521
vt -9.842519 27.63151
vt -9.842519 37.86521
vt 1.783104E-06 -18.9326
vt 9.842523 -18.9326
vt 9.842523 -29.16629
vt -29.52756 38.59272
vt -29.52756 28.55195
vt -39.37008 38.59272
vt 29.52757 28.55195
vt 29.52757 38.59272
vt 39.37008 38.59272
vt 19.68504 38.59272
vt 29.52757 -19.29636
vt 39.37008 -19.29636
vt 29.52757 -29.33713

usemtl rock
usemap rock

f 2/2/1 1/1/1 3/3/1
f 2/5/2 4/4/2 1/6/2
f 4/4/2 5/7/2 1/6/2
f 1/9/3 6/8/3 7/10/3
f 1/9/3 8/11/3 6/8/3
f 3/13/4 1/12/4 7/14/4
f 1/16/5 9/15/5 8/17/5
f 5/19/6 9/18/6 1/20/6
f 11/22/7 10/21/7 12/23/7
f 12/23/7 10/21/7 13/24/7
f 11/26/8 14/25/8 10/27/8
f 14/25/8 15/28/8 10/27/8
f 15/30/9 16/29/9 10/31/9
f 10/31/9 16/29/9 4/32/9
f 10/34/10 4/33/10 2/35/10
f 10/34/10 2/35/10 13/36/10
f 15/38/11 17/37/11 16/39/11
f 16/39/11 17/37/11 4/40/11
f 15/42/12 18/41/12 17/43/12
f 18/41/12 19/44/12 17/43/12
f 17/46/13 5/45/13 4/47/13
f 17/46/13 20/38/13 5/45/13
f 19/44/14 21/48/14 17/49/14
f 17/49/14 21/48/14 20/28/14
f 20/28/14 22/25/15 9/50/15
f 9/50/15 22/25/15 23/26/15
f 9/52/16 23/51/16 8/53/16
f 5/55/17 20/54/17 9/56/17
f 3/58/18 7/57/18 24/59/18
f 25/61/19 3/60/19 24/62/19
f 13/63/19 3/60/19 25/61/19
f 13/65/20 2/64/20 3/66/20
