# Exported using Kenney Suite 1.2 

mtllib monorailTrain_front_exclusive.mtl 

g monorailTrain_front_exclusive

v 1.231713 -1.061933 -5.699966 
v 1.231713 -1.061933 -1.128469 
v 1.231713 -0.5445447 -5.228474 
v 1.231713 -0.5445447 -1.128469 
v -1.231713 -1.061933 -0.01478349 
v -1.231713 -0.5445447 -0.01478349 
v -1.231713 -1.061933 5.852964 
v -1.231713 -0.5445447 5.285218 
v -1.231713 -1.061933 -5.699966 
v -1.231713 -0.5445447 -5.228474 
v -1.231713 -1.061933 -1.128469 
v -1.231713 -0.5445447 -1.128469 
v 1.231713 -0.5445447 -0.01478349 
v 1.231713 -1.061933 -0.01478349 
v 1.231713 -0.5445447 5.285218 
v 1.231713 -1.061933 5.852964 
v -1.331716 1.300007 -7.2 
v 1.331716 1.300007 -7.2 
v -1.331716 2.000001 -7.2 
v 1.331716 2.000001 -7.2 
v -2.03171 1.300007 -6.500005 
v -2.03171 2.000001 -6.500005 
v 0.7407607 4.800007 1.809045 
v -0.7407607 4.800007 1.809045 
v 0.7407607 5.050001 1.809045 
v -0.7407607 5.050001 1.809045 
v 0.7407607 5.050001 -3.127831 
v 0.7407607 4.800007 -3.127831 
v 0.7407607 5.299995 -2.538071 
v 0.7407607 5.299995 1.559051 
v 2.03171 1.300007 2.799999 
v 1.731715 1.300007 2.799999 
v 2.03171 2.000001 2.799999 
v 1.731715 2.000001 2.799999 
v 2.03171 1.300007 -6.500005 
v 2.03171 2.000001 -6.500005 
v -0.7407607 5.299995 -2.538071 
v -0.7407607 5.299995 1.559051 
v -0.7407607 5.050001 -3.127831 
v 1.731715 0.4000057 7.2 
v 1.431719 0.4000057 7.2 
v 1.731715 4.300004 7.2 
v -1.731715 4.300004 7.2 
v -1.731715 0.4000057 7.2 
v -1.431719 0.4000057 7.2 
v 1.731715 3.894677 3.205326 
v 1.731715 4.300004 2.799999 
v 1.731715 0.4000057 2.799999 
v 1.731715 3.894677 6.794672 
v 1.731715 2.349998 6.794672 
v 1.731715 2.349998 3.205326 
v -0.7407607 4.800007 -3.127831 
v -1.731715 0.4000057 2.799999 
v -1.731715 1.300007 2.799999 
v -1.731715 2.000001 2.799999 
v -1.731715 2.349998 3.205326 
v -1.731715 4.300004 2.799999 
v -1.731715 2.349998 6.794672 
v -1.731715 3.894677 6.794672 
v -1.731715 3.894677 3.205326 
v -2.03171 1.300007 2.799999 
v -2.03171 2.000001 2.799999 
v 1.431719 -0.5445447 -1.128469 
v 1.431719 -0.5445447 -5.228474 
v 1.431719 -1.061933 -1.128469 
v 1.431719 -1.061933 -5.699966 
v -1.431719 -1.061933 -5.699966 
v -1.431719 -0.5445447 -5.228474 
v -1.431719 -1.061933 -1.128469 
v -1.431719 -0.5445447 -1.128469 
v -1.431719 -1.061933 5.852964 
v -1.431719 -0.5445447 5.285218 
v -1.431719 -0.5445447 -0.01478349 
v 1.431719 -1.061933 -0.01478349 
v 1.431719 -0.5445447 -0.01478349 
v -1.431719 -1.061933 -0.01478349 
v 1.431719 -0.5445447 5.285218 
v 1.431719 -1.061933 5.852964 
v -1.431719 -1.061933 -7.2 
v -1.03172 -1.061933 -7.2 
v -1.431719 0.4000057 -7.2 
v -1.03172 6.866462E-06 -7.2 
v 1.03172 6.866462E-06 -7.2 
v 1.431719 0.4000057 -7.2 
v 1.431719 -1.061933 -7.2 
v 1.03172 -1.061933 -7.2 
v 1.03172 -1.061933 -3.23113 
v 1.03172 6.866462E-06 7.2 
v 1.03172 -1.061933 -2.696466 
v 1.03172 -1.061933 -1.703535 
v 1.03172 -1.061933 7.2 
v 1.431719 0.4000057 2.799999 
v 1.431719 -1.061933 7.2 
v -1.431719 0.4000057 2.799999 
v -1.431719 -1.061933 7.2 
v -1.03172 6.866462E-06 7.2 
v 2.03171 4.300004 -3.499993 
v 1.331716 4.300004 -4.200002 
v -1.331716 4.300004 -4.200002 
v -1.03172 -1.061933 7.2 
v -2.03171 4.300004 -3.499993 
v -2.03171 4.300004 2.799999 
v -1.03172 -1.061933 -3.23113 
v -1.03172 -1.061933 -2.696466 
v -1.03172 -1.061933 -1.703535 
v 2.03171 4.300004 2.799999 
v -1.331716 4.800007 -3.918793 
v 1.331716 4.800007 -3.918793 
v -2.03171 0.4000057 -7.2 
v -2.03171 1.300007 -7.2 
v -2.03171 0.4000057 2.799999 
v 2.03171 0.4000057 -7.2 
v 2.03171 0.4000057 2.799999 
v 2.03171 1.300007 -7.2 
v -2.03171 4.800007 -3.218784 
v 2.03171 4.800007 -3.218784 
v 2.03171 4.800007 2.799999 
v -2.03171 4.800007 2.799999 
v 1.731715 4.549999 2.799999 
v 1.731715 4.549999 7.2 
v 1.881719 3.379789 3.205326 
v 2.03171 2.998522 3.205326 
v 1.881719 3.379789 6.794672 
v 2.03171 2.998522 6.794672 
v -2.03171 2.349998 6.794672 
v -1.881719 2.864901 6.794672 
v -2.03171 2.483634 6.794672 
v -2.03171 2.864901 6.794672 
v -2.03171 2.998522 6.794672 
v -1.881719 3.379789 6.794672 
v -2.03171 3.379789 6.794672 
v -2.03171 3.51341 6.794672 
v -1.881719 3.894677 6.794672 
v -1.731715 4.549999 7.2 
v 1.48172 4.800007 7.2 
v -1.48172 4.800007 7.2 
v -2.03171 2.864901 3.205326 
v -2.03171 2.998522 3.205326 
v -1.881719 3.379789 3.205326 
v -2.03171 3.379789 3.205326 
v -1.881719 2.864901 3.205326 
v -2.03171 2.349998 3.205326 
v -2.03171 2.483634 3.205326 
v 1.881719 2.864901 6.794672 
v 2.03171 2.349998 6.794672 
v 2.03171 2.483634 6.794672 
v 2.03171 2.864901 6.794672 
v 2.03171 3.379789 6.794672 
v 2.03171 3.51341 6.794672 
v 1.881719 3.894677 6.794672 
v -1.731715 4.549999 2.799999 
v 1.881719 2.864901 3.205326 
v 2.03171 2.483634 3.205326 
v 2.03171 3.51341 3.205326 
v 2.03171 3.379789 3.205326 
v -2.03171 3.51341 3.205326 
v -1.881719 3.894677 3.205326 
v 2.03171 2.349998 3.205326 
v 1.48172 4.800007 2.799999 
v -1.48172 4.800007 2.799999 
v 2.03171 2.864901 3.205326 
v 1.881719 3.894677 3.205326 

vn 0.9999924 0.003921539 0
vn -0.9999924 0.003921539 0
vn -0.003921569 0.003921569 -0.9999846
vn -0.7098039 0.003921569 -0.7043884
vn -0.003921569 0.003921569 0.9999846
vn 0.7098039 0.003921569 -0.7043884
vn -0.003921539 0.9999924 0
vn -0.003921569 0.9215686 -0.3881956
vn -0.003921569 0.7098039 0.7043884
vn -0.003921539 -0.9999924 0
vn -0.003921569 -0.6705883 0.7418194
vn -0.003921569 -0.7411765 -0.6712988
vn 0.5215687 0.6784314 -0.5173944
vn -0.003921569 0.7960784 -0.6051807
vn -0.5215687 0.6784314 -0.5173944
vn -0.003921569 0.4901961 -0.8716034
vn -0.654902 0.372549 -0.6575033
vn 0.654902 0.372549 -0.6575033
vn 0.9294118 0.3647059 -0.05642132
vn -0.9294118 0.3647059 -0.05642132
vn 0.7071068 0.7071068 0
vn -0.7071068 0.7071068 0

vt 22.44082 -4.180814
vt 4.442793 -4.180814
vt 20.58452 -2.143855
vt 4.442793 -2.143855
vt -0.05820944 -4.180814
vt -0.05820944 -2.143855
vt 23.04315 -4.180814
vt 20.80794 -2.143855
vt -22.44082 -4.180814
vt -20.58452 -2.143855
vt -4.442793 -4.180814
vt -4.442793 -2.143855
vt 0.05820944 -2.143855
vt 0.05820944 -4.180814
vt -20.80794 -2.143855
vt -23.04315 -4.180814
vt 5.242979 5.118112
vt -5.242979 5.118112
vt 5.242979 7.874022
vt -5.242979 7.874022
vt -12.43919 5.118112
vt -16.33663 5.118112
vt -12.43919 7.874022
vt -16.33663 7.874022
vt 2.916386 18.89764
vt -2.916386 18.89764
vt 2.916386 19.88189
vt -2.916386 19.88189
vt 12.31429 19.88189
vt 12.31429 18.89764
vt 9.992404 20.86614
vt -7.122225 18.89764
vt -6.13797 20.86614
vt -7.122225 19.88189
vt 7.998875 5.118112
vt 6.817777 5.118112
vt 7.998875 7.874022
vt 6.817777 7.874022
vt 16.33663 5.118112
vt 12.43919 5.118112
vt 16.33663 7.874022
vt 12.43919 7.874022
vt -2.916386 -9.992404
vt -2.916386 6.13797
vt 2.916386 -9.992404
vt 2.916386 6.13797
vt -2.916386 -3.57812
vt -2.916386 -1.056238
vt 2.916386 -3.57812
vt 2.916386 -1.056238
vt 2.916386 10.41439
vt 2.916386 9.022449
vt -2.916386 10.41439
vt -2.916386 9.022449
vt 6.817777 1.574804
vt 5.636678 1.574804
vt 6.817777 16.92913
vt -6.817777 16.92913
vt -6.817777 1.574804
vt -5.636678 1.574804
vt -11.02362 7.874022
vt -12.61938 15.33337
vt -11.02362 16.92913
vt -28.34646 16.92913
vt -11.02362 5.118112
vt -11.02362 1.574804
vt -26.75069 15.33337
vt -26.75069 9.251963
vt -12.61938 9.251963
vt -28.34646 1.574804
vt 11.02362 1.574804
vt 11.02362 5.118112
vt 28.34646 1.574804
vt 11.02362 7.874022
vt 12.61938 9.251963
vt 11.02362 16.92913
vt 26.75069 9.251963
vt 26.75069 15.33337
vt 12.61938 15.33337
vt 28.34646 16.92913
vt 25.59055 7.874022
vt 25.59055 5.118112
vt -25.59055 5.118112
vt -25.59055 7.874022
vt -12.31429 18.89764
vt -12.31429 19.88189
vt 7.122225 18.89764
vt -9.992404 20.86614
vt 6.13797 20.86614
vt 7.122225 19.88189
vt -6.817777 5.118112
vt -7.998875 5.118112
vt -6.817777 7.874022
vt -7.998875 7.874022
vt 5.636678 -4.442793
vt 5.636678 -20.58452
vt 4.849279 -4.442793
vt 4.849279 -20.58452
vt -4.849266 -4.180814
vt -5.636678 -4.180814
vt -4.849266 -2.143855
vt -5.636678 -2.143855
vt 5.636678 -18.20558
vt 4.849279 -18.20558
vt 5.636678 -15.44967
vt 4.849279 -15.44967
vt -4.849266 -18.20558
vt -5.636678 -18.20558
vt -4.849266 -15.44967
vt -5.636678 -15.44967
vt 5.636678 -4.180814
vt 4.849279 -4.180814
vt 5.636678 -2.143855
vt 4.849279 -2.143855
vt 4.849279 -19.84781
vt 4.849279 -16.82369
vt 5.636678 -19.84781
vt 5.636678 -16.82369
vt -4.849266 20.80794
vt -4.849266 -0.05820944
vt -5.636678 20.80794
vt -5.636678 -0.05820944
vt 5.636678 20.80794
vt 5.636678 -0.05820944
vt 4.849279 20.80794
vt 4.849279 -0.05820944
vt -5.636678 -19.84781
vt -5.636678 -16.82369
vt -4.849266 -19.84781
vt -4.849266 -16.82369
vt -4.849266 -4.442793
vt -4.849266 -20.58452
vt -5.636678 -4.442793
vt -5.636678 -20.58452
vt 4.061867 -4.180814
vt 4.061867 -6.758324E-06
vt -4.061867 -6.758324E-06
vt -4.061867 -4.180814
vt -28.34646 -4.180814
vt -28.34646 -6.758324E-06
vt -12.72098 -4.180814
vt 28.34646 -6.758324E-06
vt -10.61602 -4.180814
vt -6.706818 -4.180814
vt 28.34646 -4.180814
vt 5.636678 28.34646
vt 5.636678 23.04315
vt 4.061867 28.34646
vt 4.849279 23.04315
vt 4.849279 -22.44082
vt 4.061867 -28.34646
vt 5.636678 -28.34646
vt 5.636678 -22.44082
vt 4.061867 -6.706818
vt 4.061867 -10.61602
vt 4.061867 -12.72098
vt -4.061867 28.34646
vt -4.061867 -28.34646
vt 12.43919 -10.31479
vt 4.087535 2.003715
vt 16.33663 -10.31479
vt 7.98498 2.003715
vt -5.242979 -17.70512
vt -5.242979 -2.822404
vt 5.242979 -17.70512
vt 5.242979 -2.822404
vt -13.77953 16.92913
vt 12.72098 -4.180814
vt 10.61602 -4.180814
vt 6.706818 -4.180814
vt -4.061867 -6.706818
vt -4.849266 23.04315
vt -5.636678 28.34646
vt -4.061867 -10.61602
vt -4.061867 -12.72098
vt -5.636678 23.04315
vt -4.849266 -22.44082
vt -5.636678 -28.34646
vt -5.636678 -22.44082
vt -16.33663 -10.31479
vt -7.98498 2.003715
vt -12.43919 -10.31479
vt -4.087535 2.003715
vt -7.998875 16.92913
vt 7.998875 16.92913
vt 13.77953 16.92913
vt 5.242979 6.649575
vt -5.242979 6.649575
vt 5.242979 8.908072
vt -5.242979 8.908072
vt -28.34646 5.118112
vt -5.636678 11.02362
vt -6.817777 11.02362
vt -7.998875 -28.34646
vt -7.998875 11.02362
vt -6.817777 28.34646
vt 5.636678 11.02362
vt 6.817777 11.02362
vt 7.998875 -28.34646
vt 7.998875 11.02362
vt 6.817777 28.34646
vt 7.998875 1.574804
vt -7.998875 1.574804
vt -7.98498 10.0399
vt -7.202109 12.15837
vt -4.087535 10.0399
vt -3.304665 12.15837
vt 12.67239 18.89764
vt -11.02362 18.89764
vt 7.98498 10.0399
vt 4.087535 10.0399
vt 7.202109 12.15837
vt 3.304665 12.15837
vt -7.998875 -25.59055
vt -5.242979 -28.34646
vt 5.242979 -28.34646
vt 7.998875 -25.59055
vt -12.67239 18.89764
vt 11.02362 18.89764
vt 28.34646 5.118112
vt -11.02362 17.91339
vt -28.34646 17.91339
vt -12.61938 9.6701
vt -12.61938 8.057064
vt -26.75069 9.6701
vt -26.75069 8.057064
vt -7.998875 9.251963
vt -7.408332 11.27911
vt -6.817777 9.251963
vt -6.817777 15.33337
vt -7.998875 9.77807
vt -7.998875 11.27911
vt -7.998875 11.8052
vt -7.408332 13.30624
vt -7.998875 13.30624
vt -7.998875 13.83235
vt -7.408332 15.33337
vt 6.817777 17.91339
vt -6.817777 17.91339
vt 5.833521 18.89764
vt -5.833521 18.89764
vt 12.61938 11.27911
vt 12.61938 11.8052
vt 26.75069 11.27911
vt 26.75069 11.8052
vt -7.408332 26.75069
vt -7.408332 12.61938
vt -7.998875 26.75069
vt -7.998875 12.61938
vt 12.61938 9.77807
vt 26.75069 9.77807
vt 6.817777 15.33337
vt 7.408332 11.27911
vt 6.817777 9.251963
vt 7.998875 9.251963
vt 7.998875 9.77807
vt 7.408332 13.30624
vt 7.998875 11.27911
vt 7.998875 11.8052
vt 7.998875 13.30624
vt 7.998875 13.83235
vt 7.408332 15.33337
vt 11.02362 17.91339
vt 28.34646 17.91339
vt -12.61938 7.783703
vt -12.61938 6.170681
vt -26.75069 7.783703
vt -26.75069 6.170681
vt 12.61938 8.057064
vt 12.61938 9.6701
vt 26.75069 8.057064
vt 26.75069 9.6701
vt 12.61938 6.170681
vt 12.61938 7.783703
vt 26.75069 6.170681
vt 26.75069 7.783703
vt -12.61938 13.83235
vt -12.61938 13.30624
vt -26.75069 13.83235
vt -26.75069 13.30624
vt 7.998875 26.75069
vt 7.998875 12.61938
vt 6.817777 26.75069
vt 6.817777 12.61938
vt -12.61938 9.77807
vt -26.75069 9.77807
vt -5.242979 -15.42829
vt -2.916386 -12.31429
vt 5.242979 -15.42829
vt 2.916386 -12.31429
vt 2.916386 7.122225
vt -2.916386 7.122225
vt -5.833521 28.34646
vt -5.833521 11.02362
vt -7.998875 -12.67239
vt 5.833521 28.34646
vt 5.833521 11.02362
vt 7.998875 -12.67239
vt -12.61938 11.8052
vt -12.61938 11.27911
vt -26.75069 11.8052
vt -26.75069 11.27911
vt 12.61938 9.94346
vt 12.61938 11.55648
vt 26.75069 9.94346
vt 26.75069 11.55648
vt -7.998875 18.89764
vt -12.61938 11.55648
vt -12.61938 9.94346
vt -26.75069 11.55648
vt -26.75069 9.94346
vt 12.61938 13.30624
vt 12.61938 13.83235
vt 26.75069 13.30624
vt 26.75069 13.83235
vt 7.408332 12.61938
vt 7.408332 26.75069
vt -6.817777 26.75069
vt -6.817777 12.61938
vt -11.02362 9.237716
vt -11.02362 7.845785
vt -28.34646 9.237716
vt -28.34646 7.845785
vt 7.998875 18.89764
vt 11.02362 9.237716
vt 28.34646 9.237716
vt 11.02362 7.845785
vt 28.34646 7.845785

usemtl pipe
usemap pipe

f 2/2/1 1/1/1 3/3/1
f 3/3/1 4/4/1 2/2/1
f 6/6/2 5/5/2 7/7/2
f 7/7/2 8/8/2 6/6/2
f 10/10/2 9/9/2 11/11/2
f 11/11/2 12/12/2 10/10/2
f 14/14/1 13/13/1 15/15/1
f 15/15/1 16/16/1 14/14/1
f 18/18/3 17/17/3 19/19/3
f 19/19/3 20/20/3 18/18/3
f 17/22/4 21/21/4 22/23/4
f 22/23/4 19/24/4 17/22/4
f 24/26/5 23/25/5 25/27/5
f 25/27/5 26/28/5 24/26/5
f 28/30/1 27/29/1 29/31/1
f 29/31/1 23/32/1 28/30/1
f 29/31/1 30/33/1 23/32/1
f 30/33/1 25/34/1 23/32/1
f 32/36/5 31/35/5 33/37/5
f 33/37/5 34/38/5 32/36/5
f 35/40/6 18/39/6 20/41/6
f 20/41/6 36/42/6 35/40/6
f 30/44/7 29/43/7 37/45/7
f 37/45/7 38/46/7 30/44/7
f 29/48/8 27/47/8 39/49/8
f 39/49/8 37/50/8 29/48/8
f 25/52/9 30/51/9 38/53/9
f 38/53/9 26/54/9 25/52/9
f 41/56/5 40/55/5 42/57/5
f 41/56/5 42/57/5 43/58/5
f 41/56/5 43/58/5 44/59/5
f 44/59/5 45/60/5 41/56/5
f 46/62/1 34/61/1 47/63/1
f 47/63/1 42/64/1 46/62/1
f 46/62/1 32/65/1 34/61/1
f 46/62/1 48/66/1 32/65/1
f 42/64/1 49/67/1 46/62/1
f 42/64/1 50/68/1 49/67/1
f 48/66/1 46/62/1 51/69/1
f 51/69/1 40/70/1 48/66/1
f 51/69/1 50/68/1 40/70/1
f 50/68/1 42/64/1 40/70/1
f 28/26/3 52/25/3 39/27/3
f 39/27/3 27/28/3 28/26/3
f 54/72/2 53/71/2 44/73/2
f 44/73/2 55/74/2 54/72/2
f 44/73/2 56/75/2 55/74/2
f 56/75/2 57/76/2 55/74/2
f 44/73/2 58/77/2 56/75/2
f 44/73/2 59/78/2 58/77/2
f 57/76/2 56/75/2 60/79/2
f 60/79/2 43/80/2 57/76/2
f 60/79/2 59/78/2 43/80/2
f 59/78/2 44/73/2 43/80/2
f 35/82/1 36/81/1 33/61/1
f 33/61/1 31/65/1 35/82/1
f 22/84/2 21/83/2 61/72/2
f 61/72/2 62/74/2 22/84/2
f 39/86/2 52/85/2 24/87/2
f 24/87/2 37/88/2 39/86/2
f 24/87/2 38/89/2 37/88/2
f 24/87/2 26/90/2 38/89/2
f 61/92/5 54/91/5 55/93/5
f 55/93/5 62/94/5 61/92/5

usemtl glass
usemap glass

f 64/96/10 63/95/10 4/97/10
f 4/97/10 3/98/10 64/96/10
f 65/100/3 2/99/3 4/101/3
f 4/101/3 63/102/3 65/100/3
f 1/104/11 66/103/11 64/105/11
f 64/105/11 3/106/11 1/104/11
f 67/108/11 9/107/11 10/109/11
f 10/109/11 68/110/11 67/108/11
f 11/112/3 69/111/3 70/113/3
f 70/113/3 12/114/3 11/112/3
f 8/116/12 7/115/12 71/117/12
f 71/117/12 72/118/12 8/116/12
f 6/120/10 8/119/10 72/121/10
f 72/121/10 73/122/10 6/120/10
f 14/112/5 74/111/5 75/113/5
f 75/113/5 13/114/5 14/112/5
f 76/100/5 5/99/5 6/101/5
f 6/101/5 73/102/5 76/100/5
f 75/124/10 77/123/10 15/125/10
f 15/125/10 13/126/10 75/124/10
f 77/128/12 78/127/12 16/129/12
f 16/129/12 15/130/12 77/128/12
f 10/132/10 12/131/10 70/133/10
f 70/133/10 68/134/10 10/132/10
f 80/135/3 79/111/3 81/56/3
f 81/56/3 82/136/3 80/135/3
f 81/56/3 83/137/3 82/136/3
f 83/137/3 81/56/3 84/60/3
f 83/137/3 84/60/3 85/100/3
f 85/100/3 86/138/3 83/137/3
f 83/140/2 86/139/2 87/141/2
f 87/141/2 88/142/2 83/140/2
f 87/141/2 89/143/2 88/142/2
f 89/143/2 90/144/2 88/142/2
f 90/144/2 91/145/2 88/142/2
f 64/3/1 85/145/1 84/73/1
f 84/73/1 92/66/1 64/3/1
f 64/3/1 66/1/1 85/145/1
f 92/66/1 63/4/1 64/3/1
f 92/66/1 75/13/1 63/4/1
f 75/13/1 65/2/1 63/4/1
f 92/66/1 77/15/1 75/13/1
f 92/66/1 41/70/1 77/15/1
f 41/70/1 78/16/1 77/15/1
f 41/70/1 93/139/1 78/16/1
f 65/2/1 75/13/1 74/14/1
f 78/147/10 93/146/10 91/148/10
f 91/148/10 16/149/10 78/147/10
f 91/148/10 14/126/10 16/149/10
f 91/148/10 2/97/10 14/126/10
f 91/148/10 1/150/10 2/97/10
f 1/150/10 91/148/10 86/151/10
f 1/150/10 86/151/10 85/152/10
f 85/152/10 66/153/10 1/150/10
f 91/148/10 90/154/10 86/151/10
f 90/154/10 89/155/10 86/151/10
f 89/155/10 87/156/10 86/151/10
f 14/126/10 2/97/10 65/95/10
f 65/95/10 74/124/10 14/126/10
f 70/12/2 69/11/2 76/5/2
f 70/12/2 76/5/2 73/6/2
f 70/12/2 73/6/2 94/71/2
f 68/10/2 70/12/2 94/71/2
f 68/10/2 94/71/2 81/70/2
f 67/9/2 68/10/2 81/70/2
f 81/70/2 79/139/2 67/9/2
f 73/6/2 72/8/2 94/71/2
f 72/8/2 45/73/2 94/71/2
f 72/8/2 71/7/2 45/73/2
f 71/7/2 95/145/2 45/73/2
f 83/151/10 88/148/10 96/157/10
f 96/157/10 82/158/10 83/151/10
f 97/160/13 36/159/13 20/161/13
f 20/161/13 98/162/13 97/160/13
f 98/164/14 20/163/14 19/165/14
f 19/165/14 99/166/14 98/164/14
f 91/135/5 93/111/5 41/56/5
f 41/56/5 88/136/5 91/135/5
f 41/56/5 96/137/5 88/136/5
f 41/56/5 45/60/5 96/137/5
f 96/137/5 45/60/5 95/100/5
f 95/100/5 100/138/5 96/137/5
f 101/167/2 22/84/2 62/74/2
f 62/74/2 102/76/2 101/167/2
f 80/145/1 82/142/1 96/140/1
f 96/140/1 103/168/1 80/145/1
f 96/140/1 104/169/1 103/168/1
f 96/140/1 105/170/1 104/169/1
f 96/140/1 100/139/1 105/170/1
f 7/172/10 105/171/10 100/157/10
f 100/157/10 95/173/10 7/172/10
f 7/172/10 104/174/10 105/171/10
f 7/172/10 103/175/10 104/174/10
f 7/172/10 80/158/10 103/175/10
f 95/173/10 71/176/10 7/172/10
f 80/158/10 7/172/10 5/120/10
f 80/158/10 5/120/10 9/177/10
f 9/177/10 79/178/10 80/158/10
f 5/120/10 11/131/10 9/177/10
f 11/131/10 5/120/10 76/122/10
f 76/122/10 69/133/10 11/131/10
f 9/177/10 67/179/10 79/178/10
f 99/181/15 19/180/15 22/182/15
f 22/182/15 101/183/15 99/181/15
f 62/94/5 55/93/5 57/58/5
f 57/58/5 102/184/5 62/94/5
f 34/38/5 33/37/5 106/185/5
f 106/185/5 47/57/5 34/38/5
f 33/61/1 36/81/1 97/186/1
f 97/186/1 106/63/1 33/61/1

usemtl metal
usemap metal

f 98/188/16 99/187/16 107/189/16
f 107/189/16 108/190/16 98/188/16
f 110/191/2 109/70/2 111/71/2
f 111/71/2 21/83/2 110/191/2
f 111/71/2 61/72/2 21/83/2
f 81/178/10 94/192/10 53/193/10
f 53/193/10 109/194/10 81/178/10
f 53/193/10 111/195/10 109/194/10
f 44/196/10 53/193/10 94/192/10
f 94/192/10 45/173/10 44/196/10
f 45/173/10 94/192/10 92/197/10
f 92/197/10 41/146/10 45/173/10
f 41/146/10 92/197/10 48/198/10
f 48/198/10 92/197/10 84/152/10
f 48/198/10 84/152/10 112/199/10
f 112/199/10 113/200/10 48/198/10
f 48/198/10 40/201/10 41/146/10
f 81/56/3 109/202/3 110/35/3
f 110/35/3 84/60/3 81/56/3
f 110/35/3 112/203/3 84/60/3
f 110/35/3 114/92/3 112/203/3
f 110/35/3 17/17/3 114/92/3
f 17/17/3 18/18/3 114/92/3
f 107/205/17 99/204/17 101/206/17
f 101/206/17 115/207/17 107/205/17
f 106/63/1 97/186/1 116/208/1
f 116/208/1 117/209/1 106/63/1
f 97/211/18 98/210/18 108/212/18
f 108/212/18 116/213/18 97/211/18
f 35/214/7 114/194/7 18/215/7
f 17/216/7 110/199/7 21/217/7
f 115/218/2 101/167/2 102/76/2
f 102/76/2 118/219/2 115/218/2
f 112/73/1 114/220/1 35/82/1
f 35/82/1 113/66/1 112/73/1
f 35/82/1 31/65/1 113/66/1
f 111/203/5 53/59/5 54/91/5
f 54/91/5 61/92/5 111/203/5
f 48/55/5 113/202/5 31/35/5
f 31/35/5 32/36/5 48/55/5
f 47/63/1 119/221/1 120/222/1
f 120/222/1 42/64/1 47/63/1
f 122/224/19 121/223/19 123/225/19
f 123/225/19 124/226/19 122/224/19
f 126/228/5 125/227/5 58/229/5
f 58/229/5 59/230/5 126/228/5
f 126/228/5 127/231/5 125/227/5
f 59/230/5 128/232/5 126/228/5
f 130/234/5 129/233/5 128/232/5
f 59/230/5 131/235/5 130/234/5
f 59/230/5 132/236/5 131/235/5
f 59/230/5 133/237/5 132/236/5
f 59/230/5 130/234/5 128/232/5
f 43/58/5 42/57/5 120/238/5
f 120/238/5 134/239/5 43/58/5
f 120/238/5 135/240/5 134/239/5
f 135/240/5 136/241/5 134/239/5
f 138/243/2 137/242/2 128/244/2
f 128/244/2 129/245/2 138/243/2
f 139/247/10 130/246/10 131/248/10
f 131/248/10 140/249/10 139/247/10
f 141/247/10 126/246/10 128/248/10
f 128/248/10 137/249/10 141/247/10
f 143/250/2 142/75/2 125/77/2
f 125/77/2 127/251/2 143/250/2
f 144/253/5 49/252/5 50/254/5
f 50/254/5 145/255/5 144/253/5
f 145/255/5 146/256/5 144/253/5
f 144/253/5 123/257/5 49/252/5
f 144/253/5 147/258/5 123/257/5
f 147/258/5 124/259/5 123/257/5
f 123/257/5 148/260/5 49/252/5
f 148/260/5 149/261/5 49/252/5
f 149/261/5 150/262/5 49/252/5
f 151/263/2 57/76/2 43/80/2
f 43/80/2 134/264/2 151/263/2
f 153/266/19 152/265/19 144/267/19
f 144/267/19 146/268/19 153/266/19
f 139/270/20 138/269/20 129/271/20
f 129/271/20 130/272/20 139/270/20
f 141/274/20 143/273/20 127/275/20
f 127/275/20 126/276/20 141/274/20
f 155/278/1 154/277/1 149/279/1
f 149/279/1 148/280/1 155/278/1
f 141/253/3 137/258/3 138/259/3
f 141/253/3 138/259/3 139/257/3
f 141/253/3 139/257/3 60/252/3
f 141/253/3 60/252/3 56/254/3
f 143/256/3 141/253/3 56/254/3
f 56/254/3 142/255/3 143/256/3
f 139/257/3 156/261/3 60/252/3
f 139/257/3 140/260/3 156/261/3
f 156/261/3 157/262/3 60/252/3
f 158/282/10 145/281/10 50/283/10
f 50/283/10 51/284/10 158/282/10
f 158/69/1 153/285/1 146/286/1
f 146/286/1 145/68/1 158/69/1
f 28/288/7 108/287/7 107/289/7
f 107/289/7 52/290/7 28/288/7
f 107/289/7 24/291/7 52/290/7
f 108/287/7 28/288/7 23/292/7
f 108/287/7 23/292/7 135/293/7
f 108/287/7 135/293/7 159/294/7
f 108/287/7 159/294/7 117/195/7
f 117/195/7 116/295/7 108/287/7
f 23/292/7 136/296/7 135/293/7
f 23/292/7 24/291/7 136/296/7
f 24/291/7 107/289/7 136/296/7
f 107/289/7 160/297/7 136/296/7
f 160/297/7 107/289/7 115/298/7
f 115/298/7 118/200/7 160/297/7
f 161/300/1 122/299/1 124/301/1
f 124/301/1 147/302/1 161/300/1
f 157/304/20 156/303/20 132/305/20
f 132/305/20 133/306/20 157/304/20
f 102/184/5 57/58/5 151/239/5
f 151/239/5 118/307/5 102/184/5
f 151/239/5 160/241/5 118/307/5
f 154/309/19 162/308/19 150/310/19
f 150/310/19 149/311/19 154/309/19
f 156/313/2 140/312/2 131/314/2
f 131/314/2 132/315/2 156/313/2
f 152/228/3 158/227/3 51/229/3
f 51/229/3 46/230/3 152/228/3
f 152/228/3 153/231/3 158/227/3
f 46/230/3 121/234/3 152/228/3
f 121/234/3 161/232/3 152/228/3
f 121/234/3 122/233/3 161/232/3
f 46/230/3 155/235/3 121/234/3
f 46/230/3 154/236/3 155/235/3
f 46/230/3 162/237/3 154/236/3
f 59/283/7 60/284/7 157/316/7
f 157/316/7 133/317/7 59/283/7
f 56/319/10 58/318/10 125/248/10
f 125/248/10 142/249/10 56/319/10
f 155/282/10 148/281/10 123/317/10
f 123/317/10 121/316/10 155/282/10
f 119/321/21 159/320/21 135/322/21
f 135/322/21 120/323/21 119/321/21
f 47/57/5 106/185/5 117/324/5
f 117/324/5 119/238/5 47/57/5
f 117/324/5 159/240/5 119/238/5
f 161/282/10 147/281/10 144/317/10
f 144/317/10 152/316/10 161/282/10
f 150/246/7 162/247/7 46/319/7
f 46/319/7 49/318/7 150/246/7
f 136/326/22 160/325/22 151/327/22
f 151/327/22 134/328/22 136/326/22

usemtl _defaultMat
usemap _defaultMat

f 92/53/7 84/54/7 81/52/7
f 81/53/7 94/54/7 92/52/7
f 57/68/7 99/64/7 101/70/7
f 101/68/7 102/64/7 57/70/7
f 106/68/7 97/64/7 98/70/7
f 98/68/7 47/64/7 106/70/7
f 98/68/7 42/64/7 47/70/7
f 98/68/7 43/64/7 42/70/7
f 98/68/7 99/64/7 43/70/7
f 99/68/7 57/64/7 43/70/7
