# Exported using Kenney Suite 1.2 

mtllib monorailTrack_straight_exclusive.mtl 

g monorailTrack_straight_exclusive

v -4.440236 0.6572044 10 
v -5.559766 0.6572044 10 
v -4.440236 0.8571942 10 
v -5.559766 0.8571942 10 
v -6.031721 0.6572044 10 
v -3.968282 0.6572044 10 
v -6.031721 1.56779E-06 10 
v -3.968282 1.56779E-06 10 
v -6.031721 1.56779E-06 1.56779E-06 
v -6.031721 0.6572044 1.56779E-06 
v -6.031721 1.56779E-06 3.968872 
v -6.031721 1.56779E-06 4.503529 
v -6.031721 1.56779E-06 5.496474 
v -6.031721 1.56779E-06 6.031131 
v -3.968282 1.56779E-06 6.031131 
v -4.503253 1.56779E-06 6.031131 
v -4.503253 1.56779E-06 5.496474 
v -4.503253 1.56779E-06 4.503529 
v -4.503253 1.56779E-06 3.968872 
v -5.496749 1.56779E-06 6.031131 
v -5.496749 1.56779E-06 3.968872 
v -3.968282 1.56779E-06 1.56779E-06 
v -3.968282 1.56779E-06 3.968872 
v -5.496749 1.56779E-06 5.496474 
v -5.496749 1.56779E-06 4.503529 
v -3.968282 1.56779E-06 4.503529 
v -3.968282 1.56779E-06 5.496474 
v -3.968282 0.6572044 1.56779E-06 
v -5.559766 0.6572044 1.56779E-06 
v -4.440236 0.6572044 1.56779E-06 
v -5.559766 0.8571942 1.56779E-06 
v -4.440236 0.8571942 1.56779E-06 
v -5.630496 -3.361555 5.496474 
v -5.630496 -3.361555 4.503529 
v -5.897974 -3.361555 5.496474 
v -5.897974 -3.361555 4.503529 
v -4.102027 -0.5845183 4.503529 
v -4.102027 -0.5845183 5.496474 
v -4.369507 -0.5845183 4.503529 
v -4.369507 -0.5845183 5.496474 
v -5.630496 -3.130522 4.503529 
v -5.630496 -3.130522 5.496474 
v -5.630496 -0.5845183 4.503529 
v -5.630496 -0.8155512 4.503529 
v -5.630496 -0.5845183 5.496474 
v -5.630496 -0.8155512 5.496474 
v -4.503253 -0.5845183 5.897463 
v -5.496749 -0.5845183 5.897463 
v -4.503253 -0.5845183 5.630141 
v -5.496749 -0.5845183 5.630141 
v -4.503253 -0.8155512 4.369861 
v -5.496749 -0.8155512 4.369861 
v -4.503253 -0.5845183 4.369861 
v -5.496749 -0.5845183 4.369861 
v -4.503253 -0.8155512 4.102539 
v -5.496749 -0.8155512 4.102539 
v -5.897974 -3.130522 4.503529 
v -5.897974 -3.130522 5.496474 
v -5.897974 -0.8155512 4.503529 
v -5.897974 -0.5845183 4.503529 
v -5.897974 -0.8155512 5.496474 
v -5.897974 -0.5845183 5.496474 
v -4.102027 -0.8155512 5.496474 
v -4.102027 -0.8155512 4.503529 
v -4.369507 -0.8155512 5.496474 
v -4.369507 -0.8155512 4.503529 
v -4.503253 -3.130522 5.897463 
v -5.496749 -3.130522 5.897463 
v -4.503253 -3.130522 5.630141 
v -5.496749 -3.130522 5.630141 
v -6.031721 -3.752 5.496474 
v -6.031721 -3.752 6.031131 
v -4.503253 -3.752 3.968872 
v -3.968282 -3.752 3.968872 
v -5.496749 -3.752 5.496474 
v -5.496749 -3.752 6.031131 
v -4.503253 -0.5845183 4.102539 
v -5.496749 -0.5845183 4.102539 
v -4.102027 -3.130522 4.503529 
v -4.102027 -3.130522 5.496474 
v -4.369507 -3.130522 4.503529 
v -4.369507 -3.130522 5.496474 
v -5.496749 -3.361555 4.102539 
v -4.503253 -3.361555 4.102539 
v -5.496749 -3.130522 4.102539 
v -4.503253 -3.130522 4.102539 
v -4.369507 -3.361555 4.503529 
v -4.369507 -3.361555 5.496474 
v -4.503253 -3.752 4.503529 
v -4.503253 -3.361555 4.369861 
v -4.503253 -3.130522 4.369861 
v -5.496749 -3.752 3.968872 
v -5.496749 -3.130522 4.369861 
v -5.496749 -3.361555 4.369861 
v -5.496749 -3.752 4.503529 
v -4.102027 -3.361555 4.503529 
v -3.968282 -3.752 4.503529 
v -6.031721 -3.752 3.968872 
v -3.968282 -3.752 6.031131 
v -3.968282 -3.752 5.496474 
v -4.503253 -3.752 6.031131 
v -4.503253 -3.752 5.496474 
v -6.031721 -3.752 4.503529 
v -5.496749 -0.8155512 5.897463 
v -5.496749 -3.361555 5.897463 
v -5.496749 -3.361555 5.630141 
v -5.496749 -0.8155512 5.630141 
v -4.503253 -3.361555 5.897463 
v -4.503253 -3.361555 5.630141 
v -4.503253 -0.8155512 5.897463 
v -4.503253 -0.8155512 5.630141 
v -4.102027 -3.361555 5.496474 

vn -0.003921569 0.003921569 0.9999846
vn -0.9999924 0.003921539 0
vn -0.003921539 -0.9999924 0
vn 0.9999924 0.003921539 0
vn -0.003921569 0.003921569 -0.9999846
vn -0.003921539 0.9999924 0

vt -17.48123 2.5874
vt -21.88884 2.5874
vt -17.48123 3.374801
vt -21.88884 3.374801
vt -23.74691 2.5874
vt -15.62316 2.5874
vt -23.74691 4.69328E-06
vt -15.62316 4.69328E-06
vt 4.69328E-06 4.69328E-06
vt 4.69328E-06 2.5874
vt 15.62548 4.69328E-06
vt 39.37008 2.5874
vt 17.73044 4.69328E-06
vt 21.63965 4.69328E-06
vt 23.7446 4.69328E-06
vt 39.37008 4.69328E-06
vt -15.62316 23.7446
vt -17.72932 23.7446
vt -15.62316 39.37008
vt -23.74691 39.37008
vt -17.72932 21.63965
vt -17.72932 17.73044
vt -17.72932 15.62548
vt -21.64075 23.7446
vt -23.74691 23.7446
vt -21.64075 15.62548
vt -15.62316 15.62548
vt -21.64075 21.63965
vt -21.64075 17.73044
vt -23.74691 21.63965
vt -23.74691 17.73044
vt -23.74691 15.62548
vt -15.62316 17.73044
vt -15.62316 21.63965
vt -39.37008 2.5874
vt -15.62547 4.69328E-06
vt -17.73043 4.69328E-06
vt -21.63965 4.69328E-06
vt -23.7446 4.69328E-06
vt -39.37008 4.69328E-06
vt 21.88884 2.5874
vt 17.48124 2.5874
vt 21.88884 3.374801
vt 17.48124 3.374801
vt 15.62317 2.5874
vt 23.74691 2.5874
vt 15.62317 4.69328E-06
vt 23.74691 4.69328E-06
vt 17.48124 4.69328E-06
vt 17.48124 39.37008
vt 21.88884 4.69328E-06
vt 21.88884 39.37008
vt 4.69328E-06 3.374801
vt -39.37008 3.374801
vt 39.37008 3.374801
vt -22.16729 21.63965
vt -22.16729 17.73044
vt -23.22037 21.63965
vt -23.22037 17.73044
vt 16.14971 17.73044
vt 16.14971 21.63965
vt 17.20279 17.73044
vt 17.20279 21.63965
vt -17.73043 -12.32488
vt -17.73043 -13.23447
vt -21.63965 -12.32488
vt -21.63965 -13.23447
vt -17.73043 -2.301251
vt -17.73043 -3.210856
vt -21.63965 -2.301251
vt -21.63965 -3.210856
vt 17.72933 23.21837
vt 21.64075 23.21837
vt 17.72933 22.16589
vt 21.64075 22.16589
vt -17.72932 -3.210856
vt -21.64075 -3.210856
vt -17.72932 -2.301251
vt -21.64075 -2.301251
vt -17.72932 17.2042
vt -17.72932 16.15171
vt -21.64075 17.2042
vt -21.64075 16.15171
vt 17.73044 -13.23447
vt 17.73044 -12.32488
vt 21.63965 -13.23447
vt 21.63965 -12.32488
vt 17.73044 -3.210856
vt 17.73044 -2.301251
vt 21.63965 -3.210856
vt 21.63965 -2.301251
vt -16.1497 21.63965
vt -16.1497 17.73044
vt -17.20278 21.63965
vt -17.20278 17.73044
vt 22.16729 17.73044
vt 22.16729 21.63965
vt 23.22037 17.73044
vt 23.22037 21.63965
vt 21.63965 -14.77165
vt 23.7446 -14.77165
vt 17.72933 -14.77165
vt 15.62317 -14.77165
vt 17.72933 4.69328E-06
vt 21.64075 -14.77165
vt 23.22037 -13.23447
vt 23.74691 -14.77165
vt 23.22037 -12.32488
vt 22.16729 -12.32488
vt 23.22037 -3.210856
vt 23.22037 -2.301251
vt 22.16729 -2.301251
vt 22.16729 -13.23447
vt 21.64075 4.69328E-06
vt 22.16729 -3.210856
vt 17.72933 17.2042
vt 21.64075 17.2042
vt 17.72933 16.15171
vt 21.64075 16.15171
vt 21.64075 -13.23447
vt 17.72933 -13.23447
vt 21.64075 -12.32488
vt 17.72933 -12.32488
vt 16.15171 -13.23447
vt 15.62548 -14.77165
vt 17.73044 -14.77165
vt 17.2042 -13.23447
vt 17.2042 -12.32488
vt 17.2042 -3.210856
vt 17.2042 -2.301251
vt 16.15171 -2.301251
vt 16.15171 -12.32488
vt 16.15171 -3.210856
vt -15.62547 -14.77165
vt -16.15171 -2.301251
vt -17.20419 -2.301251
vt -17.20419 -3.210856
vt -17.20419 -12.32488
vt -17.20419 -13.23447
vt -16.15171 -13.23447
vt -17.73043 -14.77165
vt -16.15171 -3.210856
vt -16.15171 -12.32488
vt -17.72932 -14.77165
vt -16.1497 -13.23447
vt -15.62316 -14.77165
vt -16.1497 -12.32488
vt -17.20278 -12.32488
vt -16.1497 -3.210856
vt -16.1497 -2.301251
vt -17.20278 -2.301251
vt -17.20278 -13.23447
vt -17.72932 4.69328E-06
vt -17.20278 -3.210856
vt -17.72932 -13.23447
vt -21.64075 -13.23447
vt -17.72932 -12.32488
vt -21.64075 -12.32488
vt 21.64075 -3.210856
vt 17.72933 -3.210856
vt 21.64075 -2.301251
vt 17.72933 -2.301251
vt -23.74691 -14.77165
vt -22.16729 -13.23447
vt -21.64075 -14.77165
vt -21.64075 4.69328E-06
vt -22.16729 -12.32488
vt -23.22037 -12.32488
vt -22.16729 -3.210856
vt -22.16729 -2.301251
vt -23.22037 -2.301251
vt -23.22037 -13.23447
vt -23.22037 -3.210856
vt -21.63965 -14.77165
vt -22.16589 -2.301251
vt -23.21836 -2.301251
vt -23.21836 -3.210856
vt -23.21836 -12.32488
vt -23.21836 -13.23447
vt -22.16589 -13.23447
vt -23.7446 -14.77165
vt -22.16589 -3.210856
vt -22.16589 -12.32488
vt -17.72932 23.21837
vt -17.72932 22.16589
vt -21.64075 23.21837
vt -21.64075 22.16589
vt 17.20279 -13.23447
vt 17.20279 -12.32488
vt 16.14971 -12.32488
vt 17.20279 -3.210856
vt 17.20279 -2.301251
vt 16.14971 -2.301251
vt 16.14971 -13.23447
vt 16.14971 -3.210856
vt 22.16589 -13.23447
vt 23.21837 -13.23447
vt 23.21837 -12.32488
vt 23.21837 -3.210856
vt 23.21837 -2.301251
vt 22.16589 -2.301251
vt 22.16589 -12.32488
vt 22.16589 -3.210856

usemtl pipe
usemap pipe

f 2/2/1 1/1/1 3/3/1
f 3/3/1 4/4/1 2/2/1
f 1/1/1 2/2/1 5/5/1
f 6/6/1 1/1/1 5/5/1
f 6/6/1 5/5/1 7/7/1
f 7/7/1 8/8/1 6/6/1
f 10/10/2 9/9/2 11/11/2
f 11/11/2 5/12/2 10/10/2
f 11/11/2 12/13/2 5/12/2
f 12/13/2 13/14/2 5/12/2
f 13/14/2 14/15/2 5/12/2
f 14/15/2 7/16/2 5/12/2
f 16/18/3 15/17/3 8/19/3
f 8/19/3 7/20/3 16/18/3
f 7/20/3 17/21/3 16/18/3
f 7/20/3 18/22/3 17/21/3
f 7/20/3 19/23/3 18/22/3
f 7/20/3 20/24/3 19/23/3
f 7/20/3 14/25/3 20/24/3
f 19/23/3 20/24/3 21/26/3
f 19/23/3 21/26/3 9/7/3
f 19/23/3 9/7/3 22/8/3
f 22/8/3 23/27/3 19/23/3
f 20/24/3 24/28/3 21/26/3
f 24/28/3 25/29/3 21/26/3
f 25/29/3 24/28/3 13/30/3
f 13/30/3 12/31/3 25/29/3
f 21/26/3 11/32/3 9/7/3
f 17/21/3 18/22/3 26/33/3
f 26/33/3 27/34/3 17/21/3
f 22/9/4 28/10/4 6/35/4
f 6/35/4 23/36/4 22/9/4
f 6/35/4 26/37/4 23/36/4
f 6/35/4 27/38/4 26/37/4
f 6/35/4 15/39/4 27/38/4
f 6/35/4 8/40/4 15/39/4
f 30/42/5 29/41/5 31/43/5
f 31/43/5 32/44/5 30/42/5
f 29/41/5 30/42/5 28/45/5
f 10/46/5 29/41/5 28/45/5
f 10/46/5 28/45/5 22/47/5
f 22/47/5 9/48/5 10/46/5
f 3/50/6 32/49/6 31/51/6
f 31/51/6 4/52/6 3/50/6
f 30/10/4 32/53/4 3/54/4
f 3/54/4 1/35/4 30/10/4
f 31/53/2 29/10/2 2/12/2
f 2/12/2 4/55/2 31/53/2

usemtl _defaultMat
usemap _defaultMat

f 2/15/6 29/16/6 10/12/6
f 10/15/6 5/16/6 2/12/6
f 6/41/6 28/42/6 30/45/6
f 30/41/6 1/42/6 6/45/6

usemtl glass
usemap glass

f 34/57/3 33/56/3 35/58/3
f 35/58/3 36/59/3 34/57/3
f 38/61/6 37/60/6 39/62/6
f 39/62/6 40/63/6 38/61/6
f 34/65/4 41/64/4 42/66/4
f 42/66/4 33/67/4 34/65/4
f 44/69/4 43/68/4 45/70/4
f 45/70/4 46/71/4 44/69/4
f 48/73/6 47/72/6 49/74/6
f 49/74/6 50/75/6 48/73/6
f 52/77/1 51/76/1 53/78/1
f 53/78/1 54/79/1 52/77/1
f 55/81/3 51/80/3 52/82/3
f 52/82/3 56/83/3 55/81/3
f 57/85/2 36/84/2 35/86/2
f 35/86/2 58/87/2 57/85/2
f 60/89/2 59/88/2 61/90/2
f 61/90/2 62/91/2 60/89/2
f 64/93/3 63/92/3 65/94/3
f 65/94/3 66/95/3 64/93/3
f 42/97/6 41/96/6 57/98/6
f 57/98/6 58/99/6 42/97/6
f 64/69/4 37/68/4 38/70/4
f 38/70/4 63/71/4 64/69/4
f 39/89/2 66/88/2 65/90/2
f 65/90/2 40/91/2 39/89/2
f 21/26/3 25/29/3 12/31/3
f 12/31/3 11/32/3 21/26/3
f 68/73/6 67/72/6 69/74/6
f 69/74/6 70/75/6 68/73/6
f 13/14/2 71/100/2 72/101/2
f 72/101/2 14/15/2 13/14/2
f 74/103/5 73/102/5 19/104/5
f 19/104/5 23/47/5 74/103/5
f 35/106/5 75/105/5 71/107/5
f 71/107/5 13/48/5 35/106/5
f 13/48/5 58/108/5 35/106/5
f 13/48/5 42/109/5 58/108/5
f 13/48/5 61/110/5 42/109/5
f 13/48/5 62/111/5 61/110/5
f 13/48/5 45/112/5 62/111/5
f 75/105/5 35/106/5 33/113/5
f 33/113/5 24/114/5 75/105/5
f 33/113/5 42/109/5 24/114/5
f 45/112/5 13/48/5 24/114/5
f 42/109/5 46/115/5 24/114/5
f 42/109/5 61/110/5 46/115/5
f 46/115/5 45/112/5 24/114/5
f 27/34/3 15/17/3 16/18/3
f 16/18/3 17/21/3 27/34/3
f 75/28/3 76/24/3 72/25/3
f 72/25/3 71/30/3 75/28/3
f 54/117/6 53/116/6 77/118/6
f 77/118/6 78/119/6 54/117/6
f 23/27/3 26/33/3 18/22/3
f 18/22/3 19/23/3 23/27/3
f 80/61/6 79/60/6 81/62/6
f 81/62/6 82/63/6 80/61/6
f 84/121/5 83/120/5 85/122/5
f 85/122/5 86/123/5 84/121/5
f 81/85/2 87/84/2 88/86/2
f 88/86/2 82/87/2 81/85/2
f 84/124/2 19/11/2 73/125/2
f 73/125/2 89/126/2 84/124/2
f 89/126/2 90/127/2 84/124/2
f 89/126/2 91/128/2 90/127/2
f 89/126/2 51/129/2 91/128/2
f 89/126/2 53/130/2 51/129/2
f 19/11/2 84/124/2 77/131/2
f 77/131/2 18/13/2 19/11/2
f 77/131/2 53/130/2 18/13/2
f 53/130/2 89/126/2 18/13/2
f 84/124/2 86/132/2 77/131/2
f 86/132/2 55/133/2 77/131/2
f 55/133/2 86/132/2 91/128/2
f 91/128/2 51/129/2 55/133/2
f 78/135/4 92/134/4 21/36/4
f 21/36/4 25/37/4 78/135/4
f 25/37/4 54/136/4 78/135/4
f 25/37/4 52/137/4 54/136/4
f 25/37/4 93/138/4 52/137/4
f 25/37/4 94/139/4 93/138/4
f 92/134/4 78/135/4 83/140/4
f 83/140/4 95/141/4 92/134/4
f 83/140/4 94/139/4 95/141/4
f 94/139/4 25/37/4 95/141/4
f 78/135/4 56/142/4 83/140/4
f 56/142/4 85/143/4 83/140/4
f 85/143/4 56/142/4 52/137/4
f 52/137/4 93/138/4 85/143/4
f 96/145/1 89/144/1 97/146/1
f 97/146/1 26/8/1 96/145/1
f 26/8/1 79/147/1 96/145/1
f 26/8/1 81/148/1 79/147/1
f 26/8/1 64/149/1 81/148/1
f 26/8/1 37/150/1 64/149/1
f 26/8/1 39/151/1 37/150/1
f 89/144/1 96/145/1 87/152/1
f 87/152/1 18/153/1 89/144/1
f 87/152/1 81/148/1 18/153/1
f 39/151/1 26/8/1 18/153/1
f 81/148/1 66/154/1 18/153/1
f 81/148/1 64/149/1 66/154/1
f 66/154/1 39/151/1 18/153/1
f 94/156/1 90/155/1 91/157/1
f 91/157/1 93/158/1 94/156/1
f 92/105/5 98/107/5 11/48/5
f 11/48/5 21/114/5 92/105/5
f 84/81/3 90/80/3 94/82/3
f 94/82/3 83/83/3 84/81/3
f 74/27/3 97/33/3 89/22/3
f 89/22/3 73/23/3 74/27/3
f 24/28/3 20/24/3 14/25/3
f 14/25/3 13/30/3 24/28/3
f 100/34/3 99/17/3 101/18/3
f 101/18/3 102/21/3 100/34/3
f 55/160/5 56/159/5 78/161/5
f 78/161/5 77/162/5 55/160/5
f 44/57/3 46/56/3 61/58/3
f 61/58/3 59/59/3 44/57/3
f 74/134/4 23/36/4 26/37/4
f 26/37/4 97/141/4 74/134/4
f 34/164/1 103/163/1 95/165/1
f 95/165/1 25/166/1 34/164/1
f 25/166/1 41/167/1 34/164/1
f 25/166/1 57/168/1 41/167/1
f 25/166/1 44/169/1 57/168/1
f 25/166/1 43/170/1 44/169/1
f 25/166/1 60/171/1 43/170/1
f 103/163/1 34/164/1 36/172/1
f 36/172/1 12/7/1 103/163/1
f 36/172/1 57/168/1 12/7/1
f 60/171/1 25/166/1 12/7/1
f 57/168/1 59/173/1 12/7/1
f 57/168/1 44/169/1 59/173/1
f 59/173/1 60/171/1 12/7/1
f 50/175/4 75/174/4 24/38/4
f 24/38/4 20/39/4 50/175/4
f 20/39/4 48/176/4 50/175/4
f 20/39/4 104/177/4 48/176/4
f 20/39/4 68/178/4 104/177/4
f 20/39/4 105/179/4 68/178/4
f 75/174/4 50/175/4 106/180/4
f 106/180/4 76/181/4 75/174/4
f 106/180/4 105/179/4 76/181/4
f 105/179/4 20/39/4 76/181/4
f 50/175/4 107/182/4 106/180/4
f 107/182/4 70/183/4 106/180/4
f 70/183/4 107/182/4 104/177/4
f 104/177/4 68/178/4 70/183/4
f 109/185/3 108/184/3 105/186/3
f 105/186/3 106/187/3 109/185/3
f 11/11/2 98/125/2 103/126/2
f 103/126/2 12/13/2 11/11/2
f 45/97/6 43/96/6 60/98/6
f 60/98/6 62/99/6 45/97/6
f 111/185/3 110/184/3 104/186/3
f 104/186/3 107/187/3 111/185/3
f 93/117/6 91/116/6 86/118/6
f 86/118/6 85/119/6 93/117/6
f 88/188/5 100/103/5 102/102/5
f 102/102/5 17/104/5 88/188/5
f 17/104/5 82/189/5 88/188/5
f 17/104/5 80/190/5 82/189/5
f 17/104/5 65/191/5 80/190/5
f 17/104/5 40/192/5 65/191/5
f 17/104/5 38/193/5 40/192/5
f 100/103/5 88/188/5 112/194/5
f 112/194/5 27/47/5 100/103/5
f 112/194/5 80/190/5 27/47/5
f 38/193/5 17/104/5 27/47/5
f 80/190/5 63/195/5 27/47/5
f 80/190/5 65/191/5 63/195/5
f 63/195/5 38/193/5 27/47/5
f 111/160/5 107/159/5 50/161/5
f 50/161/5 49/162/5 111/160/5
f 96/93/3 112/92/3 88/94/3
f 88/94/3 87/95/3 96/93/3
f 104/77/1 110/76/1 47/78/1
f 47/78/1 48/79/1 104/77/1
f 96/65/4 79/64/4 80/66/4
f 80/66/4 112/67/4 96/65/4
f 105/156/1 108/155/1 67/157/1
f 67/157/1 68/158/1 105/156/1
f 72/163/1 76/165/1 20/166/1
f 20/166/1 14/7/1 72/163/1
f 92/26/3 95/29/3 103/31/3
f 103/31/3 98/32/3 92/26/3
f 101/144/1 99/146/1 15/8/1
f 15/8/1 16/153/1 101/144/1
f 100/174/4 27/38/4 15/39/4
f 15/39/4 99/181/4 100/174/4
f 109/121/5 106/120/5 70/122/5
f 70/122/5 69/123/5 109/121/5
f 109/196/2 17/14/2 102/100/2
f 102/100/2 101/101/2 109/196/2
f 101/101/2 108/197/2 109/196/2
f 101/101/2 67/198/2 108/197/2
f 101/101/2 110/199/2 67/198/2
f 101/101/2 47/200/2 110/199/2
f 17/14/2 109/196/2 49/201/2
f 49/201/2 16/15/2 17/14/2
f 49/201/2 47/200/2 16/15/2
f 47/200/2 101/101/2 16/15/2
f 109/196/2 69/202/2 49/201/2
f 69/202/2 111/203/2 49/201/2
f 111/203/2 69/202/2 67/198/2
f 67/198/2 110/199/2 111/203/2
