# Exported using Kenney Suite 1.2 

mtllib monorailSupportCorner_exclusive.mtl 

g monorailSupportCorner_exclusive

v -1.662208 0.3904449 1.5276 
v -1.662208 0.3904449 0.5346605 
v -1.92969 0.3904449 1.5276 
v -1.92969 0.3904449 0.5346605 
v -1.662208 0.6214814 0.5346605 
v -1.662208 0.6214814 1.5276 
v -1.92969 0.6214814 0.5346605 
v -1.92969 0.6214814 1.5276 
v -1.92969 2.936445 0.5346605 
v -1.92969 3.167481 0.5346605 
v -1.92969 2.936445 1.5276 
v -1.92969 3.167481 1.5276 
v -1.662208 3.167481 0.5346605 
v -1.662208 2.936445 0.5346605 
v -1.662208 3.167481 1.5276 
v -1.662208 2.936445 1.5276 
v -0.5349639 2.936445 0.4009954 
v -1.528466 2.936445 0.4009954 
v -0.5349639 3.167481 0.4009954 
v -1.528466 3.167481 0.4009954 
v -0.5349639 2.936445 0.1336651 
v -1.528466 2.936445 0.1336651 
v -0.5349639 3.167481 0.1336651 
v -1.528466 3.167481 0.1336651 
v -0.5349639 0 0 
v 0 0 0 
v -0.5349639 3.752 0 
v 0 3.752 0 
v -1.528466 0 0 
v -1.528466 3.752 0 
v -1.528466 3.752 0.5346605 
v -1.528466 0.6214814 0.4009954 
v -1.528466 0.3904449 0.4009954 
v -1.528466 0.3904449 0.1336651 
v -1.528466 0 0.5346605 
v -1.528466 0.6214814 0.1336651 
v -2.063431 0 0 
v -2.063431 3.752 0 
v -2.063431 0 0.5346605 
v -2.063431 3.752 0.5346605 
v 0 3.752 0.5346605 
v 0 0 0.5346605 
v -0.5349639 0 0.5346605 
v -0.5349639 3.752 0.5346605 
v -0.5349639 0.3904449 0.1336651 
v -0.5349639 0.3904449 0.4009954 
v -0.5349639 0.6214814 0.4009954 
v -0.5349639 0.6214814 0.1336651 
v -2.063431 0 1.5276 
v -2.063431 3.752 1.5276 
v -2.063431 0 2.06226 
v -2.063431 3.752 2.06226 
v -1.528466 3.752 1.5276 
v -1.528466 0 1.5276 
v -1.528466 3.752 2.06226 
v -1.528466 0 2.06226 

vn -0.003921539 -0.9999924 0
vn -0.003921539 0.9999924 0
vn 0.9999924 0.003921539 0
vn -0.9999924 0.003921539 0
vn -0.003921569 0.003921569 0.9999846
vn -0.003921569 0.003921569 -0.9999846

vt -8.562994 7.874014
vt -8.562994 2.755904
vt -9.940946 7.874014
vt -9.940946 2.755904
vt 8.56299 2.755904
vt 8.56299 7.874014
vt 9.940942 2.755904
vt 9.940942 7.874014
vt -2.755908 3.651906
vt -2.755908 2.294297
vt -7.874019 3.651906
vt -7.874019 2.294297
vt 2.755904 2.294297
vt 2.755904 3.651906
vt 7.874014 2.294297
vt 7.874014 3.651906
vt 2.755904 17.25492
vt 2.755904 18.61253
vt 7.874014 17.25492
vt 7.874014 18.61253
vt -2.755908 18.61253
vt -2.755908 17.25492
vt -7.874019 18.61253
vt -7.874019 17.25492
vt -2.755908 2.066929
vt -2.755908 0.6889775
vt -7.874019 2.066929
vt -7.874019 0.6889775
vt 2.755904 2.066929
vt 7.874014 2.066929
vt 2.755904 0.6889775
vt 7.874014 0.6889775
vt 2.755904 1.913546E-06
vt 1.913546E-06 1.913546E-06
vt 2.755904 22.04725
vt 1.913546E-06 22.04725
vt -0.6889737 18.61253
vt -2.755908 22.04725
vt -2.066925 18.61253
vt -2.066925 17.25492
vt -2.066925 3.651906
vt -2.066925 2.294297
vt -0.6889737 2.294297
vt -2.755908 1.913546E-06
vt -0.6889737 17.25492
vt -0.6889737 3.651906
vt 0.6889775 2.294297
vt 2.066929 2.294297
vt 2.066929 3.651906
vt 2.066929 17.25492
vt 2.066929 18.61253
vt 0.6889775 18.61253
vt 0.6889775 3.651906
vt 0.6889775 17.25492
vt 7.874014 1.913546E-06
vt 7.874014 2.755904
vt 10.62992 1.913546E-06
vt 10.62992 2.755904
vt 10.62992 22.04725
vt 7.874014 22.04725
vt -10.62992 1.913546E-06
vt -8.562994 2.294297
vt -7.874019 1.913546E-06
vt -7.874019 22.04725
vt -8.562994 3.651906
vt -9.940946 3.651906
vt -8.562994 17.25492
vt -8.562994 18.61253
vt -9.940946 18.61253
vt -9.940946 2.294297
vt -10.62992 22.04725
vt -9.940946 17.25492
vt 1.913546E-06 2.755904
vt 2.755904 2.755904
vt -2.755908 2.755904
vt 9.940942 2.294297
vt 9.940942 3.651906
vt 8.56299 3.651906
vt 9.940942 17.25492
vt 9.940942 18.61253
vt 8.56299 18.61253
vt 8.56299 2.294297
vt 8.56299 17.25492
vt 7.874014 7.874014
vt 7.874014 10.62992
vt 10.62992 7.874014
vt 10.62992 10.62992
vt -7.874019 2.755904
vt -10.62992 2.755904
vt -7.874019 10.62992
vt -7.874019 7.874014
vt -10.62992 10.62992
vt -10.62992 7.874014

usemtl glass
usemap glass

f 2/2/1 1/1/1 3/3/1
f 3/3/1 4/4/1 2/2/1
f 6/6/2 5/5/2 7/7/2
f 7/7/2 8/8/2 6/6/2
f 2/10/3 5/9/3 6/11/3
f 6/11/3 1/12/3 2/10/3
f 7/14/4 4/13/4 3/15/4
f 3/15/4 8/16/4 7/14/4
f 10/18/4 9/17/4 11/19/4
f 11/19/4 12/20/4 10/18/4
f 14/22/3 13/21/3 15/23/3
f 15/23/3 16/24/3 14/22/3
f 18/24/5 17/22/5 19/21/5
f 19/21/5 20/23/5 18/24/5
f 21/26/1 17/25/1 18/27/1
f 18/27/1 22/28/1 21/26/1
f 20/30/2 19/29/2 23/31/2
f 23/31/2 24/32/2 20/30/2
f 21/17/6 22/19/6 24/20/6
f 24/20/6 23/18/6 21/17/6
f 14/2/1 16/1/1 11/3/1
f 11/3/1 9/4/1 14/2/1
f 15/6/2 13/5/2 10/7/2
f 10/7/2 12/8/2 15/6/2
f 26/34/6 25/33/6 27/35/6
f 27/35/6 28/36/6 26/34/6
f 24/37/3 29/34/3 30/36/3
f 30/36/3 31/38/3 24/37/3
f 31/38/3 20/39/3 24/37/3
f 31/38/3 18/40/3 20/39/3
f 31/38/3 32/41/3 18/40/3
f 31/38/3 33/42/3 32/41/3
f 29/34/3 24/37/3 34/43/3
f 34/43/3 35/44/3 29/34/3
f 34/43/3 33/42/3 35/44/3
f 33/42/3 31/38/3 35/44/3
f 24/37/3 22/45/3 34/43/3
f 22/45/3 36/46/3 34/43/3
f 36/46/3 22/45/3 18/40/3
f 18/40/3 32/41/3 36/46/3
f 38/36/4 37/34/4 39/33/4
f 39/33/4 40/35/4 38/36/4
f 26/34/3 28/36/3 41/38/3
f 41/38/3 42/44/3 26/34/3
f 43/44/5 42/34/5 41/36/5
f 41/36/5 44/38/5 43/44/5
f 45/47/4 27/36/4 25/34/4
f 25/34/4 43/33/4 45/47/4
f 43/33/4 46/48/4 45/47/4
f 43/33/4 47/49/4 46/48/4
f 43/33/4 17/50/4 47/49/4
f 43/33/4 19/51/4 17/50/4
f 27/36/4 45/47/4 23/52/4
f 23/52/4 44/35/4 27/36/4
f 23/52/4 19/51/4 44/35/4
f 19/51/4 43/33/4 44/35/4
f 45/47/4 48/53/4 23/52/4
f 48/53/4 21/54/4 23/52/4
f 21/54/4 48/53/4 47/49/4
f 47/49/4 17/50/4 21/54/4
f 31/56/2 30/55/2 38/57/2
f 38/57/2 40/58/2 31/56/2
f 29/55/6 37/57/6 38/59/6
f 38/59/6 30/60/6 29/55/6
f 2/62/5 39/61/5 35/63/5
f 35/63/5 31/64/5 2/62/5
f 31/64/5 5/65/5 2/62/5
f 31/64/5 7/66/5 5/65/5
f 31/64/5 14/67/5 7/66/5
f 31/64/5 13/68/5 14/67/5
f 31/64/5 10/69/5 13/68/5
f 39/61/5 2/62/5 4/70/5
f 4/70/5 40/71/5 39/61/5
f 4/70/5 7/66/5 40/71/5
f 10/69/5 31/64/5 40/71/5
f 7/66/5 9/72/5 40/71/5
f 7/66/5 14/67/5 9/72/5
f 9/72/5 10/69/5 40/71/5
f 41/73/2 28/34/2 27/33/2
f 27/33/2 44/74/2 41/73/2
f 33/12/5 46/10/5 47/9/5
f 47/9/5 32/11/5 33/12/5
f 45/26/1 46/25/1 33/27/1
f 33/27/1 34/28/1 45/26/1
f 45/13/6 34/15/6 36/16/6
f 36/16/6 48/14/6 45/13/6
f 32/30/2 47/29/2 48/31/2
f 48/31/2 36/32/2 32/30/2
f 26/34/1 42/73/1 43/75/1
f 43/75/1 25/44/1 26/34/1
f 50/60/4 49/55/4 51/57/4
f 51/57/4 52/59/4 50/60/4
f 54/63/3 53/64/3 55/71/3
f 55/71/3 56/61/3 54/63/3
f 3/76/6 54/55/6 49/57/6
f 49/57/6 50/59/6 3/76/6
f 50/59/6 8/77/6 3/76/6
f 50/59/6 6/78/6 8/77/6
f 50/59/6 11/79/6 6/78/6
f 50/59/6 12/80/6 11/79/6
f 50/59/6 15/81/6 12/80/6
f 54/55/6 3/76/6 1/82/6
f 1/82/6 53/60/6 54/55/6
f 1/82/6 6/78/6 53/60/6
f 15/81/6 50/59/6 53/60/6
f 6/78/6 16/83/6 53/60/6
f 6/78/6 11/79/6 16/83/6
f 16/83/6 15/81/6 53/60/6
f 51/61/5 56/63/5 55/64/5
f 55/64/5 52/71/5 51/61/5
f 55/85/2 53/84/2 50/86/2
f 50/86/2 52/87/2 55/85/2
f 29/63/1 35/88/1 39/89/1
f 39/89/1 37/61/1 29/63/1
f 54/91/1 56/90/1 51/92/1
f 51/92/1 49/93/1 54/91/1
