# Exported using Kenney Suite 1.2 

mtllib monorailTrain_flat_exclusive.mtl 

g monorailTrain_flat_exclusive

v -1.231713 -1.061933 -5.89886 
v -1.231713 -0.5445447 -5.427354 
v -1.231713 -1.061933 -1.327363 
v -1.231713 -0.5445447 -1.327363 
v -1.231713 -1.061933 -0.2136774 
v -1.231713 -0.5445447 -0.2136774 
v -1.231713 -1.061933 5.654071 
v -1.231713 -0.5445447 5.086324 
v 1.231713 -0.5445447 -0.2136774 
v 1.231713 -1.061933 -0.2136774 
v 1.231713 -0.5445447 5.086324 
v 1.231713 -1.061933 5.654071 
v 1.231713 -1.061933 -5.89886 
v 1.231713 -1.061933 -1.327363 
v 1.231713 -0.5445447 -5.427354 
v 1.231713 -0.5445447 -1.327363 
v 0.8113891 0.8000045 -7.2 
v 2.03171 0.8000045 -7.2 
v 0.8113891 1.200003 -7.2 
v 1.383873 1.200003 -7.2 
v 2.03171 1.300007 -7.2 
v 1.383873 1.300007 -7.2 
v -2.03171 0.8000045 -7.2 
v -2.03171 1.300007 -7.2 
v -2.03171 0.8000045 6.500005 
v -2.03171 1.300007 6.500005 
v 2.03171 1.300007 6.500005 
v 2.03171 0.8000045 6.500005 
v 1.383873 1.300007 6.500005 
v -1.383873 1.300007 -7.2 
v -1.383873 1.300007 6.500005 
v -1.383873 1.200003 -7.2 
v -1.383873 1.200003 6.500005 
v 1.383873 1.200003 6.500005 
v 0.8113891 1.200003 -6.368361 
v 0.8113891 1.200003 6.885378 
v -0.8113891 1.200003 -6.368361 
v 0.8113891 1.200003 7.042689 
v -0.8113891 1.200003 7.042689 
v -0.8113891 1.200003 6.885378 
v 0.8113891 0.8000045 -6.784181 
v -0.8113891 0.8000045 -7.2 
v -0.8113891 0.8000045 -6.784181 
v -0.8113891 1.200003 -7.2 
v -0.8113891 0.9999971 -6.368361 
v 0.8113891 0.9999971 -6.368361 
v -1.383873 0.8000045 6.500005 
v -1.383873 0.8000045 7.2 
v -2.03171 0.8000045 7.2 
v 1.383873 0.8000045 6.500005 
v 2.03171 0.8000045 7.2 
v 1.383873 0.8000045 7.2 
v 0.8113891 0.9999971 6.885378 
v 0.8113891 0.9999971 7.2 
v -0.8113891 0.9999971 6.885378 
v -0.8113891 0.9999971 7.2 
v -1.431719 -0.5445447 5.086324 
v -1.431719 -0.5445447 -0.2136774 
v -1.431719 -1.061933 -0.2136774 
v -1.431719 -1.061933 -1.327363 
v -1.431719 -0.5445447 -1.327363 
v -1.431719 -1.061933 5.654071 
v -1.431719 -0.5445447 -5.427354 
v -1.431719 -1.061933 -5.89886 
v 1.431719 -1.061933 -1.327363 
v 1.431719 -0.5445447 -1.327363 
v 1.431719 -0.5445447 5.086324 
v 1.431719 -0.5445447 -0.2136774 
v 1.431719 -1.061933 5.654071 
v 1.431719 -0.5445447 -5.427354 
v 1.431719 -1.061933 -0.2136774 
v 1.431719 -1.061933 -5.89886 
v 1.03172 -1.061933 -7.2 
v 1.03172 6.866462E-06 -7.2 
v 1.03172 -1.061933 -3.23113 
v 1.03172 6.866462E-06 7.2 
v 1.03172 -1.061933 -2.696466 
v 1.03172 -1.061933 -1.703535 
v 1.03172 -1.061933 7.2 
v 1.431719 -1.061933 -7.2 
v 1.431719 0.4000057 -7.2 
v 1.431719 0.4000057 7.2 
v 1.431719 -1.061933 7.2 
v -1.03172 6.866462E-06 7.2 
v -1.03172 6.866462E-06 -7.2 
v -1.03172 -1.061933 -7.2 
v -1.03172 -1.061933 -3.23113 
v -1.03172 -1.061933 -2.696466 
v -1.03172 -1.061933 -1.703535 
v -1.03172 -1.061933 7.2 
v -1.431719 -1.061933 7.2 
v -1.431719 -1.061933 -7.2 
v 2.03171 0.4000057 7.2 
v 2.03171 0.4000057 -7.2 
v -1.431719 0.4000057 7.2 
v -1.431719 0.4000057 -7.2 
v -2.03171 0.4000057 7.2 
v -2.03171 0.4000057 -7.2 
v 1.383873 1.200003 6.885378 
v -1.383873 0.9999971 7.2 
v 1.383873 0.9999971 7.2 
v -1.383873 0.9999971 6.885378 
v -1.383873 1.200003 6.885378 
v 1.383873 0.9999971 6.885378 

vn -0.9999924 0.003921539 0
vn 0.9999924 0.003921539 0
vn -0.003921569 0.003921569 -0.9999846
vn -0.003921539 0.9999924 0
vn -0.003921569 0.8980392 -0.4398979
vn -0.003921569 0.003921569 0.9999846
vn -0.003921569 0.6156863 0.7879816
vn -0.003921539 -0.9999924 0
vn -0.003921569 -0.7411765 -0.6712988
vn -0.003921569 -0.6705883 0.7418194

vt -23.22385 -4.180814
vt -21.36756 -2.143855
vt -5.225826 -4.180814
vt -5.225826 -2.143855
vt -0.8412288 -4.180814
vt -0.8412288 -2.143855
vt 22.26011 -4.180814
vt 20.02491 -2.143855
vt 0.8412288 -2.143855
vt 0.8412288 -4.180814
vt -20.02491 -2.143855
vt -22.26011 -4.180814
vt 23.22385 -4.180814
vt 5.225826 -4.180814
vt 21.36756 -2.143855
vt 5.225826 -2.143855
vt -3.194437 3.149602
vt -7.998875 3.149602
vt -3.194437 4.724413
vt -5.448338 4.724413
vt -7.998875 5.118112
vt -5.448338 5.118112
vt -28.34646 3.149602
vt -28.34646 5.118112
vt 25.59055 3.149602
vt 25.59055 5.118112
vt 28.34646 5.118112
vt 28.34646 3.149602
vt -25.59055 5.118112
vt -25.59055 3.149602
vt -7.998875 -28.34646
vt -7.998875 25.59055
vt -5.448338 -28.34646
vt -5.448338 25.59055
vt 5.448338 -28.34646
vt 5.448338 25.59055
vt 7.998875 -28.34646
vt 7.998875 25.59055
vt 28.34646 4.724413
vt -25.59055 4.724413
vt -28.34646 4.724413
vt 25.59055 4.724413
vt -3.194437 -25.07228
vt -3.194437 27.10781
vt 3.194437 -25.07228
vt -3.194437 27.72714
vt 3.194437 27.72714
vt 3.194437 27.10781
vt -3.194437 -28.34646
vt -3.194437 -26.70937
vt 3.194437 -28.34646
vt 3.194437 -26.70937
vt 25.07228 4.724413
vt 26.70936 3.149602
vt 25.07228 3.937001
vt 3.194437 3.937001
vt -3.194437 3.937001
vt 3.194437 4.724413
vt -26.70937 3.149602
vt -25.07228 4.724413
vt -25.07228 3.937001
vt 7.998875 3.149602
vt 3.194437 3.149602
vt 7.998875 5.118112
vt 5.448338 4.724413
vt 5.448338 5.118112
vt -3.194437 -22.70474
vt -3.194437 -20.88813
vt 3.194437 -22.70474
vt 3.194437 -20.88813
vt -5.448338 3.149602
vt 5.448338 28.34646
vt 7.998875 28.34646
vt 5.448338 3.149602
vt -7.998875 28.34646
vt -5.448338 28.34646
vt -27.10781 4.724413
vt -27.10781 3.937001
vt -27.72714 4.724413
vt -28.34646 3.937001
vt 27.10781 3.937001
vt 27.10781 4.724413
vt 28.34646 3.937001
vt 27.72714 4.724413
vt 3.194437 -14.42995
vt -3.194437 -14.42995
vt 3.194437 -13.42817
vt -3.194437 -13.42817
vt -4.849266 20.02491
vt -4.849266 -0.8412288
vt -5.636678 20.02491
vt -5.636678 -0.8412288
vt -4.849266 -4.180814
vt -5.636678 -4.180814
vt -4.849266 -2.143855
vt -5.636678 -2.143855
vt 5.636678 -4.180814
vt 4.849279 -4.180814
vt 5.636678 -2.143855
vt 4.849279 -2.143855
vt 4.849279 -19.26905
vt 4.849279 -16.24493
vt 5.636678 -19.26905
vt 5.636678 -16.24493
vt -4.849266 -5.225826
vt -4.849266 -21.36756
vt -5.636678 -5.225826
vt -5.636678 -21.36756
vt -4.849266 -18.733
vt -5.636678 -18.733
vt -4.849266 -15.9771
vt -5.636678 -15.9771
vt 5.636678 20.02491
vt 5.636678 -0.8412288
vt 4.849279 20.02491
vt 4.849279 -0.8412288
vt -5.636678 -19.26905
vt -5.636678 -16.24493
vt -4.849266 -19.26905
vt -4.849266 -16.24493
vt 5.636678 -5.225826
vt 5.636678 -21.36756
vt 4.849279 -5.225826
vt 4.849279 -21.36756
vt 5.636678 -18.733
vt 4.849279 -18.733
vt 5.636678 -15.9771
vt 4.849279 -15.9771
vt -28.34646 -4.180814
vt -28.34646 -6.758324E-06
vt -12.72098 -4.180814
vt 28.34646 -6.758324E-06
vt -10.61602 -4.180814
vt -6.706818 -4.180814
vt 28.34646 -4.180814
vt 28.34646 1.574804
vt -28.34646 1.574804
vt 4.849279 -23.22385
vt 4.061867 -28.34646
vt 5.636678 -28.34646
vt 5.636678 -23.22385
vt 4.061867 28.34646
vt 4.849279 22.26011
vt 5.636678 22.26011
vt 5.636678 28.34646
vt 4.061867 -6.706818
vt 4.061867 -10.61602
vt 4.061867 -12.72098
vt -4.061867 28.34646
vt -4.061867 -28.34646
vt 12.72098 -4.180814
vt 10.61602 -4.180814
vt 6.706818 -4.180814
vt -4.061867 -6.706818
vt -4.849266 22.26011
vt -5.636678 28.34646
vt -4.061867 -10.61602
vt -4.061867 -12.72098
vt -5.636678 22.26011
vt -4.849266 -23.22385
vt -5.636678 -28.34646
vt -5.636678 -23.22385
vt 4.061867 -4.180814
vt 5.636678 1.574804
vt 4.061867 -6.758324E-06
vt -4.061867 -6.758324E-06
vt -5.636678 1.574804
vt -4.061867 -4.180814
vt -5.448338 27.10781
vt -5.448338 3.937001
vt 5.448338 3.937001
vt 5.448338 27.10781
vt 3.194437 28.34646
vt -3.194437 28.34646
vt 7.998875 1.574804
vt -7.998875 1.574804

usemtl pipe
usemap pipe

f 2/2/1 1/1/1 3/3/1
f 3/3/1 4/4/1 2/2/1
f 6/6/1 5/5/1 7/7/1
f 7/7/1 8/8/1 6/6/1
f 10/10/2 9/9/2 11/11/2
f 11/11/2 12/12/2 10/10/2
f 14/14/2 13/13/2 15/15/2
f 15/15/2 16/16/2 14/14/2
f 18/18/3 17/17/3 19/19/3
f 19/19/3 20/20/3 18/18/3
f 20/20/3 21/21/3 18/18/3
f 20/20/3 22/22/3 21/21/3
f 24/24/1 23/23/1 25/25/1
f 25/25/1 26/26/1 24/24/1
f 18/28/2 21/27/2 27/29/2
f 27/29/2 28/30/2 18/28/2
f 27/32/4 21/31/4 22/33/4
f 22/33/4 29/34/4 27/32/4
f 31/36/4 30/35/4 24/37/4
f 24/37/4 26/38/4 31/36/4
f 32/39/2 30/27/2 31/29/2
f 31/29/2 33/40/2 32/39/2
f 22/24/1 20/41/1 34/42/1
f 34/42/1 29/26/1 22/24/1
f 36/44/4 35/43/4 37/45/4
f 37/45/4 38/46/4 36/44/4
f 37/45/4 39/47/4 38/46/4
f 37/45/4 40/48/4 39/47/4
f 41/50/4 17/49/4 42/51/4
f 42/51/4 43/52/4 41/50/4
f 42/28/2 44/39/2 37/53/2
f 37/53/2 43/54/2 42/28/2
f 37/53/2 45/55/2 43/54/2
f 46/57/3 45/56/3 37/58/3
f 37/58/3 35/19/3 46/57/3
f 19/41/1 17/23/1 41/59/1
f 41/59/1 35/60/1 19/41/1
f 41/59/1 46/61/1 35/60/1
f 42/63/3 23/62/3 24/64/3
f 24/64/3 32/65/3 42/63/3
f 24/64/3 30/66/3 32/65/3
f 42/63/3 32/65/3 44/58/3
f 46/68/5 41/67/5 43/69/5
f 43/69/5 45/70/5 46/68/5
f 25/18/6 47/71/6 33/20/6
f 33/20/6 26/21/6 25/18/6
f 33/20/6 31/22/6 26/21/6
f 48/72/4 47/36/4 25/38/4
f 25/38/4 49/73/4 48/72/4
f 50/74/6 28/62/6 27/64/6
f 27/64/6 34/65/6 50/74/6
f 27/64/6 29/66/6 34/65/6
f 51/75/4 28/32/4 50/34/4
f 50/34/4 52/76/4 51/75/4
f 53/78/2 36/77/2 38/79/2
f 38/79/2 54/80/2 53/78/2
f 40/82/1 55/81/1 56/83/1
f 56/83/1 39/84/1 40/82/1
f 56/86/7 54/85/7 38/87/7
f 38/87/7 39/88/7 56/86/7

usemtl glass
usemap glass

f 6/90/8 8/89/8 57/91/8
f 57/91/8 58/92/8 6/90/8
f 59/94/6 5/93/6 6/95/6
f 6/95/6 58/96/6 59/94/6
f 3/98/3 60/97/3 61/99/3
f 61/99/3 4/100/3 3/98/3
f 8/102/9 7/101/9 62/103/9
f 62/103/9 57/104/9 8/102/9
f 2/106/8 4/105/8 61/107/8
f 61/107/8 63/108/8 2/106/8
f 64/110/10 1/109/10 2/111/10
f 2/111/10 63/112/10 64/110/10
f 65/94/3 14/93/3 16/95/3
f 16/95/3 66/96/3 65/94/3
f 68/114/8 67/113/8 11/115/8
f 11/115/8 9/116/8 68/114/8
f 67/118/9 69/117/9 12/119/9
f 12/119/9 11/120/9 67/118/9
f 70/122/8 66/121/8 16/123/8
f 16/123/8 15/124/8 70/122/8
f 10/98/6 71/97/6 68/99/6
f 68/99/6 9/100/6 10/98/6
f 13/126/10 72/125/10 70/127/10
f 70/127/10 15/128/10 13/126/10
f 74/130/1 73/129/1 75/131/1
f 75/131/1 76/132/1 74/130/1
f 75/131/1 77/133/1 76/132/1
f 77/133/1 78/134/1 76/132/1
f 78/134/1 79/135/1 76/132/1
f 70/15/2 80/135/2 81/136/2
f 81/136/2 82/137/2 70/15/2
f 70/15/2 72/13/2 80/135/2
f 82/137/2 66/16/2 70/15/2
f 82/137/2 68/9/2 66/16/2
f 68/9/2 65/14/2 66/16/2
f 82/137/2 67/11/2 68/9/2
f 82/137/2 69/12/2 67/11/2
f 82/137/2 83/129/2 69/12/2
f 65/14/2 68/9/2 71/10/2
f 65/121/8 71/114/8 10/116/8
f 10/116/8 14/123/8 65/121/8
f 10/116/8 13/138/8 14/123/8
f 13/138/8 10/116/8 73/139/8
f 13/138/8 73/139/8 80/140/8
f 80/140/8 72/141/8 13/138/8
f 10/116/8 79/142/8 73/139/8
f 79/142/8 10/116/8 12/143/8
f 79/142/8 12/143/8 69/144/8
f 69/144/8 83/145/8 79/142/8
f 79/142/8 78/146/8 73/139/8
f 78/146/8 77/147/8 73/139/8
f 77/147/8 75/148/8 73/139/8
f 74/139/8 76/142/8 84/149/8
f 84/149/8 85/150/8 74/139/8
f 86/135/2 85/132/2 84/130/2
f 84/130/2 87/151/2 86/135/2
f 84/130/2 88/152/2 87/151/2
f 84/130/2 89/153/2 88/152/2
f 84/130/2 90/129/2 89/153/2
f 7/155/8 89/154/8 90/149/8
f 90/149/8 91/156/8 7/155/8
f 7/155/8 88/157/8 89/154/8
f 7/155/8 87/158/8 88/157/8
f 7/155/8 86/150/8 87/158/8
f 91/156/8 62/159/8 7/155/8
f 86/150/8 7/155/8 5/90/8
f 86/150/8 5/90/8 1/160/8
f 1/160/8 92/161/8 86/150/8
f 5/90/8 3/105/8 1/160/8
f 3/105/8 5/90/8 59/92/8
f 59/92/8 60/107/8 3/105/8
f 1/160/8 64/162/8 92/161/8
f 94/37/8 93/73/8 82/145/8
f 82/145/8 81/140/8 94/37/8
f 96/161/8 95/156/8 97/75/8
f 97/75/8 98/31/8 96/161/8
f 61/4/1 60/3/1 59/5/1
f 61/4/1 59/5/1 58/6/1
f 61/4/1 58/6/1 95/136/1
f 63/2/1 61/4/1 95/136/1
f 63/2/1 95/136/1 96/137/1
f 64/1/1 63/2/1 96/137/1
f 96/137/1 92/129/1 64/1/1
f 58/6/1 57/8/1 95/136/1
f 57/8/1 62/7/1 95/136/1
f 62/7/1 91/135/1 95/136/1
f 86/163/3 92/97/3 96/164/3
f 96/164/3 85/165/3 86/163/3
f 96/164/3 74/166/3 85/165/3
f 74/166/3 96/164/3 81/167/3
f 74/166/3 81/167/3 80/94/3
f 80/94/3 73/168/3 74/166/3
f 79/163/6 83/97/6 82/164/6
f 82/164/6 76/165/6 79/163/6
f 82/164/6 84/166/6 76/165/6
f 82/164/6 95/167/6 84/166/6
f 84/166/6 95/167/6 91/94/6
f 91/94/6 90/168/6 84/166/6
f 34/34/4 20/33/4 19/49/4
f 19/49/4 99/169/4 34/34/4
f 19/49/4 36/44/4 99/169/4
f 19/49/4 35/43/4 36/44/4
f 100/170/6 48/71/6 52/74/6
f 52/74/6 54/56/6 100/170/6
f 52/74/6 101/171/6 54/56/6
f 54/56/6 56/57/6 100/170/6
f 33/42/1 47/25/1 48/28/1
f 48/28/1 102/81/1 33/42/1
f 48/28/1 100/83/1 102/81/1
f 33/42/1 102/81/1 103/82/1
f 50/30/2 34/40/2 99/77/2
f 99/77/2 104/78/2 50/30/2
f 104/78/2 52/23/2 50/30/2
f 104/78/2 101/80/2 52/23/2
f 37/45/4 44/51/4 32/35/4
f 32/35/4 40/48/4 37/45/4
f 32/35/4 103/172/4 40/48/4
f 32/35/4 33/36/4 103/172/4
f 56/173/4 55/48/4 102/172/4
f 102/172/4 100/72/4 56/173/4
f 102/170/6 55/57/6 40/19/6
f 40/19/6 103/20/6 102/170/6
f 101/76/4 104/169/4 53/44/4
f 53/44/4 54/174/4 101/76/4
f 53/56/6 104/171/6 99/65/6
f 99/65/6 36/58/6 53/56/6

usemtl metal
usemap metal

f 82/164/6 93/175/6 51/62/6
f 51/62/6 48/71/6 82/164/6
f 51/62/6 52/74/6 48/71/6
f 82/164/6 48/71/6 49/18/6
f 82/164/6 49/18/6 97/176/6
f 97/176/6 95/167/6 82/164/6
f 23/23/1 98/137/1 97/136/1
f 97/136/1 25/25/1 23/23/1
f 97/136/1 49/28/1 25/25/1
f 96/164/3 98/175/3 23/62/3
f 23/62/3 81/167/3 96/164/3
f 23/62/3 94/176/3 81/167/3
f 23/62/3 42/63/3 94/176/3
f 42/63/3 18/18/3 94/176/3
f 42/63/3 17/17/3 18/18/3
f 94/136/2 18/28/2 28/30/2
f 28/30/2 93/137/2 94/136/2
f 28/30/2 51/23/2 93/137/2
